<svg width="800" height="800" viewBox="0 0 800 800" fill="none" xmlns="http://www.w3.org/2000/svg">
<g clip-path="url(#clip0_65_4)">
<path d="M769.231 369.231H105.077L421.692 52.4616C427.423 46.6966 430.64 38.8981 430.64 30.7693C430.64 22.6405 427.423 14.842 421.692 9.07698C415.927 3.34619 408.129 0.129517 400 0.129517C391.871 0.129517 384.073 3.34619 378.308 9.07698L9.07694 378.308C7.62148 379.749 6.33145 381.349 5.23078 383.077C4.7406 383.563 4.27833 384.077 3.84617 384.615C3.84617 385.692 2.76925 386.615 2.30771 387.692L1.38463 390.769C1.29619 391.639 1.29619 392.515 1.38463 393.385C0.597071 397.346 0.597071 401.423 1.38463 405.385C1.29619 406.254 1.29619 407.13 1.38463 408L2.30771 411.077C2.30771 412.154 3.38463 413.077 3.84617 414.154C4.25047 414.956 4.71326 415.727 5.23078 416.462C6.33145 418.189 7.62148 419.789 9.07694 421.231L378.308 790.462C381.066 793.683 384.46 796.299 388.278 798.145C392.095 799.992 396.253 801.03 400.491 801.194C404.728 801.358 408.954 800.644 412.902 799.097C416.851 797.55 420.437 795.203 423.435 792.205C426.434 789.206 428.78 785.62 430.327 781.672C431.874 777.723 432.588 773.497 432.425 769.26C432.261 765.022 431.223 760.865 429.376 757.047C427.529 753.23 424.913 749.835 421.692 747.077L105.077 430.769H769.231C777.391 430.769 785.218 427.528 790.988 421.757C796.758 415.987 800 408.161 800 400C800 391.84 796.758 384.013 790.988 378.243C785.218 372.473 777.391 369.231 769.231 369.231Z" fill="white"/>
</g>
<defs>
<clipPath id="clip0_65_4">
<rect width="800" height="800" fill="white"/>
</clipPath>
</defs>
</svg>
