<svg width="500" height="500" viewBox="0 0 500 500" fill="none" xmlns="http://www.w3.org/2000/svg">
<g clip-path="url(#clip0_40_64)">
<mask id="mask0_40_64" style="mask-type:luminance" maskUnits="userSpaceOnUse" x="357" y="246" width="143" height="228">
<path d="M357.578 246.141H499.964V473.333H357.578V246.141Z" fill="white"/>
</mask>
<g mask="url(#mask0_40_64)">
<path d="M361.885 473.063C360.599 473.063 359.349 472.354 358.724 471.125C357.828 469.375 358.516 467.24 360.266 466.344C442.047 424.49 492.854 341.578 492.854 249.984C492.854 248.021 494.443 246.432 496.406 246.432C498.37 246.432 499.958 248.021 499.958 249.984C499.958 296.839 486.854 342.552 462.073 382.172C437.974 420.703 403.891 452 363.5 472.667C362.984 472.932 362.432 473.063 361.885 473.063Z" fill="#A07EFF"/>
</g>
<path d="M494.224 220.708C492.474 220.708 490.948 219.411 490.708 217.63C489.859 211.276 488.745 204.896 487.396 198.646C486.979 196.729 488.198 194.839 490.115 194.427C492.042 194.01 493.927 195.229 494.339 197.146C495.724 203.573 496.875 210.151 497.75 216.688C498.005 218.625 496.641 220.417 494.698 220.677C494.537 220.698 494.38 220.708 494.224 220.708Z" fill="#A07EFF"/>
<path d="M444.401 102.281C443.344 102.281 442.297 101.807 441.599 100.911C395.115 41.3021 325.271 7.10937 249.979 7.10937C227.453 7.10937 205.141 10.2083 183.656 16.3125C181.771 16.849 179.802 15.75 179.271 13.8698C178.734 11.9844 179.828 10.0156 181.714 9.47917C203.833 3.19792 226.797 0.00520706 249.979 0.00520706C327.479 0.00520706 399.359 35.1927 447.198 96.5469C448.406 98.0938 448.13 100.323 446.583 101.526C445.932 102.031 445.161 102.281 444.401 102.281Z" fill="#A07EFF"/>
<path d="M65.4583 416.698C64.4791 416.698 63.4948 416.292 62.7968 415.505C52.3437 403.688 42.9635 390.839 34.9218 377.313C33.9218 375.63 34.4739 373.448 36.1614 372.448C37.8437 371.443 40.026 372 41.026 373.688C48.8385 386.833 57.9531 399.318 68.1198 410.792C69.4166 412.26 69.2812 414.51 67.8125 415.813C67.1302 416.406 66.2968 416.698 65.4583 416.698Z" fill="#A07EFF"/>
<mask id="mask1_40_64" style="mask-type:luminance" maskUnits="userSpaceOnUse" x="182" y="484" width="134" height="16">
<path d="M182.667 484H315.943V499.964H182.667V484Z" fill="white"/>
</mask>
<g mask="url(#mask1_40_64)">
<path d="M249.979 499.964C228.187 499.964 206.547 497.141 185.656 491.573C183.76 491.068 182.63 489.125 183.141 487.229C183.641 485.328 185.588 484.203 187.484 484.708C207.776 490.12 228.802 492.859 249.979 492.859C270.531 492.859 290.953 490.276 310.693 485.177C312.588 484.688 314.526 485.833 315.016 487.724C315.51 489.63 314.365 491.563 312.469 492.057C292.151 497.302 271.125 499.964 249.979 499.964Z" fill="#A07EFF"/>
</g>
<path d="M17.901 336.594C16.4427 336.594 15.0729 335.693 14.5573 334.24C4.89583 307.255 0 278.911 0 249.984C0 231.818 1.96354 213.682 5.82813 196.094C6.24479 194.177 8.13021 192.964 10.0573 193.391C11.974 193.813 13.1823 195.703 12.7604 197.62C9.00521 214.708 7.10417 232.328 7.10417 249.984C7.10417 278.094 11.8646 305.63 21.2448 331.844C21.9063 333.693 20.9427 335.724 19.0937 336.385C18.6979 336.526 18.2969 336.594 17.901 336.594Z" fill="#A07EFF"/>
<path d="M485.036 249.984C485.036 120.161 379.802 14.9271 249.979 14.9271C120.156 14.9271 14.9219 120.161 14.9219 249.984C14.9219 379.802 120.156 485.047 249.979 485.047C379.802 485.047 485.036 379.802 485.036 249.984Z" fill="#A07EFF"/>
<path d="M354.302 87.3698C341.26 98.3021 300.906 128.672 251.984 131.755C247.484 132.036 244 135.818 244 140.328V255.016C244 280.589 254.464 303.589 271.99 316.542C287.745 328.188 340.641 363.24 355.078 372.781C357.302 374.25 360.188 374.25 362.417 372.781C376.854 363.24 429.75 328.188 445.505 316.542C463.031 303.589 473.495 280.589 473.495 255.016V140.328C473.495 135.818 470.01 132.036 465.51 131.755C416.589 128.672 376.234 98.3021 363.193 87.3698C360.62 85.2187 356.875 85.2187 354.302 87.3698Z" fill="#713FFD"/>
<path d="M350.828 83.901C337.786 94.8281 297.432 125.198 248.505 128.276C244.01 128.557 240.526 132.344 240.526 136.854V251.536C240.526 277.109 250.99 300.115 268.516 313.068C284.271 324.714 337.161 359.76 351.604 369.307C353.828 370.776 356.714 370.776 358.937 369.307C373.38 359.76 426.271 324.714 442.036 313.068C459.557 300.115 470.016 277.109 470.016 251.536V136.854C470.016 132.344 466.536 128.557 462.036 128.276C413.115 125.198 372.76 94.8281 359.714 83.901C357.141 81.7396 353.406 81.7396 350.828 83.901Z" fill="white"/>
<path d="M351.214 84.3594C336.448 96.7292 296.885 125.839 248.542 128.875C244.38 129.135 241.125 132.641 241.125 136.854V251.536C241.125 276.927 251.495 299.745 268.87 312.589C284.526 324.151 336.406 358.542 351.938 368.807C353.964 370.146 356.578 370.146 358.609 368.807C374.135 358.542 426.021 324.151 441.677 312.589C459.042 299.745 469.422 276.927 469.422 251.536V136.854C469.422 132.641 466.156 129.135 462 128.875C413.656 125.839 374.094 96.7292 359.333 84.3594C356.979 82.3854 353.568 82.3854 351.214 84.3594ZM355.271 371.01C353.88 371.01 352.49 370.609 351.271 369.807C335.74 359.542 283.833 325.141 268.156 313.552C250.474 300.484 239.922 277.302 239.922 251.536V136.854C239.922 132.01 243.677 127.979 248.469 127.677C296.458 124.661 335.766 95.7344 350.443 83.4375C353.24 81.0937 357.302 81.0937 360.099 83.4375C374.776 95.7344 414.089 124.661 462.073 127.677C466.865 127.979 470.62 132.01 470.62 136.854V251.536C470.62 277.302 460.068 300.484 442.391 313.552C426.708 325.141 374.807 359.542 359.276 369.807C358.057 370.609 356.667 371.01 355.271 371.01Z" fill="black"/>
<path d="M354.594 114.995C344.203 123.708 312.047 147.906 273.063 150.354C269.479 150.589 266.708 153.599 266.708 157.193V248.573C266.708 268.953 275.042 287.276 289.01 297.599C301.563 306.875 343.708 334.807 355.214 342.406C356.99 343.578 359.281 343.578 361.057 342.406C372.563 334.807 414.703 306.875 427.26 297.599C441.224 287.276 449.563 268.953 449.563 248.573V157.193C449.563 153.599 446.787 150.589 443.208 150.354C404.224 147.906 372.068 123.708 361.677 114.995C359.625 113.281 356.641 113.281 354.594 114.995Z" fill="#713FFD"/>
<path d="M351.651 112.229C341.208 120.979 308.891 145.307 269.714 147.771C266.104 147.995 263.318 151.026 263.318 154.635V246.484C263.318 266.964 271.698 285.38 285.729 295.755C298.349 305.078 340.714 333.151 352.276 340.797C354.057 341.974 356.365 341.974 358.151 340.797C369.714 333.151 412.073 305.078 424.693 295.755C438.729 285.38 447.104 266.964 447.104 246.484V154.635C447.104 151.026 444.318 147.995 440.714 147.771C401.537 145.307 369.219 120.979 358.771 112.229C356.708 110.5 353.714 110.5 351.651 112.229Z" fill="#A07EFF"/>
<path d="M353.839 341.5C353.526 341.417 353.219 341.302 352.922 341.161C353.219 341.302 353.526 341.417 353.833 341.5H353.839Z" fill="#C1EAFD"/>
<path d="M355.214 341.682C354.75 341.682 354.292 341.62 353.839 341.5H353.833C354.292 341.62 354.75 341.682 355.214 341.682Z" fill="#A07EFF"/>
<path d="M355.214 341.682C354.75 341.682 354.292 341.62 353.833 341.5C353.526 341.417 353.219 341.302 352.922 341.161C352.703 341.057 352.479 340.932 352.276 340.797C343.88 335.245 319.255 318.932 301.563 306.839C301.766 305.969 301.984 305.094 302.234 304.214C306.792 287.839 305.745 275.76 301.552 267.76C297.828 256.927 289.224 251.688 279.693 251.688C275.781 251.688 271.708 252.573 267.76 254.318C266.833 251.24 265.438 248.344 263.458 245.708C263.411 245.646 263.365 245.583 263.318 245.521V154.635C263.318 151.026 266.104 147.995 269.714 147.771C308.891 145.307 341.208 120.979 351.651 112.229C352.474 111.542 353.443 111.125 354.443 110.99C354.703 110.948 354.953 110.938 355.214 110.938V341.682Z" fill="#A07EFF"/>
<path d="M394.604 402.266H370.526C370.193 402.266 369.927 402 369.927 401.667C369.927 401.333 370.193 401.068 370.526 401.068H394.604C394.938 401.068 395.208 401.333 395.208 401.667C395.208 402 394.938 402.266 394.604 402.266Z" fill="black"/>
<path d="M406.646 402.266H402.63C402.302 402.266 402.031 402 402.031 401.667C402.031 401.333 402.302 401.068 402.63 401.068H406.646C406.979 401.068 407.25 401.333 407.25 401.667C407.25 402 406.979 402.266 406.646 402.266Z" fill="black"/>
<path d="M389.255 408.953H351.797C351.469 408.953 351.193 408.688 351.193 408.359C351.193 408.021 351.469 407.755 351.797 407.755H389.255C389.589 407.755 389.854 408.021 389.854 408.359C389.854 408.688 389.589 408.953 389.255 408.953Z" fill="black"/>
<path d="M167.484 309.099C166.495 309.099 165.682 309.906 165.682 310.901C165.682 311.891 166.495 312.703 167.484 312.703C168.479 312.703 169.292 311.891 169.292 310.901C169.292 309.906 168.479 309.099 167.484 309.099ZM167.484 313.906C165.833 313.906 164.484 312.557 164.484 310.901C164.484 309.245 165.833 307.896 167.484 307.896C169.141 307.896 170.49 309.245 170.49 310.901C170.49 312.557 169.141 313.906 167.484 313.906Z" fill="black"/>
<path d="M83.8333 342.359H77.4167C77.0885 342.359 76.8125 342.089 76.8125 341.755C76.8125 341.427 77.0885 341.156 77.4167 341.156H83.8333C84.1615 341.156 84.4323 341.427 84.4323 341.755C84.4323 342.089 84.1615 342.359 83.8333 342.359Z" fill="black"/>
<path d="M80.6198 345.568C80.2916 345.568 80.026 345.297 80.026 344.964V338.552C80.026 338.219 80.2916 337.953 80.6198 337.953C80.9583 337.953 81.2239 338.219 81.2239 338.552V344.964C81.2239 345.297 80.9583 345.568 80.6198 345.568Z" fill="black"/>
<path d="M295.38 56.75H290.016C289.682 56.75 289.417 56.4792 289.417 56.151C289.417 55.8125 289.682 55.5469 290.016 55.5469H295.38C295.708 55.5469 295.979 55.8125 295.979 56.151C295.979 56.4792 295.708 56.75 295.38 56.75Z" fill="black"/>
<path d="M312.938 63.7031H295.229C294.896 63.7031 294.63 63.4323 294.63 63.099C294.63 62.7708 294.896 62.4948 295.229 62.4948H312.938C313.271 62.4948 313.542 62.7708 313.542 63.099C313.542 63.4323 313.271 63.7031 312.938 63.7031Z" fill="black"/>
<path d="M321.63 63.7031H319.562C319.229 63.7031 318.964 63.4323 318.964 63.099C318.964 62.7708 319.229 62.4948 319.562 62.4948H321.63C321.964 62.4948 322.229 62.7708 322.229 63.099C322.229 63.4323 321.964 63.7031 321.63 63.7031Z" fill="black"/>
<path d="M330.318 56.75H302.328C301.995 56.75 301.729 56.4792 301.729 56.151C301.729 55.8125 301.995 55.5469 302.328 55.5469H330.318C330.651 55.5469 330.922 55.8125 330.922 56.151C330.922 56.4792 330.651 56.75 330.318 56.75Z" fill="black"/>
<path d="M275.99 103.797C274.979 103.797 274.156 104.62 274.156 105.63C274.156 106.641 274.979 107.464 275.99 107.464C276.995 107.464 277.813 106.641 277.813 105.63C277.813 104.62 276.995 103.797 275.99 103.797ZM275.99 108.661C274.312 108.661 272.953 107.302 272.953 105.63C272.953 103.958 274.312 102.594 275.99 102.594C277.656 102.594 279.021 103.958 279.021 105.63C279.021 107.302 277.656 108.661 275.99 108.661Z" fill="black"/>
<path d="M423.031 367.807H417.469C417.141 367.807 416.87 367.536 416.87 367.203C416.87 366.875 417.141 366.604 417.469 366.604H423.031C423.365 366.604 423.63 366.875 423.63 367.203C423.63 367.536 423.365 367.807 423.031 367.807Z" fill="black"/>
<path d="M420.25 370.583C419.922 370.583 419.651 370.313 419.651 369.984V364.427C419.651 364.089 419.922 363.823 420.25 363.823C420.583 363.823 420.854 364.089 420.854 364.427V369.984C420.854 370.313 420.583 370.583 420.25 370.583Z" fill="black"/>
<path d="M191.875 197.458H186.313C185.984 197.458 185.719 197.188 185.719 196.859C185.719 196.526 185.984 196.26 186.313 196.26H191.875C192.208 196.26 192.474 196.526 192.474 196.859C192.474 197.188 192.208 197.458 191.875 197.458Z" fill="black"/>
<path d="M189.094 200.24C188.766 200.24 188.495 199.974 188.495 199.635V194.078C188.495 193.75 188.766 193.474 189.094 193.474C189.427 193.474 189.698 193.75 189.698 194.078V199.635C189.698 199.974 189.427 200.24 189.094 200.24Z" fill="black"/>
<path d="M58.4323 201.411H53.0677C52.7395 201.411 52.4635 201.146 52.4635 200.807C52.4635 200.479 52.7395 200.208 53.0677 200.208H58.4323C58.7604 200.208 59.0312 200.479 59.0312 200.807C59.0312 201.146 58.7604 201.411 58.4323 201.411Z" fill="black"/>
<path d="M75.9895 208.365H58.2812C57.9479 208.365 57.6823 208.094 57.6823 207.766C57.6823 207.427 57.9479 207.161 58.2812 207.161H75.9895C76.3229 207.161 76.5937 207.427 76.5937 207.766C76.5937 208.094 76.3229 208.365 75.9895 208.365Z" fill="black"/>
<path d="M84.6823 208.365H82.6146C82.2813 208.365 82.0156 208.094 82.0156 207.766C82.0156 207.427 82.2813 207.161 82.6146 207.161H84.6823C85.0156 207.161 85.2813 207.427 85.2813 207.766C85.2813 208.094 85.0156 208.365 84.6823 208.365Z" fill="black"/>
<path d="M93.3698 201.411H65.3802C65.0521 201.411 64.7812 201.146 64.7812 200.807C64.7812 200.479 65.0521 200.208 65.3802 200.208H93.3698C93.7031 200.208 93.974 200.479 93.974 200.807C93.974 201.146 93.7031 201.411 93.3698 201.411Z" fill="black"/>
<path d="M397.984 228.552C397.984 251.125 379.687 269.432 357.109 269.432C334.531 269.432 316.229 251.125 316.229 228.552C316.229 205.974 334.531 187.672 357.109 187.672C379.687 187.672 397.984 205.974 397.984 228.552Z" fill="#713FFD"/>
<path d="M354.526 297.188C354.198 297.188 353.932 296.922 353.932 296.583V161.969C353.932 161.635 354.198 161.37 354.526 161.37C354.865 161.37 355.13 161.635 355.13 161.969V296.583C355.13 296.922 354.865 297.188 354.526 297.188Z" fill="black"/>
<path d="M418.531 226.573H299.073C298.745 226.573 298.474 226.307 298.474 225.969C298.474 225.641 298.745 225.37 299.073 225.37H418.531C418.865 225.37 419.13 225.641 419.13 225.969C419.13 226.307 418.865 226.573 418.531 226.573Z" fill="black"/>
<path d="M405.016 277.057C404.859 277.057 404.708 277 404.589 276.885L300.094 172.391C299.859 172.156 299.859 171.776 300.094 171.542C300.333 171.307 300.714 171.307 300.948 171.542L405.438 276.036C405.672 276.271 405.672 276.646 405.438 276.885C405.323 277 405.172 277.057 405.016 277.057Z" fill="black"/>
<path d="M313.651 267.453C313.5 267.453 313.349 267.396 313.229 267.276C312.995 267.042 312.995 266.661 313.229 266.427L394.375 185.276C394.609 185.042 394.995 185.042 395.224 185.276C395.458 185.51 395.458 185.896 395.224 186.13L314.073 267.276C313.958 267.396 313.807 267.453 313.651 267.453Z" fill="black"/>
<path d="M354.526 226.573C354.292 226.573 354.068 226.432 353.974 226.203L332.198 173.635C332.073 173.328 332.219 172.979 332.526 172.849C332.828 172.724 333.182 172.87 333.307 173.172L355.089 225.74C355.214 226.047 355.063 226.401 354.76 226.531L354.526 226.573Z" fill="black"/>
<path d="M286.068 254.932C285.833 254.932 285.609 254.792 285.51 254.563C285.385 254.25 285.531 253.901 285.839 253.776L426.313 195.589C426.615 195.464 426.969 195.609 427.094 195.917C427.224 196.224 427.078 196.573 426.771 196.698L286.297 254.885L286.068 254.932Z" fill="black"/>
<path d="M406.208 247.979L405.974 247.938L296.161 202.443C295.854 202.323 295.703 201.969 295.833 201.661C295.963 201.354 296.318 201.208 296.62 201.333L406.437 246.823C406.745 246.953 406.891 247.302 406.766 247.604C406.667 247.839 406.443 247.979 406.208 247.979Z" fill="black"/>
<path d="M333.823 276.573L333.589 276.526C333.286 276.401 333.135 276.047 333.266 275.74L382.891 155.937C383.016 155.635 383.37 155.49 383.677 155.609C383.979 155.74 384.125 156.094 384 156.396L334.375 276.198C334.281 276.432 334.057 276.573 333.823 276.573Z" fill="black"/>
<path d="M395.406 225.969C395.406 248.547 377.104 266.849 354.526 266.849C331.953 266.849 313.651 248.547 313.651 225.969C313.651 203.396 331.953 185.094 354.526 185.094C377.104 185.094 395.406 203.396 395.406 225.969Z" fill="white"/>
<path d="M359.688 161.969C359.688 159.12 357.38 156.807 354.526 156.807C351.677 156.807 349.365 159.12 349.365 161.969C349.365 164.823 351.677 167.13 354.526 167.13C357.38 167.13 359.688 164.823 359.688 161.969Z" fill="#A07EFF"/>
<path d="M354.526 157.406C352.01 157.406 349.964 159.453 349.964 161.969C349.964 164.484 352.01 166.531 354.526 166.531C357.047 166.531 359.094 164.484 359.094 161.969C359.094 159.453 357.047 157.406 354.526 157.406ZM354.526 167.729C351.354 167.729 348.766 165.146 348.766 161.969C348.766 158.792 351.354 156.208 354.526 156.208C357.708 156.208 360.292 158.792 360.292 161.969C360.292 165.146 357.708 167.729 354.526 167.729Z" fill="black"/>
<path d="M387.458 156.448C387.458 154.167 385.609 152.312 383.328 152.312C381.047 152.312 379.198 154.167 379.198 156.448C379.198 158.724 381.047 160.573 383.328 160.573C385.609 160.573 387.458 158.724 387.458 156.448Z" fill="white"/>
<path d="M383.328 152.917C381.385 152.917 379.802 154.5 379.802 156.448C379.802 158.391 381.385 159.974 383.328 159.974C385.271 159.974 386.854 158.391 386.854 156.448C386.854 154.5 385.271 152.917 383.328 152.917ZM383.328 161.177C380.719 161.177 378.599 159.052 378.599 156.448C378.599 153.833 380.719 151.714 383.328 151.714C385.938 151.714 388.063 153.833 388.063 156.448C388.063 159.052 385.938 161.177 383.328 161.177Z" fill="black"/>
<path d="M400.99 185.703C400.99 182.281 398.219 179.505 394.797 179.505C391.375 179.505 388.604 182.281 388.604 185.703C388.604 189.125 391.375 191.896 394.797 191.896C398.219 191.896 400.99 189.125 400.99 185.703Z" fill="#A07EFF"/>
<path d="M394.802 180.109C391.714 180.109 389.203 182.615 389.203 185.703C389.203 188.786 391.714 191.297 394.802 191.297C397.88 191.297 400.391 188.786 400.391 185.703C400.391 182.615 397.88 180.109 394.802 180.109ZM394.802 192.5C391.057 192.5 388.005 189.448 388.005 185.703C388.005 181.958 391.057 178.906 394.802 178.906C398.547 178.906 401.594 181.958 401.594 185.703C401.594 189.448 398.547 192.5 394.802 192.5Z" fill="black"/>
<path d="M429.641 196.146C429.641 194.432 428.25 193.047 426.542 193.047C424.833 193.047 423.443 194.432 423.443 196.146C423.443 197.854 424.833 199.24 426.542 199.24C428.25 199.24 429.641 197.854 429.641 196.146Z" fill="white"/>
<path d="M426.542 193.646C425.161 193.646 424.042 194.766 424.042 196.146C424.042 197.521 425.161 198.641 426.542 198.641C427.917 198.641 429.036 197.521 429.036 196.146C429.036 194.766 427.917 193.646 426.542 193.646ZM426.542 199.844C424.5 199.844 422.844 198.182 422.844 196.146C422.844 194.109 424.5 192.448 426.542 192.448C428.578 192.448 430.245 194.109 430.245 196.146C430.245 198.182 428.578 199.844 426.542 199.844Z" fill="black"/>
<path d="M335.854 173.406C335.854 171.693 334.464 170.307 332.755 170.307C331.047 170.307 329.656 171.693 329.656 173.406C329.656 175.115 331.047 176.505 332.755 176.505C334.464 176.505 335.854 175.115 335.854 173.406Z" fill="white"/>
<path d="M332.755 170.906C331.375 170.906 330.255 172.026 330.255 173.406C330.255 174.781 331.375 175.901 332.755 175.901C334.13 175.901 335.25 174.781 335.25 173.406C335.25 172.026 334.13 170.906 332.755 170.906ZM332.755 177.099C330.714 177.099 329.057 175.448 329.057 173.406C329.057 171.365 330.714 169.708 332.755 169.708C334.792 169.708 336.453 171.365 336.453 173.406C336.453 175.448 334.792 177.099 332.755 177.099Z" fill="black"/>
<path d="M304.656 171.969C304.656 169.688 302.802 167.833 300.521 167.833C298.245 167.833 296.396 169.688 296.396 171.969C296.396 174.245 298.245 176.099 300.521 176.099C302.802 176.099 304.656 174.245 304.656 171.969Z" fill="#A07EFF"/>
<path d="M300.521 168.438C298.573 168.438 296.99 170.021 296.99 171.969C296.99 173.911 298.573 175.495 300.521 175.495C302.469 175.495 304.052 173.911 304.052 171.969C304.052 170.021 302.469 168.438 300.521 168.438ZM300.521 176.693C297.917 176.693 295.792 174.578 295.792 171.969C295.792 169.359 297.917 167.24 300.521 167.24C303.135 167.24 305.255 169.359 305.255 171.969C305.255 174.578 303.135 176.693 300.521 176.693Z" fill="black"/>
<path d="M302.589 201.891C302.589 198.469 299.812 195.693 296.396 195.693C292.974 195.693 290.198 198.469 290.198 201.891C290.198 205.313 292.974 208.083 296.396 208.083C299.812 208.083 302.589 205.313 302.589 201.891Z" fill="white"/>
<path d="M296.396 196.297C293.307 196.297 290.802 198.807 290.802 201.891C290.802 204.974 293.307 207.484 296.396 207.484C299.479 207.484 301.984 204.974 301.984 201.891C301.984 198.807 299.479 196.297 296.396 196.297ZM296.396 208.688C292.646 208.688 289.599 205.641 289.599 201.891C289.599 198.146 292.646 195.099 296.396 195.099C300.141 195.099 303.193 198.146 303.193 201.891C303.193 205.641 300.141 208.688 296.396 208.688Z" fill="black"/>
<path d="M408.922 276.229C408.922 273.953 407.073 272.104 404.792 272.104C402.51 272.104 400.661 273.953 400.661 276.229C400.661 278.516 402.51 280.365 404.792 280.365C407.073 280.365 408.922 278.516 408.922 276.229Z" fill="#A07EFF"/>
<path d="M404.792 272.703C402.849 272.703 401.266 274.286 401.266 276.229C401.266 278.177 402.849 279.76 404.792 279.76C406.734 279.76 408.318 278.177 408.318 276.229C408.318 274.286 406.734 272.703 404.792 272.703ZM404.792 280.969C402.182 280.969 400.057 278.844 400.057 276.229C400.057 273.625 402.182 271.505 404.792 271.505C407.401 271.505 409.521 273.625 409.521 276.229C409.521 278.844 407.401 280.969 404.792 280.969Z" fill="black"/>
<path d="M424.208 225.969C424.208 222.839 421.672 220.292 418.531 220.292C415.396 220.292 412.854 222.839 412.854 225.969C412.854 229.109 415.396 231.646 418.531 231.646C421.672 231.646 424.208 229.109 424.208 225.969Z" fill="#A07EFF"/>
<path d="M418.531 220.896C415.729 220.896 413.458 223.172 413.458 225.969C413.458 228.776 415.729 231.052 418.531 231.052C421.328 231.052 423.615 228.776 423.615 225.969C423.615 223.172 421.328 220.896 418.531 220.896ZM418.531 232.25C415.068 232.25 412.25 229.432 412.25 225.969C412.25 222.505 415.068 219.693 418.531 219.693C421.995 219.693 424.807 222.505 424.807 225.969C424.807 229.432 421.995 232.25 418.531 232.25Z" fill="black"/>
<path d="M336.292 276.229C336.292 274.807 335.135 273.651 333.708 273.651C332.286 273.651 331.125 274.807 331.125 276.229C331.125 277.661 332.286 278.813 333.708 278.813C335.135 278.813 336.292 277.661 336.292 276.229Z" fill="white"/>
<path d="M333.708 274.255C332.62 274.255 331.729 275.141 331.729 276.229C331.729 277.328 332.62 278.219 333.708 278.219C334.802 278.219 335.693 277.328 335.693 276.229C335.693 275.141 334.802 274.255 333.708 274.255ZM333.708 279.417C331.953 279.417 330.531 277.99 330.531 276.229C330.531 274.479 331.953 273.057 333.708 273.057C335.464 273.057 336.891 274.479 336.891 276.229C336.891 277.99 335.464 279.417 333.708 279.417Z" fill="black"/>
<path d="M317.844 266.786C317.844 264.5 315.995 262.656 313.714 262.656C311.432 262.656 309.589 264.5 309.589 266.786C309.589 269.068 311.432 270.917 313.714 270.917C315.995 270.917 317.844 269.068 317.844 266.786Z" fill="#A07EFF"/>
<path d="M313.714 263.26C311.771 263.26 310.188 264.844 310.188 266.786C310.188 268.729 311.771 270.313 313.714 270.313C315.661 270.313 317.245 268.729 317.245 266.786C317.245 264.844 315.661 263.26 313.714 263.26ZM313.714 271.516C311.109 271.516 308.984 269.396 308.984 266.786C308.984 264.177 311.109 262.052 313.714 262.052C316.323 262.052 318.448 264.177 318.448 266.786C318.448 269.396 316.323 271.516 313.714 271.516Z" fill="black"/>
<path d="M291.234 254.333C291.234 251.479 288.917 249.167 286.068 249.167C283.214 249.167 280.906 251.479 280.906 254.333C280.906 257.182 283.214 259.495 286.068 259.495C288.917 259.495 291.234 257.182 291.234 254.333Z" fill="white"/>
<path d="M286.068 249.771C283.557 249.771 281.505 251.818 281.505 254.333C281.505 256.844 283.557 258.891 286.068 258.891C288.583 258.891 290.63 256.844 290.63 254.333C290.63 251.818 288.583 249.771 286.068 249.771ZM286.068 260.094C282.891 260.094 280.307 257.51 280.307 254.333C280.307 251.151 282.891 248.568 286.068 248.568C289.245 248.568 291.828 251.151 291.828 254.333C291.828 257.51 289.245 260.094 286.068 260.094Z" fill="black"/>
<path d="M301.75 225.969C301.75 224.26 300.365 222.875 298.656 222.875C296.943 222.875 295.557 224.26 295.557 225.969C295.557 227.682 296.943 229.068 298.656 229.068C300.365 229.068 301.75 227.682 301.75 225.969Z" fill="#A07EFF"/>
<path d="M298.656 223.474C297.281 223.474 296.161 224.594 296.161 225.969C296.161 227.349 297.281 228.469 298.656 228.469C300.036 228.469 301.151 227.349 301.151 225.969C301.151 224.594 300.036 223.474 298.656 223.474ZM298.656 229.672C296.62 229.672 294.958 228.01 294.958 225.969C294.958 223.932 296.62 222.271 298.656 222.271C300.693 222.271 302.354 223.932 302.354 225.969C302.354 228.01 300.693 229.672 298.656 229.672Z" fill="black"/>
<path d="M360.724 296.583C360.724 293.167 357.948 290.391 354.526 290.391C351.109 290.391 348.333 293.167 348.333 296.583C348.333 300.005 351.109 302.781 354.526 302.781C357.948 302.781 360.724 300.005 360.724 296.583Z" fill="#A07EFF"/>
<path d="M354.526 290.99C351.443 290.99 348.938 293.5 348.938 296.583C348.938 299.672 351.443 302.182 354.526 302.182C357.615 302.182 360.125 299.672 360.125 296.583C360.125 293.5 357.615 290.99 354.526 290.99ZM354.526 303.38C350.781 303.38 347.734 300.333 347.734 296.583C347.734 292.839 350.781 289.792 354.526 289.792C358.276 289.792 361.328 292.839 361.328 296.583C361.328 300.333 358.276 303.38 354.526 303.38Z" fill="black"/>
<path d="M408.844 247.401C408.844 245.974 407.693 244.823 406.266 244.823C404.844 244.823 403.682 245.974 403.682 247.401C403.682 248.828 404.844 249.984 406.266 249.984C407.693 249.984 408.844 248.828 408.844 247.401Z" fill="white"/>
<path d="M406.266 245.422C405.172 245.422 404.286 246.313 404.286 247.401C404.286 248.495 405.172 249.38 406.266 249.38C407.359 249.38 408.245 248.495 408.245 247.401C408.245 246.313 407.359 245.422 406.266 245.422ZM406.266 250.589C404.51 250.589 403.083 249.156 403.083 247.401C403.083 245.646 404.51 244.219 406.266 244.219C408.016 244.219 409.448 245.646 409.448 247.401C409.448 249.156 408.016 250.589 406.266 250.589Z" fill="black"/>
<path d="M322.833 219.38C325.328 221.323 327.49 223.01 327.151 224.714C327.016 225.422 326.708 225.88 326.438 226.286C326.047 226.885 325.729 227.359 326.057 228.406C326.469 229.766 327.667 230.708 328.938 231.708C330.276 232.76 331.661 233.849 332.068 235.484C332.521 237.297 332.234 239.542 331.943 241.911C331.422 246.016 330.896 250.255 334.078 252.802C335.479 253.922 336.417 254.365 336.859 254.115C337.443 253.776 337.208 252.135 336.995 250.682C336.818 249.464 336.651 248.307 336.854 247.599C337.38 245.719 340.182 242.938 342.656 240.484C344.167 238.979 345.604 237.563 346.37 236.5C348.651 233.365 349.432 231.729 349.182 230.651C348.958 229.703 347.911 229.156 346.323 228.328C345.443 227.87 344.443 227.349 343.333 226.625C341.823 225.651 340.953 224.135 340.109 222.667C338.964 220.656 337.87 218.755 335.26 218.276C334.641 218.161 333.865 218.276 333.115 218.385C332.078 218.526 331.005 218.682 330.302 218.24C328.87 217.344 328.896 216.083 328.927 214.969C328.948 214.135 328.964 213.417 328.401 212.943C327.625 212.302 326.911 212.411 326.224 212.505C325.49 212.615 324.729 212.724 324.021 211.87C323.656 211.427 323.536 210.943 323.656 210.422C323.927 209.245 325.432 208.188 326.63 207.651C329.276 206.563 329.651 205.839 330.12 204.922C330.547 204.083 331.031 203.141 333.193 201.724C338.438 198.276 341.714 198.214 343.88 198.161C345.094 198.141 345.974 198.12 346.667 197.51C346.995 197.219 347.161 196.885 347.182 196.516C347.229 195.385 345.859 193.932 344.411 192.391C342.958 190.849 341.464 189.25 340.911 187.594C329.536 191.646 320.469 200.609 316.297 211.927C317.104 214.901 320.146 217.276 322.833 219.38Z" fill="#A07EFF"/>
<path d="M354.698 188.24C355.229 189.583 355.776 190.969 357.396 191.453C360.021 192.234 365.354 189.63 366.521 187.047C362.729 185.875 358.698 185.245 354.526 185.245C353.849 185.245 353.172 185.26 352.5 185.297C353.724 185.833 354.224 187.047 354.698 188.24Z" fill="#A07EFF"/>
<path d="M374.469 198.568C374.391 199.031 374.156 199.646 373.885 200.359C373.349 201.786 372.677 203.563 373.167 204.536C373.333 204.865 373.615 205.078 374.036 205.198C374.917 205.448 375.755 204.776 376.724 203.99C377.792 203.125 378.995 202.146 380.505 202.37C381.604 202.536 382.5 203.422 383.542 204.448C383.995 204.901 384.474 205.37 385.016 205.833C386.396 207.016 389.151 207.943 390.797 207.474C386.854 199.786 380.552 193.51 372.844 189.609C372.823 190.417 373.151 191.432 373.536 192.609C374.141 194.438 374.828 196.51 374.469 198.568Z" fill="#A07EFF"/>
<path d="M392.109 210.266C391.583 211.24 389.802 214.281 387.88 214.516C386.313 214.703 384.943 213.76 383.49 212.76C382.339 211.974 381.151 211.156 379.708 210.74C376.583 209.839 373.162 210.609 370.552 212.797C367.995 214.938 366.662 218.042 366.979 221.094C367.583 226.818 370.76 227.318 374.12 227.849C376.214 228.182 378.375 228.526 379.932 230.177C383.901 234.38 379.964 239.37 376.802 243.38C374.938 245.75 373.172 247.984 373.38 249.578C373.453 250.104 373.729 250.542 374.234 250.917C375.208 251.641 376.854 251.786 379.005 251.349C383.688 250.385 389.141 247.099 390.537 244.974C393.547 239.297 395.26 232.833 395.26 225.969C395.26 220.406 394.135 215.104 392.109 210.266Z" fill="#A07EFF"/>
<path d="M358.427 192.339C357.979 192.339 357.557 192.286 357.177 192.172C355.214 191.583 354.568 189.948 353.995 188.516C353.38 186.953 352.938 185.995 351.557 185.786C351.234 185.74 351.005 185.432 351.057 185.109C351.104 184.781 351.396 184.552 351.734 184.604C353.87 184.917 354.526 186.594 355.115 188.068C355.651 189.427 356.115 190.599 357.521 191.021C359.979 191.755 365.24 189.151 366.177 186.729C366.297 186.422 366.641 186.266 366.958 186.385C367.26 186.505 367.417 186.854 367.297 187.167C366.292 189.755 361.604 192.339 358.427 192.339Z" fill="black"/>
<path d="M389.802 208.365C387.979 208.365 385.787 207.484 384.526 206.401C383.969 205.922 383.474 205.432 383.01 204.979C382.031 204.01 381.25 203.24 380.391 203.109C379.208 202.932 378.188 203.766 377.193 204.568C376.162 205.411 375.089 206.276 373.828 205.922C373.208 205.745 372.76 205.391 372.495 204.875C371.859 203.609 372.563 201.74 373.188 200.094C373.432 199.448 373.667 198.833 373.734 198.443C374.057 196.568 373.406 194.589 372.823 192.849C372.37 191.469 371.979 190.271 372.094 189.271C372.13 188.943 372.443 188.708 372.766 188.745C373.089 188.781 373.328 189.078 373.292 189.411C373.203 190.146 373.573 191.276 373.969 192.469C374.589 194.344 375.292 196.474 374.917 198.641C374.828 199.151 374.589 199.786 374.313 200.516C373.828 201.792 373.172 203.542 373.573 204.333C373.641 204.469 373.771 204.656 374.162 204.771C374.818 204.958 375.568 204.344 376.438 203.635C377.573 202.714 378.87 201.667 380.568 201.922C381.813 202.109 382.76 203.042 383.854 204.125C384.297 204.557 384.771 205.026 385.307 205.49C386.776 206.74 389.51 207.49 390.828 207.005C391.141 206.885 391.484 207.047 391.599 207.359C391.719 207.667 391.557 208.01 391.245 208.13C390.818 208.292 390.323 208.365 389.802 208.365Z" fill="black"/>
<path d="M376.787 252.349C375.531 252.349 374.531 252.068 373.787 251.521C373.12 251.021 372.734 250.406 372.641 249.672C372.385 247.771 374.156 245.521 376.214 242.911C379.349 238.932 382.912 234.422 379.391 230.693C378 229.224 376.057 228.917 374 228.594C370.672 228.068 366.901 227.469 366.234 221.172C365.891 217.87 367.318 214.526 370.068 212.224C372.87 209.875 376.552 209.052 379.922 210.021C381.474 210.469 382.771 211.359 383.912 212.146C385.302 213.104 386.49 213.917 387.787 213.766C389.313 213.583 391.052 210.724 391.594 209.641C391.734 209.344 392.099 209.219 392.396 209.365C392.693 209.516 392.813 209.875 392.667 210.177C392.438 210.635 390.37 214.661 387.932 214.964C386.198 215.177 384.755 214.182 383.229 213.135C382.109 212.365 380.953 211.573 379.583 211.177C376.604 210.312 373.339 211.057 370.839 213.146C368.401 215.187 367.125 218.146 367.427 221.047C368 226.427 370.865 226.88 374.188 227.406C376.354 227.745 378.594 228.099 380.26 229.865C384.495 234.349 380.427 239.51 377.156 243.661C375.349 245.953 373.646 248.115 373.828 249.516C373.88 249.922 374.099 250.25 374.505 250.552C375.37 251.193 376.891 251.318 378.917 250.901C383.516 249.958 389.083 246.594 390.245 244.604C390.417 244.318 390.781 244.219 391.068 244.38C391.359 244.552 391.453 244.917 391.287 245.203C389.823 247.719 383.813 251.125 379.156 252.078C378.287 252.255 377.5 252.349 376.787 252.349Z" fill="black"/>
<path d="M336.578 254.932C335.865 254.932 334.927 254.438 333.609 253.385C330.099 250.578 330.682 245.922 331.193 241.818C331.484 239.516 331.76 237.344 331.344 235.661C331 234.276 329.771 233.313 328.474 232.292C327.167 231.266 325.818 230.208 325.339 228.625C324.911 227.24 325.391 226.51 325.813 225.875C326.068 225.49 326.307 225.13 326.417 224.568C326.667 223.318 324.578 221.688 322.37 219.969C319.573 217.786 316.401 215.313 315.552 212.063C315.469 211.745 315.661 211.411 315.984 211.333C316.297 211.25 316.635 211.438 316.714 211.766C317.458 214.615 320.458 216.953 323.109 219.021C325.724 221.063 327.99 222.828 327.599 224.802C327.438 225.594 327.094 226.115 326.818 226.536C326.432 227.115 326.229 227.427 326.49 228.276C326.859 229.495 328.005 230.396 329.219 231.349C330.615 232.448 332.063 233.583 332.51 235.375C332.979 237.276 332.693 239.552 332.391 241.969C331.885 245.948 331.375 250.063 334.359 252.448C336.167 253.891 336.63 253.729 336.635 253.719C336.943 253.495 336.677 251.635 336.547 250.745C336.365 249.479 336.193 248.276 336.417 247.479C336.979 245.484 339.698 242.781 342.333 240.167C343.839 238.677 345.255 237.271 346.01 236.229C348.135 233.297 348.953 231.661 348.74 230.755C348.568 230.005 347.594 229.5 346.12 228.729C345.224 228.266 344.219 227.74 343.089 227.01C341.484 225.969 340.589 224.406 339.719 222.896C338.573 220.896 337.583 219.167 335.177 218.724C334.63 218.625 333.891 218.729 333.177 218.828C332.063 218.984 330.911 219.151 330.068 218.625C328.411 217.594 328.448 216.068 328.474 214.958C328.49 214.13 328.484 213.609 328.109 213.292C327.484 212.776 326.958 212.854 326.292 212.953C325.51 213.068 324.542 213.208 323.672 212.156C323.219 211.609 323.063 210.974 323.214 210.323C323.526 208.979 325.089 207.844 326.443 207.24C328.953 206.208 329.271 205.583 329.714 204.719C330.146 203.875 330.682 202.828 332.948 201.339C338.297 197.828 341.651 197.755 343.87 197.714C345.141 197.688 345.828 197.651 346.365 197.172C346.672 196.891 346.724 196.651 346.724 196.495C346.771 195.552 345.401 194.104 344.083 192.703C342.62 191.146 340.958 189.38 340.417 187.557C340.323 187.245 340.505 186.906 340.818 186.818C341.141 186.719 341.474 186.901 341.568 187.219C342.026 188.766 343.583 190.417 344.958 191.88C346.583 193.604 347.99 195.099 347.927 196.547C347.901 197.125 347.646 197.635 347.161 198.068C346.271 198.859 345.219 198.885 343.896 198.917C341.813 198.958 338.672 199.026 333.604 202.344C331.604 203.661 331.172 204.51 330.786 205.26C330.266 206.276 329.818 207.151 326.922 208.344C325.609 208.932 324.552 209.865 324.38 210.594C324.318 210.88 324.385 211.13 324.599 211.391C325.021 211.901 325.37 211.875 326.115 211.766C326.844 211.656 327.844 211.516 328.88 212.37C329.719 213.068 329.698 214.089 329.677 214.99C329.651 216.031 329.63 216.932 330.703 217.599C331.177 217.896 332.109 217.766 333.01 217.641C333.818 217.526 334.651 217.406 335.396 217.547C338.349 218.089 339.578 220.224 340.76 222.297C341.594 223.745 342.385 225.12 343.74 226C344.823 226.698 345.807 227.214 346.672 227.661C348.375 228.552 349.609 229.198 349.911 230.479C350.224 231.818 349.427 233.568 346.979 236.938C346.172 238.052 344.719 239.495 343.182 241.021C340.776 243.406 338.047 246.109 337.573 247.802C337.417 248.359 337.589 249.536 337.74 250.573C338.016 252.505 338.26 254.177 337.229 254.76C337.036 254.875 336.818 254.932 336.578 254.932Z" fill="black"/>
<path d="M354.526 185.693C332.318 185.693 314.25 203.766 314.25 225.969C314.25 248.182 332.318 266.255 354.526 266.255C376.74 266.255 394.807 248.182 394.807 225.969C394.807 203.766 376.74 185.693 354.526 185.693ZM354.526 267.453C331.656 267.453 313.052 248.844 313.052 225.969C313.052 203.099 331.656 184.49 354.526 184.49C377.401 184.49 396.01 203.099 396.01 225.969C396.01 248.844 377.401 267.453 354.526 267.453Z" fill="black"/>
<path d="M91.5261 94.5208V82.8177C91.5261 74.3125 98.448 67.3906 106.953 67.3906C115.458 67.3906 122.375 74.3125 122.375 82.8177V94.5208H91.5261ZM141.63 94.5208H135.188V82.8177C135.188 67.2448 122.521 54.5781 106.953 54.5781C91.3802 54.5781 78.7084 67.2448 78.7084 82.8177V94.5208H72.2657C64.7344 94.5208 58.6302 100.62 58.6302 108.151V158.385C58.6302 165.911 64.7344 172.016 72.2657 172.016H141.63C149.167 172.016 155.271 165.911 155.271 158.385V108.151C155.271 100.62 149.167 94.5208 141.63 94.5208Z" fill="#713FFD"/>
<path d="M207.651 338.161C232 318.958 237.484 291.302 257.005 268.375C277.583 244.203 316.198 254.083 302.234 304.214C293.813 334.443 312.589 357.823 322.063 382.13C333.412 411.24 321.932 439.276 299.813 449.219C287.927 454.563 271.875 460.745 236.74 460.745C190.854 460.745 161.958 446.526 154.078 428.917C137.26 391.313 181.833 358.51 207.651 338.161Z" fill="#713FFD"/>
<path d="M204.359 334.073C229.109 314.875 234.682 287.214 254.521 264.286C275.432 240.115 314.667 250 300.474 300.13C291.922 330.359 311.005 353.74 320.625 378.042C332.162 407.151 320.5 435.193 298.021 445.135C285.943 450.479 269.63 456.661 233.922 456.661C187.297 456.661 157.927 442.443 149.927 424.833C132.828 387.229 178.125 354.422 204.359 334.073Z" fill="#A07EFF" fill-opacity="0.25"/>
<path d="M256.141 367.333C254.547 367.333 252.76 367.036 250.969 366.276C253.917 363.438 255.849 359.766 256.724 356.12C257.182 356.458 257.609 356.646 258.042 356.646C258.51 356.646 258.979 356.417 259.484 355.906C266.344 348.938 255.047 324.964 264.766 291.594C267.203 283.214 269.672 273.063 269.245 263.536C276.245 274.078 273.245 291.922 270.469 304.432C262.943 338.359 278.266 354.786 261.068 366.141C260.063 366.802 258.276 367.333 256.141 367.333Z" fill="#713FFD"/>
<path d="M92.5781 444.49C93.2865 450.073 95.7136 452.568 95.7448 457.453C95.7604 460.078 94.4375 463.901 89.6927 463.422C81.6406 462.615 65.3021 460.974 53.9115 459.823C47.5469 459.188 46.8594 454.667 50.8646 451.984C56.25 448.37 67.375 447.802 79.3906 441.25C82.1406 439.75 84.625 438.792 87.3594 439.063C89.5781 439.286 92.0677 440.516 92.5781 444.49Z" fill="black"/>
<path d="M73.2031 448.193C73.1094 448.682 72.6406 449 72.1563 448.906C71.6667 448.818 71.349 448.349 71.4375 447.859C71.5313 447.37 72 447.052 72.4896 447.146C72.9792 447.24 73.2969 447.708 73.2031 448.193Z" fill="#B3B3B3"/>
<path d="M69.5833 449.224C69.4896 449.714 69.0208 450.031 68.5365 449.943C68.0469 449.844 67.724 449.375 67.8177 448.891C67.9063 448.406 68.3802 448.078 68.8646 448.177C69.3542 448.266 69.6719 448.734 69.5833 449.224Z" fill="#B3B3B3"/>
<path d="M65.9584 450.25C65.8646 450.74 65.3958 451.062 64.9063 450.969C64.4271 450.88 64.1042 450.411 64.1927 449.922C64.2865 449.432 64.7552 449.115 65.2448 449.203C65.7292 449.297 66.0521 449.766 65.9584 450.25Z" fill="#B3B3B3"/>
<path d="M95.6875 456.552C95.0208 458.578 93.3958 460.406 90.026 460.068C81.974 459.26 65.6354 457.62 54.2448 456.474C51.3958 456.188 49.6927 455.115 49.0312 453.786C47.375 456.339 48.8333 459.313 53.9115 459.823C65.3021 460.974 81.6406 462.615 89.6927 463.422C94.4375 463.901 95.7604 460.078 95.7448 457.453C95.7448 457.135 95.7031 456.849 95.6875 456.552Z" fill="#3C3C3C"/>
<path d="M158.359 460.828C160.318 466.115 163.245 467.99 164.375 472.745C164.979 475.302 164.547 479.323 159.818 479.922C151.792 480.953 135.505 483.031 124.146 484.49C117.807 485.302 116.115 481.057 119.411 477.536C123.844 472.802 134.562 469.74 144.786 460.651C147.13 458.573 149.333 457.068 152.057 456.719C154.266 456.438 156.969 457.073 158.359 460.828Z" fill="black"/>
<path d="M140.328 468.807C140.344 469.307 139.958 469.719 139.464 469.74C138.969 469.766 138.552 469.375 138.526 468.88C138.505 468.385 138.896 467.964 139.385 467.948C139.885 467.927 140.302 468.313 140.328 468.807Z" fill="#B3B3B3"/>
<path d="M137.026 470.63C137.042 471.125 136.662 471.542 136.162 471.563C135.672 471.583 135.25 471.193 135.229 470.703C135.214 470.203 135.594 469.786 136.094 469.771C136.583 469.75 137.005 470.13 137.026 470.63Z" fill="#B3B3B3"/>
<path d="M133.729 472.448C133.75 472.943 133.365 473.359 132.87 473.38C132.37 473.401 131.953 473.016 131.937 472.521C131.917 472.026 132.297 471.604 132.797 471.589C133.286 471.568 133.708 471.953 133.729 472.448Z" fill="#B3B3B3"/>
<path d="M164.109 471.885C163.917 474.005 162.745 476.156 159.385 476.583C151.365 477.609 135.073 479.693 123.724 481.151C120.875 481.51 118.974 480.854 118.036 479.703C116.995 482.563 119.089 485.135 124.146 484.49C135.505 483.031 151.792 480.953 159.818 479.922C164.547 479.323 164.979 475.302 164.375 472.745C164.297 472.438 164.198 472.167 164.109 471.885Z" fill="#3C3C3C"/>
<path d="M210.349 334.078C193.641 333.01 125.776 341.156 109.911 368.938L109.953 368.927C96.3385 392.214 84.3489 425.552 79.7135 439.161C78.5312 442.635 80.177 446.432 83.5208 447.948C86.4948 449.292 90 448.438 92.0312 445.88C100.5 435.193 122.047 406.844 130.776 384.646C131.354 383.188 132.75 382.224 134.318 382.198C144.536 382.01 181.911 381.125 200.385 377.938C248.073 369.714 241.323 336.057 210.349 334.078Z" fill="#FFD8A1"/>
<path d="M235.807 352.255C235.542 347.401 232.964 342.823 228.536 339.37C223.906 335.75 217.63 333.589 210.411 333.125C202.151 332.604 180.927 334.313 159.578 339.771C141.365 344.427 117.812 353.177 109.089 368.469L108 370.37L108.026 370.365C96.0885 391.396 85.5312 419.896 80.2083 434.839C79.0364 438.13 95.5052 443.198 97.1927 440.792C100.615 435.927 105.307 430.005 109.906 423.323C119.328 409.651 125.229 399.375 129.703 389.677C131.604 385.563 134.453 383.349 140.469 383.031C153.901 382.323 183.792 381.766 200.547 378.875C212.224 376.865 221.641 373.109 227.786 368.016C233.26 363.479 236.104 357.88 235.807 352.255Z" fill="black"/>
<path d="M229.453 331.729C210.323 331.531 125.573 346.089 128.755 384.615C130.958 411.312 140.172 445.219 144.234 459.203C145.141 462.333 148.01 464.49 151.276 464.49H152.474C155.687 463.88 158.068 461.167 158.26 457.911C159.036 444.568 160.37 410.125 155.156 386.927C154.807 385.375 155.911 383.88 157.495 383.76C168.182 382.979 203.88 380.161 221.854 376.062C269.036 365.297 260.484 332.047 229.453 331.729Z" fill="#FFD8A1"/>
<path d="M142.536 456.698C136.672 440.661 129.875 409.708 127.807 384.693C127.167 376.943 129.943 369.651 136.047 363.016C147.594 350.479 168.833 342.62 184.625 338.234C202.26 333.339 220.328 330.776 229.068 330.776C229.198 330.776 229.333 330.776 229.464 330.776C236.698 330.854 253.833 332.359 257 348.833C258.063 354.359 255.885 361.74 250.667 366.563C244.802 371.979 234.833 374.797 222.063 376.99C206.688 379.63 179.115 382.677 164.536 385.25C159.151 386.198 156.62 389.047 157.568 395.698C160.458 415.927 161.146 439 159.453 453.036C159.151 455.547 143.484 459.292 142.536 456.698Z" fill="#141414"/>
<path d="M226.823 450.151C215.859 450.151 202.339 448.323 185.755 444.12C173.995 441.141 165.755 436.182 160.323 430.125C160.104 419.141 159.182 406.974 157.568 395.698C156.62 389.047 159.151 386.198 164.536 385.25C179.115 382.677 206.688 379.63 222.063 376.99C234.781 374.807 244.724 372.005 250.594 366.63C258.198 371.26 263.849 378.276 266.344 386.521C273.635 410.651 277.786 450.156 226.823 450.151Z" fill="#A07EFF"/>
<path d="M160.323 430.125C150.208 418.865 149.776 403.807 154.365 390.609C159.745 375.125 177.911 356.786 209.151 356.786C212.349 356.786 215.677 356.979 219.146 357.385C229.672 358.62 236.411 360.74 242.979 363.036C245.682 363.979 248.234 365.193 250.594 366.63C244.724 372.005 234.781 374.807 222.062 376.99C206.687 379.63 179.115 382.677 164.536 385.25C159.151 386.198 156.62 389.047 157.568 395.698C159.182 406.974 160.104 419.141 160.323 430.125Z" fill="#111111"/>
<path d="M264.438 363.469C256.333 370.87 249.505 363.849 231.146 361.344C181.052 354.526 157.563 378.083 151.589 395.5C144.495 416.198 149.328 441.391 183.167 450.089C311.49 483.083 264.438 363.469 264.438 363.469Z" fill="#713FFD"/>
<path d="M198.016 354.448L154.901 367.714C154.563 367.818 154.182 367.734 153.917 367.495L134.495 350.193C134.24 349.969 134.13 349.661 134.151 349.37C134.167 348.958 134.219 347.964 134.219 347.964L177.396 335.479C178.104 335.266 178.875 335.432 179.432 335.927L198.813 351.854L198.745 353.417C198.76 353.859 198.5 354.302 198.016 354.448Z" fill="#B3B3B3"/>
<path d="M198.089 352.797L154.974 366.063C154.63 366.167 154.255 366.083 153.99 365.844L134.562 348.667C133.958 348.135 134.172 347.146 134.943 346.906L177.469 333.828C178.177 333.615 178.948 333.781 179.505 334.271L198.469 351.036C199.073 351.573 198.859 352.563 198.089 352.797Z" fill="#E6E6E6"/>
<path d="M168.604 341.453C170.667 340.833 176.099 339.146 178.057 338.604C178.49 338.484 178.948 338.589 179.286 338.885C181.208 340.589 188 346.589 190.099 348.448C190.37 348.688 190.271 349.135 189.922 349.245L180.5 352.078C180.057 352.208 179.578 352.104 179.24 351.802L168.432 342.25C168.161 342.005 168.255 341.563 168.604 341.453Z" fill="#CCCCCC"/>
<path d="M159.995 360.755C160.318 360.661 161.161 360.396 161.464 360.312L161.656 360.354C161.958 360.625 163.016 361.557 163.339 361.844L163.313 361.969L161.849 362.406L161.651 362.365L159.974 360.875L159.995 360.755Z" fill="#CCCCCC"/>
<path d="M156.724 357.776C157.042 357.677 157.891 357.417 158.198 357.333L158.391 357.375C158.682 357.641 159.74 358.573 160.073 358.865L160.042 358.984L158.573 359.427L158.38 359.385L156.698 357.901L156.724 357.776Z" fill="#CCCCCC"/>
<path d="M153.458 354.797C153.776 354.698 154.62 354.438 154.927 354.349L155.115 354.396C155.411 354.661 156.469 355.594 156.802 355.88L156.771 356.005L155.302 356.448L155.104 356.401L153.427 354.917L153.458 354.797Z" fill="#CCCCCC"/>
<path d="M150.182 351.818C150.505 351.719 151.354 351.458 151.656 351.37L151.844 351.417C152.146 351.682 153.203 352.615 153.526 352.901L153.5 353.026L152.036 353.469L151.839 353.422L150.156 351.943L150.182 351.818Z" fill="#CCCCCC"/>
<path d="M146.911 348.833C147.234 348.734 148.078 348.479 148.385 348.391L148.578 348.432C148.875 348.703 149.932 349.635 150.255 349.922L150.234 350.047L148.766 350.484L148.568 350.443L146.891 348.958L146.911 348.833Z" fill="#CCCCCC"/>
<path d="M143.609 345.854C143.932 345.755 144.776 345.495 145.078 345.411L145.271 345.453C145.568 345.719 146.625 346.651 146.953 346.943L146.927 347.068L145.458 347.505L145.26 347.464L143.583 345.974L143.609 345.854Z" fill="#CCCCCC"/>
<path d="M163.62 359.646C163.948 359.552 164.787 359.286 165.094 359.203L165.286 359.245C165.589 359.51 166.641 360.448 166.969 360.734L166.943 360.859L165.474 361.297L165.276 361.255L163.599 359.766L163.62 359.646Z" fill="#CCCCCC"/>
<path d="M160.354 356.667C160.677 356.573 161.521 356.307 161.823 356.224L162.016 356.266C162.318 356.531 163.37 357.464 163.698 357.75L163.672 357.875L162.203 358.318L162.01 358.276L160.328 356.792L160.354 356.667Z" fill="#CCCCCC"/>
<path d="M157.083 353.682C157.401 353.589 158.25 353.328 158.557 353.24L158.745 353.286C159.042 353.552 160.099 354.484 160.427 354.771L160.396 354.896L158.932 355.339L158.74 355.292L157.057 353.813L157.083 353.682Z" fill="#CCCCCC"/>
<path d="M153.818 350.708C154.135 350.609 154.979 350.349 155.281 350.26L155.474 350.302C155.771 350.573 156.828 351.505 157.161 351.792L157.13 351.917L155.661 352.354L155.464 352.313L153.786 350.828L153.818 350.708Z" fill="#CCCCCC"/>
<path d="M150.542 347.719C150.865 347.625 151.708 347.365 152.01 347.281L152.203 347.323C152.505 347.594 153.563 348.526 153.885 348.813L153.859 348.938L152.396 349.375L152.198 349.333L150.516 347.849L150.542 347.719Z" fill="#CCCCCC"/>
<path d="M147.24 344.74C147.557 344.646 148.406 344.38 148.714 344.297L148.901 344.344C149.198 344.609 150.255 345.542 150.583 345.833L150.557 345.958L149.089 346.396L148.891 346.354L147.214 344.865L147.24 344.74Z" fill="#CCCCCC"/>
<path d="M167.25 358.531C167.573 358.437 168.422 358.172 168.719 358.094L168.911 358.135C169.214 358.396 170.271 359.333 170.594 359.625L170.568 359.745L169.104 360.188L168.906 360.146L167.224 358.656L167.25 358.531Z" fill="#CCCCCC"/>
<path d="M163.979 355.557C164.307 355.458 165.146 355.198 165.453 355.109L165.646 355.156C165.943 355.417 167 356.349 167.323 356.641L167.302 356.766L165.833 357.208L165.635 357.161L163.958 355.677L163.979 355.557Z" fill="#CCCCCC"/>
<path d="M160.714 352.573C161.031 352.474 161.875 352.214 162.182 352.13L162.375 352.177C162.672 352.438 163.729 353.375 164.057 353.661L164.026 353.786L162.557 354.229L162.37 354.182L160.682 352.698L160.714 352.573Z" fill="#CCCCCC"/>
<path d="M157.443 349.599C157.76 349.495 158.609 349.24 158.911 349.151L159.104 349.193C159.401 349.458 160.458 350.396 160.786 350.682L160.755 350.807L159.292 351.245L159.094 351.203L157.417 349.714L157.443 349.599Z" fill="#CCCCCC"/>
<path d="M154.167 346.615C154.49 346.516 155.339 346.255 155.641 346.172L155.833 346.214C156.13 346.479 157.188 347.411 157.516 347.703L157.49 347.828L156.021 348.266L155.823 348.224L154.146 346.734L154.167 346.615Z" fill="#CCCCCC"/>
<path d="M150.87 343.63C151.187 343.536 152.031 343.271 152.339 343.188L152.526 343.234C152.828 343.5 153.88 344.432 154.214 344.719L154.182 344.849L152.719 345.286L152.526 345.245L150.839 343.755L150.87 343.63Z" fill="#CCCCCC"/>
<path d="M170.813 357.38C171.125 357.281 171.974 357.021 172.281 356.938L172.469 356.984C172.766 357.245 173.823 358.177 174.156 358.469L174.125 358.589L172.656 359.036L172.464 358.99L170.781 357.505L170.813 357.38Z" fill="#CCCCCC"/>
<path d="M167.542 354.401C167.859 354.302 168.703 354.042 169.005 353.953L169.198 354C169.5 354.266 170.552 355.198 170.885 355.49L170.854 355.615L169.385 356.052L169.187 356.01L167.51 354.526L167.542 354.401Z" fill="#CCCCCC"/>
<path d="M164.266 351.417C164.589 351.323 165.432 351.063 165.74 350.979L165.927 351.021C166.229 351.286 167.286 352.219 167.609 352.51L167.583 352.635L166.12 353.073L165.922 353.031L164.24 351.542L164.266 351.417Z" fill="#CCCCCC"/>
<path d="M161 348.438C161.323 348.344 162.162 348.078 162.469 348L162.661 348.042C162.958 348.307 164.016 349.24 164.339 349.531L164.313 349.656L162.849 350.094L162.651 350.052L160.974 348.563L161 348.438Z" fill="#CCCCCC"/>
<path d="M157.729 345.458C158.047 345.365 158.896 345.099 159.198 345.016L159.385 345.063C159.687 345.323 160.745 346.255 161.073 346.547L161.042 346.672L159.578 347.115L159.385 347.073L157.698 345.583L157.729 345.458Z" fill="#CCCCCC"/>
<path d="M154.422 342.479C154.745 342.385 155.589 342.12 155.896 342.031L156.089 342.083C156.385 342.344 157.443 343.276 157.766 343.568L157.74 343.688L156.276 344.135L156.078 344.089L154.401 342.604L154.422 342.479Z" fill="#CCCCCC"/>
<path d="M135.547 321.729L154.141 365.573C154.208 365.729 154.016 365.865 153.885 365.755L134.464 348.578C134.052 348.214 133.724 347.76 133.51 347.25L115.927 305.625C115.719 305.12 116.333 304.672 116.745 305.031L134.646 320.49C135.042 320.828 135.344 321.25 135.547 321.729Z" fill="#F2F2F2"/>
<path d="M135.927 335.521C136.917 337.964 137.177 340.161 136.51 340.427C135.844 340.698 134.51 338.932 133.521 336.49C132.531 334.047 132.276 331.849 132.937 331.583C133.604 331.313 134.943 333.073 135.927 335.521Z" fill="white"/>
<path d="M181.089 277.615C176.974 277.615 173.615 277.188 171.521 276.177C160.589 270.917 145.229 230.297 142.891 223.969C141.563 220.151 139.495 217.01 138.906 216.396C135.891 213.281 134.813 210.62 134.365 209.339C133.844 207.865 133.365 206.036 134.995 205.875C135.047 205.875 135.089 205.87 135.13 205.87C135.417 205.87 135.672 205.964 135.906 206.125L136.057 206.031C135.943 204.953 136.172 203.969 137.245 203.865C137.292 203.859 137.333 203.854 137.38 203.854C137.802 203.854 138.167 204.063 138.49 204.38L138.651 204.307C138.521 203.182 138.745 202.146 139.849 202.036C139.891 202.031 139.938 202.031 139.979 202.031C140.396 202.031 140.766 202.219 141.089 202.516L141.26 202.401C140.516 200.438 139.359 197.281 138.859 195.849C138.328 194.344 137.74 192.042 139.151 191.922C139.182 191.917 139.208 191.917 139.234 191.917C140.417 191.917 141.224 194.172 141.802 195.495C141.802 195.495 144.609 202.333 145.505 204.625C145.547 204.734 145.609 204.781 145.677 204.781C145.729 204.781 145.781 204.75 145.818 204.719C145.958 204.583 146.042 204.255 146.073 204.099C146.25 203.26 146 201.766 146.078 200.964C146.193 199.88 146.974 197.625 148.141 197.427C148.188 197.417 148.224 197.417 148.255 197.417C148.99 197.417 148.818 198.781 148.802 199.828C148.771 201.354 148.99 203.156 149.302 204.557C149.708 206.359 149.807 209.391 149.307 213.24C149.229 213.839 149.276 215.104 149.328 216.104C149.354 216.464 149.49 217.01 149.74 217.677C148.375 218.323 142.578 221.578 142.578 221.578C142.578 221.578 159.661 268.932 171.521 274.641C173.615 275.651 176.974 276.078 181.089 276.078C188.859 276.078 199.328 274.563 209.063 272.599L209.182 273.005C209.313 273.427 209.604 273.76 209.974 273.953C199.984 276 189.104 277.615 181.089 277.615Z" fill="#6FC6F3"/>
<path d="M240.755 252.333C238.922 246.51 232.844 243.76 226.896 245.13C219.516 246.828 186.167 257.943 179.62 256.807C170.823 255.286 157.88 228.688 150.021 217.568C149.938 217.448 142.578 221.578 142.578 221.578C142.578 221.578 159.661 268.932 171.521 274.641C181.63 279.51 221.203 270.771 232.995 266.328C238.911 264.094 242.656 258.359 240.755 252.333Z" fill="#FFD8A1"/>
<path d="M244.208 252.203C241.677 243.729 232.219 240.089 223.63 242.219C218.625 243.458 207.349 248.365 203.505 250.063C202.76 250.391 202.38 251.229 202.625 252.005L209.182 273.005C209.401 273.703 210.057 274.167 210.776 274.135C214.604 273.99 226.401 273.385 232.313 271.531C241.052 268.781 246.833 260.974 244.208 252.203Z" fill="#F2F2F2"/>
<path d="M230.87 238.224C236.839 234.969 253.563 232.563 263.458 245.708C273.042 258.432 268.865 277.516 264.766 291.594C255.047 324.964 266.344 348.938 259.484 355.906C256.156 359.297 254.177 350.411 243.406 342.906C227.787 332.031 208.474 333.469 201.005 334.396C193.87 335.276 204.089 323.198 208.667 288.776C212.255 261.776 216.75 245.932 230.87 238.224Z" fill="white"/>
<path d="M252.531 237.422C245.339 234.109 244.771 219.12 244.589 206.677L232.042 217.568C232.042 217.568 232.354 227.156 232.302 232.224C232.276 235.083 231.677 237.464 229.755 238.823C226.115 241.401 256.823 239.396 252.531 237.422Z" fill="#FFD8A1"/>
<path d="M228.833 239.448C230.813 240.099 232.917 240.594 235.12 240.891C242.125 241.818 248.708 240.568 253.536 237.833C245.63 234.12 235.328 235.901 231.026 238.089C229.969 238.625 228.833 239.448 228.833 239.448Z" fill="#FFD8A1"/>
<path d="M231.922 184.365C256.969 185.401 246.198 226.938 228.443 228.922C225.74 229.057 222.385 228.719 222.016 223.745C221.708 219.615 220.646 219.604 219.786 219.099C218.885 218.568 215.99 218.568 215.656 217.245C215.146 215.214 217.698 212.281 217.531 210.161C217.292 207.12 214.313 204.516 214.526 199.563C214.875 191.677 221.677 183.938 231.922 184.365Z" fill="#FFD8A1"/>
<path d="M190.51 334.135C193.406 332.573 196.333 330.859 199.177 329.068C198.63 331.104 198.396 332.516 198.646 333.38C196.146 333.557 193.417 333.813 190.51 334.135Z" fill="#6FC6F3"/>
<path d="M184.141 338.37L183.385 337.703C185.693 336.646 188.089 335.443 190.51 334.135C193.417 333.813 196.146 333.557 198.646 333.38C198.849 334.099 199.385 334.438 200.344 334.438C200.391 334.438 200.443 334.438 200.5 334.438C195.349 335.484 189.969 336.755 184.625 338.234C184.464 338.276 184.307 338.328 184.141 338.37Z" fill="black"/>
<path d="M191.818 345.156L184.141 338.37C184.307 338.328 184.464 338.276 184.625 338.234C189.969 336.755 195.349 335.484 200.5 334.438C200.656 334.427 200.823 334.417 201.005 334.396C203.328 334.104 206.807 333.766 210.964 333.766C212.62 333.766 214.38 333.818 216.219 333.948C207.859 337.958 198.51 342.182 191.818 345.156Z" fill="#121313"/>
<path d="M166.453 357.813C166.135 357.813 165.87 357.724 165.714 357.495C165.62 357.365 165.568 357.224 165.547 357.089L165.635 357.161L165.833 357.208L167.302 356.766L167.323 356.641C167.146 356.484 166.745 356.13 166.37 355.802C166.422 355.771 166.474 355.745 166.526 355.719C167.073 355.453 167.568 355.203 168.026 354.979L169.188 356.01L169.385 356.052L170.854 355.615L170.885 355.49C170.63 355.266 169.927 354.641 169.49 354.255C170.464 353.776 171.26 353.375 172.031 352.958C172.646 352.625 172.729 352.479 172.547 352.479C172.427 352.479 172.182 352.547 171.896 352.667C170.745 353.161 169.453 353.693 168.188 354.203C167.927 354.286 167.682 354.354 167.542 354.401L167.526 354.469C166.896 354.719 166.276 354.964 165.688 355.193C165.672 355.177 165.656 355.167 165.646 355.156L165.453 355.109C165.146 355.198 164.307 355.458 163.979 355.557L163.958 355.677L164.104 355.813C163.771 355.932 163.453 356.052 163.167 356.161C162.849 356.281 162.547 356.396 162.26 356.479C162.156 356.391 162.073 356.318 162.016 356.266L161.823 356.224C161.656 356.271 161.323 356.37 161.005 356.464C160.979 356.448 160.953 356.432 160.927 356.406C160.406 355.99 160.313 355.214 161.318 354.688C161.635 354.521 161.984 354.349 162.349 354.172L162.37 354.182L162.557 354.229L164.026 353.786L164.057 353.661C164 353.609 163.917 353.536 163.823 353.458C164.375 353.193 164.938 352.932 165.505 352.661L165.922 353.031L166.12 353.073L167.583 352.635L167.609 352.51C167.484 352.401 167.255 352.193 167 351.969C168.01 351.495 168.984 351.042 169.823 350.63C171.01 350.047 171.193 349.802 170.911 349.802C170.76 349.802 170.474 349.87 170.135 350C169.068 350.401 167.755 350.927 166.427 351.464C166.214 351.276 166.026 351.109 165.927 351.021L165.74 350.979C165.432 351.063 164.589 351.323 164.266 351.417L164.24 351.542L164.87 352.099C164.255 352.349 163.656 352.589 163.094 352.813C162.792 352.542 162.505 352.297 162.375 352.177L162.182 352.13C161.875 352.214 161.031 352.474 160.714 352.573L160.682 352.698L161.51 353.427C161.151 353.563 160.833 353.682 160.563 353.771C160.198 353.896 159.87 353.984 159.589 354.031C159.24 353.724 158.896 353.417 158.745 353.286L158.557 353.24C158.458 353.271 158.313 353.313 158.146 353.359C158.047 352.87 158.458 352.318 159.464 351.786C160.385 351.297 161.677 350.677 163.021 350.042L164.313 349.656L164.339 349.531C164.318 349.505 164.292 349.484 164.26 349.458C166.193 348.557 168.052 347.719 168.932 347.297C169.734 346.911 169.828 346.682 169.536 346.682C169.401 346.682 169.182 346.729 168.917 346.833C167.401 347.406 165.521 348.219 163.708 348.969C163.302 348.609 162.844 348.198 162.661 348.042L162.469 348C162.161 348.078 161.323 348.344 161 348.438L160.974 348.563L162.146 349.599C161.51 349.854 160.901 350.089 160.333 350.286C159.896 349.891 159.313 349.38 159.104 349.193L158.911 349.151C158.687 349.214 158.177 349.37 157.797 349.484C157.875 348.849 158.708 348.464 159.51 348.073C162.266 346.74 165.542 345.302 167.849 344.302C168.391 344.068 169.286 343.677 169.417 343.62C168.734 343.714 167.854 343.807 167.031 343.807C165.849 343.807 164.786 343.615 164.604 342.917C164.286 342.042 165.531 341.74 166.167 341.568C166.953 341.354 169.948 340.719 172.969 340.12C171.245 340.651 169.563 341.167 168.604 341.453C168.255 341.562 168.161 342.005 168.432 342.25L179.052 351.635C177.641 352.63 176.25 353.615 174.854 354.302C171.672 355.87 170.823 356.198 167.901 357.443C167.422 357.641 166.891 357.813 166.453 357.813ZM188.188 346.76C185.37 344.266 181.01 340.411 179.396 338.984C180.62 338.755 181.792 338.453 182.776 337.984C182.974 337.891 183.182 337.797 183.385 337.703L184.141 338.37L191.818 345.156C190.49 345.74 189.276 346.281 188.188 346.76Z" fill="#CFD6DD"/>
<path d="M179.052 351.635L168.432 342.25C168.161 342.005 168.255 341.562 168.604 341.453C169.563 341.167 171.245 340.651 172.969 340.12C173.76 339.969 174.563 339.807 175.318 339.667C176.63 339.422 178.047 339.24 179.396 338.984C181.01 340.411 185.37 344.266 188.188 346.76C186.214 347.63 184.672 348.302 183.745 348.708C182.146 349.443 180.594 350.542 179.052 351.635Z" fill="#B7BEC4"/>
<path d="M161.542 356.604C161.344 356.604 161.161 356.568 161.005 356.464C161.323 356.37 161.656 356.271 161.823 356.224L162.016 356.266C162.073 356.318 162.156 356.391 162.26 356.479C162 356.557 161.76 356.604 161.542 356.604Z" fill="#B7BEC4"/>
<path d="M159.151 354.068C158.656 354.068 158.333 353.885 158.182 353.495C158.161 353.453 158.151 353.411 158.146 353.359C158.313 353.313 158.458 353.271 158.557 353.24L158.745 353.286C158.896 353.417 159.24 353.724 159.589 354.031C159.432 354.057 159.281 354.068 159.151 354.068Z" fill="#B7BEC4"/>
<path d="M165.833 357.208L165.635 357.161L165.547 357.089C165.484 356.63 165.776 356.146 166.37 355.802C166.745 356.13 167.146 356.484 167.323 356.641L167.302 356.766L165.833 357.208ZM164.104 355.813L163.958 355.677L163.979 355.557C164.307 355.458 165.146 355.198 165.453 355.109L165.646 355.156C165.656 355.167 165.672 355.177 165.688 355.193C165.13 355.411 164.594 355.625 164.104 355.813Z" fill="#B7BEC4"/>
<path d="M162.557 354.229L162.37 354.182L162.349 354.172C162.812 353.938 163.312 353.698 163.823 353.458C163.917 353.536 164 353.609 164.057 353.661L164.026 353.786L162.557 354.229ZM161.51 353.427L160.682 352.698L160.714 352.573C161.031 352.474 161.875 352.214 162.182 352.13L162.375 352.177C162.505 352.297 162.792 352.542 163.094 352.813C162.521 353.042 161.984 353.25 161.51 353.427Z" fill="#B7BEC4"/>
<path d="M158.974 350.615C158.458 350.615 157.974 350.417 157.818 349.823C157.786 349.703 157.781 349.594 157.797 349.484C158.177 349.37 158.687 349.214 158.911 349.151L159.104 349.193C159.312 349.38 159.896 349.891 160.333 350.286C160.115 350.359 159.906 350.432 159.703 350.495C159.474 350.573 159.219 350.615 158.974 350.615Z" fill="#B7BEC4"/>
<path d="M169.385 356.052L169.187 356.01L168.026 354.979C168.562 354.714 169.042 354.479 169.49 354.255C169.927 354.641 170.63 355.266 170.885 355.49L170.854 355.615L169.385 356.052ZM167.526 354.469L167.542 354.401C167.682 354.354 167.927 354.286 168.187 354.203C167.958 354.292 167.74 354.38 167.526 354.469Z" fill="#B7BEC4"/>
<path d="M166.12 353.073L165.922 353.031L165.505 352.661C166.01 352.432 166.51 352.198 167 351.969C167.255 352.193 167.484 352.401 167.609 352.51L167.583 352.635L166.12 353.073ZM164.87 352.099L164.24 351.542L164.266 351.417C164.589 351.323 165.432 351.063 165.74 350.979L165.927 351.021C166.026 351.109 166.214 351.276 166.427 351.464C165.906 351.677 165.38 351.885 164.87 352.099Z" fill="#B7BEC4"/>
<path d="M163.021 350.042C163.432 349.844 163.844 349.651 164.26 349.458C164.292 349.484 164.318 349.505 164.339 349.531L164.313 349.656L163.021 350.042ZM162.146 349.599L160.974 348.563L161 348.438C161.323 348.344 162.162 348.078 162.469 348L162.661 348.042C162.844 348.198 163.302 348.609 163.708 348.969C163.182 349.188 162.656 349.401 162.146 349.599Z" fill="#B7BEC4"/>
<path d="M200.344 334.438C199.385 334.438 198.849 334.099 198.646 333.38C198.396 332.516 198.63 331.104 199.177 329.068C209.271 322.734 218.38 315.448 221.62 310.427C225.474 304.448 235.219 266.51 238.026 258.906C239.911 253.797 244.417 250.286 249.5 250.286C250.521 250.286 251.557 250.422 252.604 250.719C259.115 252.557 262.052 259.276 260.583 265.875C257.646 279.047 242.266 319.604 231.974 325.797C228.391 327.953 222.594 330.891 216.219 333.948C214.38 333.818 212.62 333.766 210.964 333.766C206.807 333.766 203.328 334.104 201.005 334.396C200.823 334.417 200.656 334.427 200.5 334.438C200.443 334.438 200.391 334.438 200.344 334.438Z" fill="#E5EEF5"/>
<path d="M252.437 249.198C246.083 247.406 239.995 251.276 237.708 257.464C234.875 265.151 225.026 303.484 221.135 309.526C215.927 317.594 195.693 331.474 180.338 338.042C180.193 338.104 181.838 348.646 181.838 348.646C181.838 348.646 219.401 332.396 231.594 325.052C241.99 318.792 257.536 277.813 260.5 264.51C261.984 257.844 259.016 251.057 252.437 249.198Z" fill="#FFD8A1"/>
<path d="M253.458 246.318C244.25 243.724 235.448 250.25 232.412 259.328C230.609 264.729 228.505 278.292 227.88 282.505C227.771 283.229 228.224 283.922 228.932 284.109L252.38 290.417C253.005 290.589 253.672 290.313 254 289.75C255.953 286.401 262.448 274.984 264.214 268.38C266.771 258.813 262.99 249.01 253.458 246.318Z" fill="#F2F2F2"/>
<path d="M181.901 337.354C179.823 338.37 176.885 338.583 174.354 339.063C170.687 339.755 166.12 340.708 165.109 340.979C164.464 341.161 163.214 341.458 163.526 342.349C163.839 343.531 166.714 343.276 168.391 343.063C168.26 343.12 167.359 343.505 166.812 343.745C164.479 344.755 161.172 346.208 158.391 347.557C157.443 348.016 156.453 348.474 156.677 349.323C156.906 350.208 157.875 350.234 158.578 350.005C161.182 349.172 165.135 347.349 167.891 346.302C168.76 345.974 169.078 346.214 167.906 346.771C166.198 347.583 160.885 349.958 158.339 351.307C157.224 351.891 156.839 352.505 157.042 353.036C157.307 353.724 158.109 353.771 159.448 353.318C161.505 352.609 166.193 350.599 169.12 349.5C170.094 349.135 170.651 349.234 168.802 350.141C166.302 351.37 162.615 352.995 160.208 354.234C159.193 354.766 159.286 355.557 159.818 355.979C160.344 356.401 161.156 356.068 162.083 355.724C164.266 354.917 168.01 353.427 170.901 352.198C171.609 351.901 172.073 351.932 171.036 352.49C169.594 353.271 168.068 353.995 165.474 355.281C164.557 355.734 164.245 356.479 164.651 357.073C165.036 357.635 166.031 357.37 166.865 357.021C169.823 355.766 170.672 355.427 173.885 353.849C176.844 352.396 179.786 349.615 182.865 348.193C184.714 347.344 183.786 336.432 181.901 337.354Z" fill="#FFD8A1"/>
<path d="M229.698 202.682C225.292 199.552 226.021 196.859 222.969 195.38C219.609 193.755 216.208 198.026 214.516 196.521C210.062 192.568 209.807 180.318 219.391 182.312C230.583 184.641 245.911 177.849 251.708 192.25C253.63 197.026 251.74 203.714 250.573 207.292C248.932 212.318 247.099 215.667 246.443 216.755C244.635 219.786 240.469 216.599 242.74 211.12C244.417 207.078 243.427 203.391 240.672 203.656C238.839 203.833 237.786 205.042 237.568 208.057C237.51 208.828 236.797 210.708 235.448 209.828C233.62 208.63 236.146 206.104 229.698 202.682Z" fill="black"/>
<path d="M149.318 214.573C149.26 213.573 149.219 212.307 149.297 211.708C149.792 207.859 149.703 204.828 149.297 203.026C148.979 201.625 148.766 199.823 148.786 198.297C148.807 197.203 149 195.75 148.13 195.896C146.964 196.094 146.177 198.349 146.073 199.432C145.99 200.234 146.24 201.734 146.062 202.568C146.026 202.729 145.948 203.052 145.807 203.188C145.714 203.271 145.568 203.286 145.495 203.094C144.599 200.802 141.792 193.964 141.792 193.964C141.203 192.615 140.365 190.286 139.146 190.391C137.729 190.51 138.318 192.818 138.844 194.318C139.349 195.75 140.552 198.953 141.255 200.932C141.307 201.089 141.266 201.036 141.224 200.948C140.073 198.099 138.51 194.297 138.51 194.297C137.932 192.969 137.115 190.682 135.911 190.786C134.521 190.901 135.099 193.172 135.62 194.641C136.073 195.943 137.885 200.625 138.667 202.729L138.641 202.75C137.76 200.568 136.396 197.24 136.396 197.24C135.823 195.948 135.026 193.714 133.854 193.818C132.495 193.932 133.057 196.141 133.568 197.578C134.016 198.854 135.328 202.417 136.073 204.432L136.047 204.469C135.995 204.375 135.047 202.026 134.714 201.214C134.208 199.984 133.427 197.891 132.323 197.984C131.047 198.099 131.578 200.182 132.057 201.536C132.51 202.833 133.776 206.25 134.349 207.807C134.823 209.083 135.875 211.75 138.891 214.87C139.484 215.479 141.557 218.625 142.88 222.438L151.495 219.76C150.203 217.573 149.37 215.49 149.318 214.573Z" fill="#FFD8A1"/>
<path d="M131.984 91.3125H119.167V79.6094C119.167 71.1094 112.245 64.1875 103.745 64.1875C95.2396 64.1875 88.323 71.1094 88.323 79.6094V91.3125H75.5052V79.6094C75.5052 64.0365 88.1771 51.3698 103.745 51.3698C119.318 51.3698 131.984 64.0365 131.984 79.6094V91.3125Z" fill="white"/>
<path d="M119.766 90.7083H131.385V79.6094C131.385 64.3698 118.984 51.9688 103.745 51.9688C88.5052 51.9688 76.1042 64.3698 76.1042 79.6094V90.7083H87.7188V79.6094C87.7188 70.776 94.9115 63.5885 103.745 63.5885C112.583 63.5885 119.766 70.776 119.766 79.6094V90.7083ZM131.99 91.9167H119.167C118.833 91.9167 118.568 91.6458 118.568 91.3125V79.6094C118.568 71.4375 111.917 64.7865 103.745 64.7865C95.5729 64.7865 88.9271 71.4375 88.9271 79.6094V91.3125C88.9271 91.6458 88.651 91.9167 88.3229 91.9167H75.5052C75.1719 91.9167 74.9062 91.6458 74.9062 91.3125V79.6094C74.9062 63.7083 87.8385 50.7656 103.745 50.7656C119.651 50.7656 132.583 63.7083 132.583 79.6094V91.3125C132.583 91.6458 132.318 91.9167 131.99 91.9167Z" fill="black"/>
<path d="M138.427 168.813H69.0625C61.5313 168.813 55.4271 162.708 55.4271 155.177V104.948C55.4271 97.4167 61.5313 91.3125 69.0625 91.3125H138.427C145.958 91.3125 152.063 97.4167 152.063 104.948V155.177C152.063 162.708 145.958 168.813 138.427 168.813Z" fill="#A07EFF"/>
<path d="M69.0625 91.9167C61.875 91.9167 56.026 97.7604 56.026 104.948V155.177C56.026 162.365 61.875 168.214 69.0625 168.214H138.427C145.615 168.214 151.464 162.365 151.464 155.177V104.948C151.464 97.7604 145.615 91.9167 138.427 91.9167H69.0625ZM138.427 169.417H69.0625C61.2083 169.417 54.8229 163.026 54.8229 155.177V104.948C54.8229 97.099 61.2083 90.7083 69.0625 90.7083H138.427C146.276 90.7083 152.667 97.099 152.667 104.948V155.177C152.667 163.026 146.276 169.417 138.427 169.417Z" fill="black"/>
<path d="M167.359 110.198H152.062C151.734 110.198 151.464 109.932 151.464 109.594C151.464 109.266 151.734 109 152.062 109H167.359C168.12 109 168.74 108.375 168.74 107.615V97.5313C168.74 96.1042 169.896 94.9479 171.318 94.9479H174.224C174.552 94.9479 174.823 95.2188 174.823 95.5469C174.823 95.8802 174.552 96.151 174.224 96.151H171.318C170.557 96.151 169.943 96.7656 169.943 97.5313V107.615C169.943 109.042 168.781 110.198 167.359 110.198Z" fill="black"/>
<path d="M192.896 131.781H152.062C151.734 131.781 151.464 131.516 151.464 131.177C151.464 130.849 151.734 130.583 152.062 130.583H192.896C193.229 130.583 193.5 130.849 193.5 131.177C193.5 131.516 193.229 131.781 192.896 131.781Z" fill="black"/>
<path d="M180.073 101.396C176.839 101.396 174.224 98.776 174.224 95.5469C174.224 92.3177 176.839 89.7031 180.073 89.7031C183.302 89.7031 185.917 92.3177 185.917 95.5469C185.917 98.776 183.302 101.396 180.073 101.396Z" fill="#A07EFF"/>
<path d="M180.073 90.2969C177.177 90.2969 174.823 92.651 174.823 95.5469C174.823 98.4427 177.177 100.792 180.073 100.792C182.964 100.792 185.312 98.4427 185.312 95.5469C185.312 92.651 182.964 90.2969 180.073 90.2969ZM180.073 101.995C176.516 101.995 173.62 99.1042 173.62 95.5469C173.62 91.9948 176.516 89.099 180.073 89.099C183.625 89.099 186.521 91.9948 186.521 95.5469C186.521 99.1042 183.625 101.995 180.073 101.995Z" fill="black"/>
<path d="M157.854 100.693H151.172C150.839 100.693 150.573 100.427 150.573 100.089C150.573 99.7604 150.839 99.4948 151.172 99.4948H157.854C158.615 99.4948 159.234 98.8698 159.234 98.1094V88.4271C159.234 88.0938 159.505 87.8281 159.833 87.8281C160.167 87.8281 160.437 88.0938 160.437 88.4271V98.1094C160.437 99.5365 159.276 100.693 157.854 100.693Z" fill="black"/>
<path d="M177.401 120.182H152.062C151.734 120.182 151.464 119.911 151.464 119.578C151.464 119.25 151.734 118.974 152.062 118.974H177.401C178.161 118.974 178.781 118.359 178.781 117.599V112.917C178.781 111.49 179.943 110.333 181.365 110.333H186.427C186.76 110.333 187.026 110.599 187.026 110.938C187.026 111.266 186.76 111.531 186.427 111.531H181.365C180.604 111.531 179.984 112.156 179.984 112.917V117.599C179.984 119.021 178.828 120.182 177.401 120.182Z" fill="black"/>
<path d="M189.354 113.859C187.734 113.859 186.427 112.547 186.427 110.938C186.427 109.318 187.734 108.01 189.354 108.01C190.964 108.01 192.276 109.318 192.276 110.938C192.276 112.547 190.964 113.859 189.354 113.859Z" fill="white"/>
<path d="M189.354 108.609C188.068 108.609 187.026 109.651 187.026 110.938C187.026 112.214 188.068 113.255 189.354 113.255C190.635 113.255 191.677 112.214 191.677 110.938C191.677 109.651 190.635 108.609 189.354 108.609ZM189.354 114.458C187.406 114.458 185.828 112.875 185.828 110.938C185.828 108.99 187.406 107.411 189.354 107.411C191.297 107.411 192.88 108.99 192.88 110.938C192.88 112.875 191.297 114.458 189.354 114.458Z" fill="black"/>
<path d="M159.833 88.4271C157.411 88.4271 155.448 86.4635 155.448 84.0417C155.448 81.6146 157.411 79.6562 159.833 79.6562C162.26 79.6562 164.219 81.6146 164.219 84.0417C164.219 86.4635 162.26 88.4271 159.833 88.4271Z" fill="white"/>
<path d="M159.833 80.2552C157.745 80.2552 156.047 81.9583 156.047 84.0417C156.047 86.1302 157.745 87.8281 159.833 87.8281C161.922 87.8281 163.62 86.1302 163.62 84.0417C163.62 81.9583 161.922 80.2552 159.833 80.2552ZM159.833 89.026C157.083 89.026 154.849 86.7917 154.849 84.0417C154.849 81.2917 157.083 79.0521 159.833 79.0521C162.583 79.0521 164.823 81.2917 164.823 84.0417C164.823 86.7917 162.583 89.026 159.833 89.026Z" fill="black"/>
<path d="M175.672 166.875H171.318C169.896 166.875 168.74 165.719 168.74 164.292V154.208C168.74 153.448 168.12 152.823 167.359 152.823H152.062C151.734 152.823 151.464 152.557 151.464 152.229C151.464 151.891 151.734 151.625 152.062 151.625H167.359C168.781 151.625 169.943 152.781 169.943 154.208V164.292C169.943 165.057 170.557 165.672 171.318 165.672H175.672C176 165.672 176.271 165.943 176.271 166.276C176.271 166.604 176 166.875 175.672 166.875Z" fill="black"/>
<path d="M197.297 126.781C194.87 126.781 192.896 128.755 192.896 131.177C192.896 133.615 194.87 135.578 197.297 135.578C199.729 135.578 201.698 133.615 201.698 131.177C201.698 128.755 199.729 126.781 197.297 126.781Z" fill="#A07EFF"/>
<path d="M197.297 127.38C195.203 127.38 193.5 129.083 193.5 131.177C193.5 133.281 195.203 134.984 197.297 134.984C199.391 134.984 201.094 133.281 201.094 131.177C201.094 129.083 199.391 127.38 197.297 127.38ZM197.297 136.182C194.542 136.182 192.297 133.938 192.297 131.177C192.297 128.422 194.542 126.182 197.297 126.182C200.052 126.182 202.297 128.422 202.297 131.177C202.297 133.938 200.052 136.182 197.297 136.182Z" fill="black"/>
<path d="M180.073 161.875C177.635 161.875 175.672 163.844 175.672 166.276C175.672 168.708 177.635 170.672 180.073 170.672C182.495 170.672 184.469 168.708 184.469 166.276C184.469 163.844 182.495 161.875 180.073 161.875Z" fill="#A07EFF"/>
<path d="M180.073 162.479C177.979 162.479 176.271 164.182 176.271 166.276C176.271 168.37 177.979 170.073 180.073 170.073C182.167 170.073 183.87 168.37 183.87 166.276C183.87 164.182 182.167 162.479 180.073 162.479ZM180.073 171.276C177.313 171.276 175.068 169.031 175.068 166.276C175.068 163.516 177.313 161.271 180.073 161.271C182.828 161.271 185.073 163.516 185.073 166.276C185.073 169.031 182.828 171.276 180.073 171.276Z" fill="black"/>
<path d="M159.833 171.068C159.505 171.068 159.234 170.802 159.234 170.474V163.714C159.234 162.953 158.615 162.328 157.854 162.328H150.562C150.234 162.328 149.964 162.063 149.964 161.729C149.964 161.396 150.234 161.13 150.562 161.13H157.854C159.276 161.13 160.437 162.286 160.437 163.714V170.474C160.437 170.802 160.167 171.068 159.833 171.068Z" fill="black"/>
<path d="M184.964 151.49H179.906C178.479 151.49 177.323 150.333 177.323 148.906V144.224C177.323 143.464 176.698 142.849 175.937 142.849H152.062C151.734 142.849 151.464 142.573 151.464 142.245C151.464 141.911 151.734 141.641 152.062 141.641H175.937C177.365 141.641 178.521 142.797 178.521 144.224V148.906C178.521 149.667 179.141 150.292 179.906 150.292H184.964C185.297 150.292 185.562 150.557 185.562 150.885C185.562 151.224 185.297 151.49 184.964 151.49Z" fill="black"/>
<path d="M190.818 145.042C187.583 145.042 184.964 147.656 184.964 150.885C184.964 154.12 187.583 156.74 190.818 156.74C194.047 156.74 196.661 154.12 196.661 150.885C196.661 147.656 194.047 145.042 190.818 145.042Z" fill="white"/>
<path d="M190.813 145.641C187.922 145.641 185.563 148 185.563 150.885C185.563 153.781 187.922 156.141 190.813 156.141C193.703 156.141 196.057 153.781 196.057 150.885C196.057 148 193.703 145.641 190.813 145.641ZM190.813 157.339C187.255 157.339 184.365 154.448 184.365 150.885C184.365 147.333 187.255 144.438 190.813 144.438C194.37 144.438 197.266 147.333 197.266 150.885C197.266 154.448 194.37 157.339 190.813 157.339Z" fill="black"/>
<path d="M159.833 170.474C156.604 170.474 153.99 173.089 153.99 176.323C153.99 179.552 156.604 182.167 159.833 182.167C163.063 182.167 165.682 179.552 165.682 176.323C165.682 173.089 163.063 170.474 159.833 170.474Z" fill="white"/>
<path d="M159.833 171.068C156.937 171.068 154.583 173.427 154.583 176.323C154.583 179.214 156.937 181.568 159.833 181.568C162.729 181.568 165.078 179.214 165.078 176.323C165.078 173.427 162.729 171.068 159.833 171.068ZM159.833 182.771C156.281 182.771 153.385 179.875 153.385 176.323C153.385 172.76 156.281 169.87 159.833 169.87C163.391 169.87 166.281 172.76 166.281 176.323C166.281 179.875 163.391 182.771 159.833 182.771Z" fill="black"/>
<path d="M39.4271 166.875H36.5261C36.1927 166.875 35.9271 166.604 35.9271 166.276C35.9271 165.943 36.1927 165.672 36.5261 165.672H39.4271C40.1875 165.672 40.8073 165.057 40.8073 164.292V154.208C40.8073 152.781 41.9636 151.625 43.3855 151.625H55.4271C55.7552 151.625 56.0261 151.891 56.0261 152.229C56.0261 152.557 55.7552 152.823 55.4271 152.823H43.3855C42.625 152.823 42.0105 153.448 42.0105 154.208V164.292C42.0105 165.719 40.849 166.875 39.4271 166.875Z" fill="black"/>
<path d="M55.4271 131.24H16.375C16.0417 131.24 15.7709 130.974 15.7709 130.646C15.7709 130.307 16.0417 130.042 16.375 130.042H55.4271C55.7553 130.042 56.0261 130.307 56.0261 130.646C56.0261 130.974 55.7553 131.24 55.4271 131.24Z" fill="black"/>
<path d="M30.6771 160.427C33.9063 160.427 36.526 163.042 36.526 166.276C36.526 169.505 33.9063 172.12 30.6771 172.12C27.4479 172.12 24.8281 169.505 24.8281 166.276C24.8281 163.042 27.4479 160.427 30.6771 160.427Z" fill="white"/>
<path d="M30.677 161.031C27.7812 161.031 25.427 163.38 25.427 166.276C25.427 169.172 27.7812 171.526 30.677 171.526C33.5729 171.526 35.927 169.172 35.927 166.276C35.927 163.38 33.5729 161.031 30.677 161.031ZM30.677 172.724C27.125 172.724 24.2291 169.828 24.2291 166.276C24.2291 162.724 27.125 159.828 30.677 159.828C34.2343 159.828 37.125 162.724 37.125 166.276C37.125 169.828 34.2343 172.724 30.677 172.724Z" fill="black"/>
<path d="M49.4532 173.995C49.1198 173.995 48.849 173.729 48.849 173.396V163.714C48.849 162.286 50.0052 161.13 51.4323 161.13H57.099C57.4375 161.13 57.7032 161.396 57.7032 161.729C57.7032 162.063 57.4375 162.328 57.099 162.328H51.4323C50.6719 162.328 50.0521 162.953 50.0521 163.714V173.396C50.0521 173.729 49.7813 173.995 49.4532 173.995Z" fill="black"/>
<path d="M29.3802 151.49H21.3958C21.0625 151.49 20.7916 151.224 20.7916 150.885C20.7916 150.557 21.0625 150.292 21.3958 150.292H29.3802C30.1406 150.292 30.7656 149.667 30.7656 148.906V144.224C30.7656 142.797 31.9218 141.641 33.3437 141.641H55.427C55.7552 141.641 56.026 141.911 56.026 142.245C56.026 142.573 55.7552 142.849 55.427 142.849H33.3437C32.5833 142.849 31.9635 143.464 31.9635 144.224V148.906C31.9635 150.333 30.8073 151.49 29.3802 151.49Z" fill="black"/>
<path d="M18.4687 147.964C20.0885 147.964 21.3958 149.276 21.3958 150.885C21.3958 152.505 20.0885 153.818 18.4687 153.818C16.8594 153.818 15.5469 152.505 15.5469 150.885C15.5469 149.276 16.8594 147.964 18.4687 147.964Z" fill="#A07EFF"/>
<path d="M18.4688 148.568C17.1875 148.568 16.1511 149.609 16.1511 150.885C16.1511 152.172 17.1875 153.214 18.4688 153.214C19.75 153.214 20.7917 152.172 20.7917 150.885C20.7917 149.609 19.75 148.568 18.4688 148.568ZM18.4688 154.411C16.5261 154.411 14.9427 152.833 14.9427 150.885C14.9427 148.948 16.5261 147.365 18.4688 147.365C20.4167 147.365 21.9948 148.948 21.9948 150.885C21.9948 152.833 20.4167 154.411 18.4688 154.411Z" fill="black"/>
<path d="M49.4531 173.396C51.0625 173.396 52.375 174.703 52.375 176.323C52.375 177.932 51.0625 179.245 49.4531 179.245C47.8333 179.245 46.526 177.932 46.526 176.323C46.526 174.703 47.8333 173.396 49.4531 173.396Z" fill="#A07EFF"/>
<path d="M49.4532 173.995C48.1719 173.995 47.125 175.042 47.125 176.323C47.125 177.599 48.1719 178.641 49.4532 178.641C50.7292 178.641 51.7709 177.599 51.7709 176.323C51.7709 175.042 50.7292 173.995 49.4532 173.995ZM49.4532 179.844C47.5052 179.844 45.9271 178.266 45.9271 176.323C45.9271 174.375 47.5052 172.797 49.4532 172.797C51.3959 172.797 52.9792 174.375 52.9792 176.323C52.9792 178.266 51.3959 179.844 49.4532 179.844Z" fill="black"/>
<path d="M55.4271 110.198H40.4636C39.0417 110.198 37.8802 109.042 37.8802 107.615V97.5313C37.8802 96.7656 37.2657 96.151 36.5052 96.151H29.2136C28.8855 96.151 28.6146 95.8802 28.6146 95.5469C28.6146 95.2188 28.8855 94.9479 29.2136 94.9479H36.5052C37.9271 94.9479 39.0886 96.1042 39.0886 97.5313V107.615C39.0886 108.375 39.7032 109 40.4636 109H55.4271C55.7553 109 56.0261 109.266 56.0261 109.594C56.0261 109.932 55.7553 110.198 55.4271 110.198Z" fill="black"/>
<path d="M10.5261 136.49C13.7552 136.49 16.375 133.875 16.375 130.646C16.375 127.411 13.7552 124.792 10.5261 124.792C7.29692 124.792 4.67712 127.411 4.67712 130.646C4.67712 133.875 7.29692 136.49 10.5261 136.49Z" fill="white"/>
<path d="M10.526 125.396C7.63021 125.396 5.27604 127.75 5.27604 130.646C5.27604 133.536 7.63021 135.891 10.526 135.891C13.4167 135.891 15.7708 133.536 15.7708 130.646C15.7708 127.75 13.4167 125.396 10.526 125.396ZM10.526 137.094C6.96875 137.094 4.07812 134.198 4.07812 130.646C4.07812 127.083 6.96875 124.193 10.526 124.193C14.0833 124.193 16.974 127.083 16.974 130.646C16.974 134.198 14.0833 137.094 10.526 137.094Z" fill="black"/>
<path d="M26.2916 98.4688C27.9062 98.4688 29.2135 97.1615 29.2135 95.5469C29.2135 93.9323 27.9062 92.625 26.2916 92.625C24.677 92.625 23.3698 93.9323 23.3698 95.5469C23.3698 97.1615 24.677 98.4688 26.2916 98.4688Z" fill="white"/>
<path d="M26.2917 93.2292C25.0104 93.2292 23.9635 94.2708 23.9635 95.5469C23.9635 96.8281 25.0104 97.8698 26.2917 97.8698C27.5729 97.8698 28.6146 96.8281 28.6146 95.5469C28.6146 94.2708 27.5729 93.2292 26.2917 93.2292ZM26.2917 99.0729C24.349 99.0729 22.7656 97.4948 22.7656 95.5469C22.7656 93.6042 24.349 92.0208 26.2917 92.0208C28.2396 92.0208 29.8177 93.6042 29.8177 95.5469C29.8177 97.4948 28.2396 99.0729 26.2917 99.0729Z" fill="black"/>
<path d="M56.3333 100.693H49.9687C48.5416 100.693 47.3854 99.5365 47.3854 98.1094V91.349C47.3854 91.0208 47.6562 90.75 47.9895 90.75C48.3177 90.75 48.5885 91.0208 48.5885 91.349V98.1094C48.5885 98.8698 49.2083 99.4948 49.9687 99.4948H56.3333C56.6614 99.4948 56.927 99.7604 56.927 100.089C56.927 100.427 56.6614 100.693 56.3333 100.693Z" fill="black"/>
<path d="M55.4271 120.182H30.4167C29 120.182 27.8385 119.021 27.8385 117.599V112.917C27.8385 112.156 27.2188 111.531 26.4583 111.531H19.9479C19.6198 111.531 19.3438 111.266 19.3438 110.938C19.3438 110.599 19.6198 110.333 19.9479 110.333H26.4583C27.8854 110.333 29.0417 111.49 29.0417 112.917V117.599C29.0417 118.359 29.6563 118.974 30.4167 118.974H55.4271C55.7552 118.974 56.026 119.25 56.026 119.578C56.026 119.911 55.7552 120.182 55.4271 120.182Z" fill="black"/>
<path d="M15.5469 115.333C17.9792 115.333 19.948 113.359 19.948 110.938C19.948 108.505 17.9792 106.536 15.5469 106.536C13.1146 106.536 11.1459 108.505 11.1459 110.938C11.1459 113.359 13.1146 115.333 15.5469 115.333Z" fill="#A07EFF"/>
<path d="M15.5469 107.13C13.4531 107.13 11.75 108.839 11.75 110.938C11.75 113.031 13.4531 114.734 15.5469 114.734C17.6406 114.734 19.3437 113.031 19.3437 110.938C19.3437 108.839 17.6406 107.13 15.5469 107.13ZM15.5469 115.932C12.7917 115.932 10.5469 113.693 10.5469 110.938C10.5469 108.177 12.7917 105.932 15.5469 105.932C18.3073 105.932 20.5521 108.177 20.5521 110.938C20.5521 113.693 18.3073 115.932 15.5469 115.932Z" fill="black"/>
<path d="M47.9896 91.349C51.2187 91.349 53.8385 88.7344 53.8385 85.5C53.8385 82.2708 51.2187 79.6562 47.9896 79.6562C44.7604 79.6562 42.1406 82.2708 42.1406 85.5C42.1406 88.7344 44.7604 91.349 47.9896 91.349Z" fill="#A07EFF"/>
<path d="M47.9895 80.2552C45.0937 80.2552 42.7395 82.6094 42.7395 85.5C42.7395 88.3958 45.0937 90.75 47.9895 90.75C50.8802 90.75 53.2343 88.3958 53.2343 85.5C53.2343 82.6094 50.8802 80.2552 47.9895 80.2552ZM47.9895 91.9531C44.427 91.9531 41.5416 89.0625 41.5416 85.5C41.5416 81.9479 44.427 79.0521 47.9895 79.0521C51.5416 79.0521 54.4375 81.9479 54.4375 85.5C54.4375 89.0625 51.5416 91.9531 47.9895 91.9531Z" fill="black"/>
<path d="M131.526 130.234C131.526 114.885 119.089 102.448 103.745 102.448C88.401 102.448 75.9635 114.885 75.9635 130.234C75.9635 145.573 88.401 158.01 103.745 158.01C119.089 158.01 131.526 145.573 131.526 130.234Z" fill="#A07EFF"/>
<path d="M112.292 126.167C112.292 121.443 108.469 117.625 103.745 117.625C99.026 117.625 95.1979 121.443 95.1979 126.167C95.1979 129.87 97.5677 132.995 100.865 134.177V142.547C100.865 144.135 102.151 145.427 103.745 145.427C105.333 145.427 106.625 144.135 106.625 142.547V134.177C109.922 132.995 112.292 129.875 112.292 126.167Z" fill="white"/>
<path d="M103.745 118.219C99.3646 118.219 95.8021 121.786 95.8021 126.167C95.8021 129.484 97.9219 132.479 101.068 133.615C101.307 133.698 101.464 133.927 101.464 134.177V142.547C101.464 143.797 102.49 144.823 103.745 144.823C105.005 144.823 106.021 143.797 106.021 142.547V134.177C106.021 133.927 106.188 133.698 106.422 133.615C109.573 132.479 111.693 129.484 111.693 126.167C111.693 121.786 108.125 118.219 103.745 118.219ZM103.745 146.021C101.828 146.021 100.266 144.464 100.266 142.547V134.589C96.8594 133.182 94.599 129.849 94.599 126.167C94.599 121.125 98.698 117.021 103.745 117.021C108.786 117.021 112.891 121.125 112.891 126.167C112.891 129.849 110.635 133.182 107.229 134.589V142.547C107.229 144.464 105.661 146.021 103.745 146.021Z" fill="black"/>
<path d="M136.588 182.51L124.526 149.734C124.083 148.536 122.76 147.927 121.562 148.359L118.901 149.344C117.703 149.781 117.094 151.115 117.531 152.302L118.224 154.182L111.292 156.734C110.865 156.891 110.646 157.365 110.802 157.797L111.141 158.719C111.297 159.151 111.771 159.37 112.198 159.214L114.052 158.526C114.411 158.396 114.812 158.578 114.937 158.938L115.484 160.417C115.615 160.776 115.432 161.172 115.073 161.307L113.224 161.984C112.797 162.146 112.578 162.615 112.734 163.047L113.578 165.328C113.729 165.76 114.208 165.974 114.635 165.823L121.568 163.266L129.594 185.083L136.588 182.51Z" fill="white"/>
<path d="M121.568 162.672L121.818 162.724C121.964 162.792 122.078 162.911 122.13 163.062L129.948 184.318L135.818 182.151L123.964 149.943C123.807 149.516 123.495 149.172 123.078 148.979C122.667 148.792 122.203 148.771 121.776 148.927L119.109 149.906C118.682 150.062 118.339 150.38 118.151 150.792C117.958 151.208 117.938 151.672 118.099 152.099L118.786 153.974C118.901 154.286 118.74 154.635 118.432 154.75L111.495 157.297L111.365 157.583L111.703 158.51C111.75 158.625 111.88 158.693 111.995 158.646L113.844 157.964C114.521 157.719 115.26 158.062 115.505 158.729L116.047 160.208C116.292 160.88 115.948 161.62 115.281 161.865L113.427 162.552C113.313 162.594 113.255 162.724 113.297 162.839L114.135 165.125L114.427 165.255L121.359 162.703L121.568 162.672ZM129.594 185.688L129.344 185.63C129.198 185.563 129.089 185.438 129.031 185.292L121.208 164.036L114.839 166.385C114.104 166.661 113.281 166.276 113.01 165.542L112.172 163.255C111.896 162.516 112.276 161.693 113.01 161.422L114.87 160.74L114.375 159.146L112.406 159.771C112.057 159.906 111.661 159.891 111.318 159.729C110.969 159.568 110.708 159.281 110.578 158.927L110.24 158C110.104 157.641 110.12 157.255 110.281 156.911C110.438 156.568 110.724 156.302 111.083 156.167L117.453 153.823L116.969 152.516C116.698 151.781 116.734 150.995 117.057 150.292C117.385 149.589 117.969 149.052 118.693 148.776L121.359 147.797C122.083 147.536 122.875 147.562 123.578 147.891C124.286 148.214 124.823 148.797 125.089 149.526L137.156 182.302C137.271 182.615 137.109 182.964 136.802 183.078L129.802 185.651L129.594 185.688Z" fill="black"/>
<path d="M139.526 201.104C137.719 201.776 135.714 200.849 135.047 199.036C134.38 197.224 135.307 195.224 137.115 194.557C138.927 193.885 140.932 194.812 141.599 196.63C142.266 198.437 141.339 200.443 139.526 201.104ZM131.708 179.859C124.38 182.557 120.63 190.677 123.323 198.005C126.021 205.328 134.146 209.078 141.474 206.385C148.797 203.693 152.552 195.568 149.854 188.245C147.161 180.911 139.036 177.161 131.708 179.859Z" fill="#A07EFF"/>
<path d="M138.323 194.938C137.984 194.938 137.651 194.995 137.328 195.12C136.599 195.385 136.026 195.922 135.698 196.62C135.375 197.323 135.344 198.104 135.609 198.828C136.161 200.328 137.828 201.094 139.323 200.542C140.042 200.276 140.62 199.74 140.948 199.042C141.266 198.344 141.302 197.557 141.031 196.833C140.604 195.667 139.5 194.938 138.323 194.938ZM138.323 201.922C137.74 201.922 137.156 201.797 136.609 201.547C135.615 201.089 134.865 200.271 134.484 199.245C134.109 198.219 134.151 197.104 134.609 196.115C135.068 195.125 135.885 194.37 136.911 193.995C139.031 193.214 141.38 194.302 142.161 196.417C142.542 197.448 142.495 198.557 142.036 199.547C141.578 200.542 140.76 201.292 139.74 201.672C139.276 201.844 138.802 201.922 138.323 201.922ZM136.599 179.578C135.021 179.578 133.443 179.859 131.917 180.422C128.526 181.672 125.823 184.167 124.307 187.448C122.786 190.729 122.641 194.401 123.891 197.797C125.135 201.188 127.635 203.891 130.917 205.406C134.198 206.922 137.87 207.073 141.266 205.823C144.656 204.573 147.365 202.083 148.875 198.802C150.391 195.516 150.536 191.839 149.292 188.448C148.042 185.057 145.547 182.354 142.266 180.839C140.458 180 138.531 179.578 136.599 179.578ZM136.578 207.865C134.474 207.865 132.38 207.406 130.411 206.5C126.833 204.844 124.125 201.906 122.76 198.214C121.401 194.521 121.562 190.516 123.214 186.943C124.865 183.37 127.807 180.656 131.5 179.292C135.193 177.932 139.198 178.099 142.771 179.745C146.344 181.396 149.063 184.339 150.417 188.031C151.776 191.729 151.62 195.729 149.969 199.302C148.313 202.875 145.37 205.594 141.677 206.953C140.021 207.557 138.297 207.865 136.578 207.865Z" fill="black"/>
<path d="M149.328 214.568C149.276 213.568 149.229 212.302 149.307 211.708C149.807 207.854 149.708 204.823 149.302 203.026C148.99 201.62 148.771 199.818 148.802 198.292C148.818 197.193 149.005 195.745 148.141 195.891C146.974 196.089 146.193 198.344 146.078 199.427C146 200.229 146.25 201.729 146.073 202.563C146.042 202.719 145.724 204.302 144.729 205.208C141.214 208.411 135.703 208.13 134.255 207.505C134.255 207.505 135.891 211.745 138.906 214.865C139.495 215.474 141.563 218.615 142.891 222.438L151.505 219.75C150.214 217.568 149.38 215.484 149.328 214.568Z" fill="#FFD8A1"/>
<path d="M88.8073 291.641L123.146 251.052C124.609 249.323 124.682 246.818 123.333 245C121.656 242.745 118.422 242.38 116.276 244.198L83.3802 272.151C82.7812 272.755 81.7968 272.755 81.1979 272.151L65.2135 262.089C62.8854 260.62 59.8489 260.958 57.901 262.906C55.6875 265.109 55.5781 268.656 57.651 271L76.026 291.776C79.4375 295.635 85.4791 295.568 88.8073 291.641Z" fill="#713FFD"/>
<path d="M85.6094 288.443L119.953 247.859C121.417 246.135 121.495 243.62 120.141 241.807C118.458 239.557 115.224 239.188 113.089 241.01L80.1875 268.958C79.5834 269.557 78.6094 269.557 78.0052 268.958L62.0261 258.891C59.6875 257.422 56.6563 257.76 54.7031 259.708C52.4948 261.917 52.3854 265.464 54.4584 267.802L72.8334 288.583C76.2448 292.443 82.2865 292.375 85.6094 288.443Z" fill="white"/>
<path d="M58.8698 258.573C57.5104 258.573 56.1615 259.104 55.1302 260.135C53.1459 262.115 53.0521 265.313 54.9115 267.406L73.2865 288.188C74.7917 289.891 76.9792 290.839 79.25 290.833C81.5261 290.813 83.6823 289.797 85.1511 288.057L119.495 247.474C120.786 245.948 120.854 243.766 119.656 242.167C118.948 241.208 117.901 240.615 116.719 240.479C115.542 240.344 114.385 240.693 113.474 241.464L80.5781 269.417C79.7761 270.219 78.4167 270.219 77.5781 269.385L61.7031 259.396C60.8229 258.849 59.8438 258.573 58.8698 258.573ZM79.1615 292.036C76.5729 292.036 74.1042 290.927 72.3854 288.979L54.0104 268.198C51.7292 265.63 51.849 261.714 54.2813 259.281C56.4427 257.125 59.7604 256.75 62.3438 258.385L78.3281 268.448C78.7969 268.901 79.3959 268.901 79.7656 268.531L112.703 240.552C113.865 239.563 115.344 239.115 116.854 239.281C118.37 239.453 119.708 240.224 120.62 241.448C122.146 243.5 122.063 246.297 120.411 248.245L86.0729 288.833C84.3698 290.839 81.8906 292.005 79.2604 292.036H79.1615Z" fill="black"/>
<path d="M77.3594 311.063C55.6302 311.063 37.9531 293.38 37.9531 271.651C37.9531 249.922 55.6302 232.24 77.3594 232.24C85.0729 232.24 92.5313 234.464 98.9531 238.677C99.2292 238.859 99.3073 239.229 99.125 239.505C98.9427 239.786 98.5677 239.859 98.2917 239.682C92.0729 235.599 84.8385 233.443 77.3594 233.443C56.2917 233.443 39.151 250.583 39.151 271.651C39.151 292.719 56.2917 309.859 77.3594 309.859C98.4323 309.859 115.573 292.719 115.573 271.651C115.573 270.568 115.521 269.474 115.432 268.396C115.401 268.068 115.651 267.776 115.984 267.745C116.313 267.719 116.604 267.958 116.63 268.297C116.724 269.406 116.771 270.536 116.771 271.651C116.771 293.38 99.0938 311.063 77.3594 311.063Z" fill="black"/>
<path d="M211.88 56.75C207.12 56.75 203.255 60.6146 203.255 65.3802V75.224C203.255 79.9896 207.12 83.849 211.88 83.849H212.406C212.818 83.849 213.146 84.1875 213.146 84.599V90.1719C213.146 90.8333 213.948 91.1667 214.417 90.6979L222.245 84.0729C222.38 83.9323 222.568 83.849 222.766 83.849H259.552C264.318 83.849 268.182 79.9896 268.182 75.224V65.3802C268.182 60.6146 264.318 56.75 259.552 56.75H211.88Z" fill="#713FFD"/>
<path d="M210.281 53.5469C205.51 53.5469 201.651 57.4115 201.651 62.1771V72.0208C201.651 76.7865 205.51 80.6458 210.281 80.6458H210.802C211.214 80.6458 211.542 80.9792 211.542 81.3906V86.9635C211.542 87.6302 212.349 87.9583 212.818 87.4896L220.641 80.8646C220.781 80.7292 220.969 80.6458 221.167 80.6458H257.948C262.719 80.6458 266.578 76.7865 266.578 72.0208V62.1771C266.578 57.4115 262.719 53.5469 257.948 53.5469H210.281Z" fill="white"/>
<path d="M210.281 54.151C205.849 54.151 202.25 57.7448 202.25 62.1771V72.0208C202.25 76.4479 205.849 80.0469 210.281 80.0469H210.802C211.542 80.0469 212.146 80.651 212.146 81.3906V86.9635L212.234 87.099L212.391 87.0677L220.255 80.4062C220.464 80.1927 220.813 80.0469 221.167 80.0469H257.948C262.38 80.0469 265.979 76.4479 265.979 72.0208V62.1771C265.979 57.7448 262.38 54.151 257.948 54.151H210.281ZM212.297 88.3125C212.12 88.3125 211.943 88.2812 211.771 88.2083C211.271 88 210.943 87.5156 210.943 86.9635V81.3906L210.802 81.25H210.281C205.193 81.25 201.047 77.1042 201.047 72.0208V62.1771C201.047 57.0885 205.193 52.9427 210.281 52.9427H257.948C263.042 52.9427 267.182 57.0885 267.182 62.1771V72.0208C267.182 77.1042 263.042 81.25 257.948 81.25H221.167L221.031 81.3229L213.203 87.9479C212.969 88.1823 212.641 88.3125 212.297 88.3125Z" fill="black"/>
<path d="M215.432 71.7031C215.099 71.7031 214.828 71.4375 214.828 71.1042V63.0781C214.828 62.7396 215.099 62.474 215.432 62.474C215.76 62.474 216.031 62.7396 216.031 63.0781V71.1042C216.031 71.4375 215.76 71.7031 215.432 71.7031Z" fill="black"/>
<path d="M218.906 69.6979L218.609 69.6146L211.651 65.6042C211.365 65.4375 211.271 65.0729 211.432 64.7812C211.599 64.4948 211.969 64.3958 212.255 64.5625L219.208 68.5781C219.495 68.7396 219.594 69.1094 219.427 69.3958C219.318 69.5885 219.115 69.6979 218.906 69.6979Z" fill="black"/>
<path d="M211.953 69.6979C211.75 69.6979 211.542 69.5885 211.432 69.3958C211.271 69.1094 211.365 68.7396 211.651 68.5781L218.609 64.5625C218.896 64.3958 219.266 64.4948 219.427 64.7812C219.594 65.0729 219.495 65.4375 219.208 65.6042L212.255 69.6146L211.953 69.6979Z" fill="black"/>
<path d="M227.896 71.7031C227.562 71.7031 227.292 71.4375 227.292 71.1042V63.0781C227.292 62.7396 227.562 62.474 227.896 62.474C228.224 62.474 228.495 62.7396 228.495 63.0781V71.1042C228.495 71.4375 228.224 71.7031 227.896 71.7031Z" fill="black"/>
<path d="M231.37 69.6979L231.068 69.6146L224.12 65.6042C223.828 65.4375 223.729 65.0729 223.901 64.7812C224.062 64.4948 224.432 64.3958 224.719 64.5625L231.667 68.5781C231.953 68.7396 232.057 69.1094 231.885 69.3958C231.776 69.5885 231.578 69.6979 231.37 69.6979Z" fill="black"/>
<path d="M224.422 69.6979C224.208 69.6979 224.01 69.5885 223.901 69.3958C223.729 69.1094 223.828 68.7396 224.12 68.5781L231.068 64.5625C231.354 64.3958 231.724 64.4948 231.885 64.7812C232.057 65.0729 231.953 65.4375 231.667 65.6042L224.719 69.6146L224.422 69.6979Z" fill="black"/>
<path d="M240.333 71.7031C240.005 71.7031 239.74 71.4375 239.74 71.1042V63.0781C239.74 62.7396 240.005 62.474 240.333 62.474C240.672 62.474 240.938 62.7396 240.938 63.0781V71.1042C240.938 71.4375 240.672 71.7031 240.333 71.7031Z" fill="black"/>
<path d="M243.812 69.6979L243.51 69.6146L236.562 65.6042C236.276 65.4375 236.172 65.0729 236.339 64.7812C236.505 64.4948 236.87 64.3958 237.161 64.5625L244.115 68.5781C244.401 68.7396 244.495 69.1094 244.333 69.3958C244.219 69.5885 244.021 69.6979 243.812 69.6979Z" fill="black"/>
<path d="M236.865 69.6979C236.651 69.6979 236.453 69.5885 236.339 69.3958C236.172 69.1094 236.276 68.7396 236.562 68.5781L243.51 64.5625C243.797 64.3958 244.167 64.4948 244.333 64.7812C244.495 65.0729 244.401 65.4375 244.115 65.6042L237.161 69.6146L236.865 69.6979Z" fill="black"/>
<path d="M252.797 71.7031C252.469 71.7031 252.198 71.4375 252.198 71.1042V63.0781C252.198 62.7396 252.469 62.474 252.797 62.474C253.13 62.474 253.401 62.7396 253.401 63.0781V71.1042C253.401 71.4375 253.13 71.7031 252.797 71.7031Z" fill="black"/>
<path d="M256.276 69.6979L255.974 69.6146L249.021 65.6042C248.734 65.4375 248.635 65.0729 248.802 64.7812C248.964 64.4948 249.333 64.3958 249.625 64.5625L256.573 68.5781C256.865 68.7396 256.964 69.1094 256.797 69.3958C256.688 69.5885 256.479 69.6979 256.276 69.6979Z" fill="black"/>
<path d="M249.323 69.6979C249.115 69.6979 248.911 69.5885 248.802 69.3958C248.635 69.1094 248.734 68.7396 249.021 68.5781L255.974 64.5625C256.26 64.3958 256.63 64.4948 256.797 64.7812C256.964 65.0729 256.865 65.4375 256.573 65.6042L249.625 69.6146L249.323 69.6979Z" fill="black"/>
</g>
<defs>
<clipPath id="clip0_40_64">
<rect width="500" height="500" fill="white"/>
</clipPath>
</defs>
</svg>
