<svg xmlns="http://www.w3.org/2000/svg" xmlns:xlink="http://www.w3.org/1999/xlink" width="500" zoomAndPan="magnify" viewBox="0 0 375 374.999991" height="500" preserveAspectRatio="xMidYMid meet" version="1.0"><defs><g/><clipPath id="ff68ae5691"><path d="M 33.960938 32.582031 L 343.710938 32.582031 L 343.710938 342.332031 L 33.960938 342.332031 Z M 33.960938 32.582031 " clip-rule="nonzero"/></clipPath><clipPath id="f411df64a8"><path d="M 18.449219 17.074219 L 358.949219 17.074219 L 358.949219 357.574219 L 18.449219 357.574219 Z M 18.449219 17.074219 " clip-rule="nonzero"/></clipPath><clipPath id="62d3041eb2"><path d="M 39.566406 38.1875 L 338.066406 38.1875 L 338.066406 336.6875 L 39.566406 336.6875 Z M 39.566406 38.1875 " clip-rule="nonzero"/></clipPath><clipPath id="f5cc4fe7ee"><path d="M 170 38.1875 L 178 38.1875 L 178 44 L 170 44 Z M 170 38.1875 " clip-rule="nonzero"/></clipPath><clipPath id="b010c2e98a"><path d="M 39.730469 132 L 50 132 L 50 144 L 39.730469 144 Z M 39.730469 132 " clip-rule="nonzero"/></clipPath><clipPath id="bab0360542"><path d="M 46 40 L 335.230469 40 L 335.230469 335.9375 L 46 335.9375 Z M 46 40 " clip-rule="nonzero"/></clipPath><clipPath id="82285a2345"><path d="M 62 188.203125 L 317 188.203125 L 317 260.203125 L 62 260.203125 Z M 62 188.203125 " clip-rule="nonzero"/></clipPath></defs><path fill="#8f62d8" d="M 374.996094 187.496094 C 374.996094 190.566406 374.917969 193.632812 374.769531 196.695312 C 374.617188 199.761719 374.390625 202.820312 374.089844 205.875 C 373.789062 208.929688 373.414062 211.972656 372.964844 215.007812 C 372.515625 218.042969 371.992188 221.066406 371.390625 224.074219 C 370.792969 227.085938 370.121094 230.078125 369.375 233.054688 C 368.628906 236.03125 367.8125 238.988281 366.921875 241.925781 C 366.03125 244.859375 365.066406 247.773438 364.035156 250.664062 C 363 253.550781 361.894531 256.414062 360.722656 259.25 C 359.546875 262.085938 358.304688 264.886719 356.992188 267.664062 C 355.679688 270.4375 354.300781 273.175781 352.855469 275.882812 C 351.410156 278.589844 349.894531 281.257812 348.320312 283.890625 C 346.742188 286.523438 345.101562 289.113281 343.394531 291.664062 C 341.691406 294.214844 339.925781 296.722656 338.097656 299.1875 C 336.269531 301.652344 334.382812 304.070312 332.433594 306.445312 C 330.488281 308.816406 328.484375 311.140625 326.421875 313.414062 C 324.363281 315.6875 322.246094 317.90625 320.078125 320.078125 C 317.90625 322.246094 315.6875 324.363281 313.414062 326.421875 C 311.140625 328.484375 308.816406 330.488281 306.445312 332.433594 C 304.070312 334.382812 301.652344 336.269531 299.1875 338.097656 C 296.722656 339.925781 294.214844 341.691406 291.664062 343.394531 C 289.113281 345.101562 286.523438 346.742188 283.890625 348.320312 C 281.257812 349.894531 278.589844 351.410156 275.882812 352.855469 C 273.175781 354.300781 270.4375 355.679688 267.664062 356.992188 C 264.886719 358.304688 262.085938 359.546875 259.25 360.722656 C 256.414062 361.894531 253.550781 363 250.664062 364.035156 C 247.773438 365.066406 244.859375 366.03125 241.925781 366.921875 C 238.988281 367.8125 236.03125 368.628906 233.054688 369.375 C 230.078125 370.121094 227.085938 370.792969 224.074219 371.390625 C 221.066406 371.992188 218.042969 372.515625 215.007812 372.964844 C 211.972656 373.414062 208.929688 373.789062 205.875 374.089844 C 202.820312 374.390625 199.761719 374.617188 196.695312 374.769531 C 193.632812 374.917969 190.566406 374.996094 187.496094 374.996094 C 184.429688 374.996094 181.363281 374.917969 178.296875 374.769531 C 175.230469 374.617188 172.171875 374.390625 169.121094 374.089844 C 166.066406 373.789062 163.019531 373.414062 159.984375 372.964844 C 156.949219 372.515625 153.929688 371.992188 150.917969 371.390625 C 147.910156 370.792969 144.914062 370.121094 141.9375 369.375 C 138.960938 368.628906 136.007812 367.8125 133.070312 366.921875 C 130.132812 366.03125 127.21875 365.066406 124.332031 364.035156 C 121.441406 363 118.578125 361.894531 115.746094 360.722656 C 112.910156 359.546875 110.105469 358.304688 107.332031 356.992188 C 104.558594 355.679688 101.816406 354.300781 99.113281 352.855469 C 96.40625 351.410156 93.734375 349.894531 91.105469 348.320312 C 88.472656 346.742188 85.878906 345.101562 83.328125 343.394531 C 80.777344 341.691406 78.269531 339.925781 75.804688 338.097656 C 73.339844 336.269531 70.921875 334.382812 68.550781 332.433594 C 66.179688 330.488281 63.855469 328.484375 61.582031 326.421875 C 59.308594 324.363281 57.085938 322.246094 54.917969 320.078125 C 52.746094 317.90625 50.632812 315.6875 48.570312 313.414062 C 46.511719 311.140625 44.507812 308.816406 42.558594 306.445312 C 40.613281 304.070312 38.726562 301.652344 36.898438 299.1875 C 35.070312 296.722656 33.304688 294.214844 31.597656 291.664062 C 29.894531 289.113281 28.253906 286.523438 26.675781 283.890625 C 25.097656 281.257812 23.585938 278.589844 22.140625 275.882812 C 20.691406 273.175781 19.3125 270.4375 18 267.664062 C 16.691406 264.886719 15.445312 262.085938 14.273438 259.25 C 13.097656 256.414062 11.992188 253.550781 10.960938 250.664062 C 9.925781 247.773438 8.964844 244.859375 8.074219 241.925781 C 7.183594 238.988281 6.363281 236.03125 5.617188 233.054688 C 4.875 230.078125 4.203125 227.085938 3.601562 224.074219 C 3.003906 221.066406 2.480469 218.042969 2.03125 215.007812 C 1.578125 211.972656 1.203125 208.929688 0.902344 205.875 C 0.601562 202.820312 0.375 199.761719 0.226562 196.695312 C 0.0742188 193.632812 0 190.566406 0 187.496094 C 0 184.429688 0.0742188 181.363281 0.226562 178.296875 C 0.375 175.230469 0.601562 172.171875 0.902344 169.121094 C 1.203125 166.066406 1.578125 163.019531 2.03125 159.984375 C 2.480469 156.949219 3.003906 153.929688 3.601562 150.917969 C 4.203125 147.910156 4.875 144.914062 5.617188 141.9375 C 6.363281 138.960938 7.183594 136.007812 8.074219 133.070312 C 8.964844 130.132812 9.925781 127.21875 10.960938 124.332031 C 11.992188 121.441406 13.097656 118.578125 14.273438 115.746094 C 15.445312 112.910156 16.691406 110.105469 18 107.332031 C 19.3125 104.558594 20.691406 101.816406 22.140625 99.113281 C 23.585938 96.40625 25.097656 93.734375 26.675781 91.105469 C 28.253906 88.472656 29.894531 85.878906 31.597656 83.328125 C 33.304688 80.777344 35.070312 78.269531 36.898438 75.804688 C 38.726562 73.339844 40.613281 70.921875 42.558594 68.550781 C 44.507812 66.179688 46.511719 63.855469 48.570312 61.582031 C 50.632812 59.308594 52.746094 57.085938 54.917969 54.917969 C 57.085938 52.746094 59.308594 50.632812 61.582031 48.570312 C 63.855469 46.511719 66.179688 44.507812 68.550781 42.558594 C 70.921875 40.613281 73.339844 38.726562 75.804688 36.898438 C 78.269531 35.070312 80.777344 33.304688 83.328125 31.597656 C 85.878906 29.894531 88.472656 28.253906 91.105469 26.675781 C 93.734375 25.097656 96.40625 23.585938 99.113281 22.140625 C 101.816406 20.691406 104.558594 19.3125 107.332031 18 C 110.105469 16.691406 112.910156 15.445312 115.746094 14.273438 C 118.578125 13.097656 121.441406 11.992188 124.332031 10.960938 C 127.21875 9.925781 130.132812 8.964844 133.070312 8.074219 C 136.007812 7.183594 138.960938 6.363281 141.9375 5.617188 C 144.914062 4.875 147.910156 4.203125 150.917969 3.601562 C 153.929688 3.003906 156.949219 2.480469 159.984375 2.03125 C 163.019531 1.578125 166.066406 1.203125 169.121094 0.902344 C 172.171875 0.601562 175.230469 0.375 178.296875 0.226562 C 181.363281 0.0742188 184.429688 0 187.496094 0 C 190.566406 0 193.632812 0.0742188 196.695312 0.226562 C 199.761719 0.375 202.820312 0.601562 205.875 0.902344 C 208.929688 1.203125 211.972656 1.578125 215.007812 2.03125 C 218.042969 2.480469 221.066406 3.003906 224.074219 3.601562 C 227.085938 4.203125 230.078125 4.875 233.054688 5.617188 C 236.03125 6.363281 238.988281 7.183594 241.925781 8.074219 C 244.859375 8.964844 247.773438 9.925781 250.664062 10.960938 C 253.550781 11.992188 256.414062 13.097656 259.25 14.273438 C 262.085938 15.445312 264.886719 16.691406 267.664062 18 C 270.4375 19.3125 273.175781 20.691406 275.882812 22.140625 C 278.589844 23.585938 281.257812 25.097656 283.890625 26.675781 C 286.523438 28.253906 289.113281 29.894531 291.664062 31.597656 C 294.214844 33.304688 296.722656 35.070312 299.1875 36.898438 C 301.652344 38.726562 304.070312 40.613281 306.445312 42.558594 C 308.816406 44.507812 311.140625 46.511719 313.414062 48.570312 C 315.6875 50.632812 317.90625 52.746094 320.078125 54.917969 C 322.246094 57.085938 324.363281 59.308594 326.421875 61.582031 C 328.484375 63.855469 330.488281 66.179688 332.433594 68.550781 C 334.382812 70.921875 336.269531 73.339844 338.097656 75.804688 C 339.925781 78.269531 341.691406 80.777344 343.394531 83.328125 C 345.101562 85.878906 346.742188 88.472656 348.320312 91.105469 C 349.894531 93.734375 351.410156 96.40625 352.855469 99.113281 C 354.300781 101.816406 355.679688 104.558594 356.992188 107.332031 C 358.304688 110.105469 359.546875 112.910156 360.722656 115.746094 C 361.894531 118.578125 363 121.441406 364.035156 124.332031 C 365.066406 127.21875 366.03125 130.132812 366.921875 133.070312 C 367.8125 136.007812 368.628906 138.960938 369.375 141.9375 C 370.121094 144.914062 370.792969 147.910156 371.390625 150.917969 C 371.992188 153.929688 372.515625 156.949219 372.964844 159.984375 C 373.414062 163.019531 373.789062 166.066406 374.089844 169.121094 C 374.390625 172.171875 374.617188 175.230469 374.769531 178.296875 C 374.917969 181.363281 374.996094 184.429688 374.996094 187.496094 Z M 374.996094 187.496094 " fill-opacity="1" fill-rule="nonzero"/><g clip-path="url(#ff68ae5691)"><path fill="#ffffff" d="M 188.875 32.582031 C 103.402344 32.582031 33.960938 102.023438 33.960938 187.496094 C 33.960938 272.972656 103.402344 342.414062 188.875 342.414062 C 274.347656 342.414062 343.792969 272.972656 343.792969 187.496094 C 343.792969 102.023438 274.347656 32.582031 188.875 32.582031 Z M 188.875 39.316406 C 270.796875 39.316406 337.054688 105.574219 337.054688 187.496094 C 337.054688 269.421875 270.796875 335.679688 188.875 335.679688 C 106.953125 335.679688 40.695312 269.421875 40.695312 187.496094 C 40.695312 105.574219 106.953125 39.316406 188.875 39.316406 Z M 188.875 39.316406 " fill-opacity="1" fill-rule="nonzero"/></g><g clip-path="url(#f411df64a8)"><path fill="#ffffff" d="M 188.875 17.074219 C 94.847656 17.074219 18.449219 93.46875 18.449219 187.5 C 18.449219 281.53125 94.847656 357.925781 188.875 357.925781 C 282.90625 357.925781 359.300781 281.53125 359.300781 187.5 C 359.300781 93.46875 282.90625 17.074219 188.875 17.074219 Z M 188.875 24.484375 C 279.003906 24.484375 351.890625 97.375 351.890625 187.5 C 351.890625 277.625 279.003906 350.515625 188.875 350.515625 C 98.75 350.515625 25.859375 277.625 25.859375 187.5 C 25.859375 97.375 98.75 24.484375 188.875 24.484375 Z M 188.875 24.484375 " fill-opacity="1" fill-rule="nonzero"/></g><g clip-path="url(#62d3041eb2)"><path fill="#ffffff" d="M 338.066406 187.4375 C 338.066406 189.882812 338.003906 192.324219 337.886719 194.761719 C 337.765625 197.203125 337.585938 199.636719 337.347656 202.066406 C 337.109375 204.5 336.808594 206.921875 336.449219 209.339844 C 336.09375 211.753906 335.675781 214.160156 335.199219 216.554688 C 334.722656 218.953125 334.1875 221.332031 333.59375 223.703125 C 333 226.074219 332.347656 228.425781 331.640625 230.761719 C 330.929688 233.101562 330.164062 235.417969 329.339844 237.71875 C 328.519531 240.019531 327.640625 242.296875 326.703125 244.554688 C 325.769531 246.8125 324.78125 249.042969 323.734375 251.25 C 322.691406 253.460938 321.59375 255.640625 320.441406 257.792969 C 319.292969 259.949219 318.085938 262.074219 316.832031 264.167969 C 315.574219 266.261719 314.269531 268.328125 312.914062 270.355469 C 311.554688 272.386719 310.148438 274.386719 308.695312 276.347656 C 307.238281 278.308594 305.738281 280.234375 304.1875 282.121094 C 302.636719 284.011719 301.042969 285.859375 299.402344 287.667969 C 297.761719 289.480469 296.078125 291.246094 294.351562 292.972656 C 292.625 294.703125 290.855469 296.386719 289.046875 298.027344 C 287.234375 299.664062 285.386719 301.261719 283.5 302.808594 C 281.609375 304.359375 279.6875 305.863281 277.722656 307.316406 C 275.761719 308.773438 273.765625 310.179688 271.734375 311.535156 C 269.703125 312.890625 267.640625 314.199219 265.546875 315.453125 C 263.449219 316.710938 261.324219 317.914062 259.171875 319.066406 C 257.015625 320.214844 254.835938 321.316406 252.628906 322.359375 C 250.421875 323.402344 248.1875 324.394531 245.929688 325.328125 C 243.675781 326.261719 241.394531 327.140625 239.097656 327.964844 C 236.796875 328.785156 234.476562 329.554688 232.140625 330.261719 C 229.804688 330.972656 227.449219 331.621094 225.082031 332.214844 C 222.710938 332.808594 220.328125 333.34375 217.933594 333.820312 C 215.539062 334.296875 213.132812 334.714844 210.714844 335.074219 C 208.300781 335.429688 205.875 335.730469 203.445312 335.96875 C 201.015625 336.210938 198.578125 336.390625 196.140625 336.507812 C 193.699219 336.628906 191.257812 336.6875 188.816406 336.6875 C 186.375 336.6875 183.933594 336.628906 181.492188 336.507812 C 179.054688 336.390625 176.617188 336.210938 174.1875 335.96875 C 171.757812 335.730469 169.332031 335.429688 166.917969 335.074219 C 164.5 334.714844 162.09375 334.296875 159.699219 333.820312 C 157.304688 333.34375 154.921875 332.808594 152.550781 332.214844 C 150.179688 331.621094 147.828125 330.972656 145.492188 330.261719 C 143.152344 329.554688 140.835938 328.785156 138.535156 327.964844 C 136.234375 327.140625 133.957031 326.261719 131.699219 325.328125 C 129.445312 324.394531 127.210938 323.402344 125.003906 322.359375 C 122.796875 321.316406 120.613281 320.214844 118.460938 319.066406 C 116.304688 317.914062 114.179688 316.710938 112.085938 315.453125 C 109.992188 314.199219 107.929688 312.890625 105.898438 311.535156 C 103.867188 310.179688 101.871094 308.773438 99.90625 307.316406 C 97.945312 305.863281 96.019531 304.359375 94.132812 302.808594 C 92.246094 301.261719 90.394531 299.664062 88.585938 298.027344 C 86.777344 296.386719 85.007812 294.703125 83.28125 292.972656 C 81.554688 291.246094 79.871094 289.480469 78.230469 287.667969 C 76.589844 285.859375 74.992188 284.011719 73.445312 282.121094 C 71.894531 280.234375 70.390625 278.308594 68.9375 276.347656 C 67.480469 274.386719 66.074219 272.386719 64.71875 270.355469 C 63.363281 268.328125 62.054688 266.261719 60.800781 264.167969 C 59.542969 262.074219 58.339844 259.949219 57.1875 257.792969 C 56.039062 255.640625 54.941406 253.460938 53.894531 251.25 C 52.851562 249.042969 51.863281 246.8125 50.925781 244.554688 C 49.992188 242.296875 49.113281 240.019531 48.289062 237.71875 C 47.46875 235.417969 46.703125 233.101562 45.992188 230.761719 C 45.285156 228.425781 44.632812 226.074219 44.039062 223.703125 C 43.445312 221.332031 42.910156 218.953125 42.433594 216.554688 C 41.957031 214.160156 41.539062 211.753906 41.179688 209.339844 C 40.824219 206.921875 40.523438 204.5 40.285156 202.066406 C 40.046875 199.636719 39.867188 197.203125 39.746094 194.761719 C 39.625 192.324219 39.566406 189.882812 39.566406 187.4375 C 39.566406 184.996094 39.625 182.554688 39.746094 180.117188 C 39.867188 177.675781 40.046875 175.242188 40.285156 172.808594 C 40.523438 170.378906 40.824219 167.957031 41.179688 165.539062 C 41.539062 163.121094 41.957031 160.71875 42.433594 158.320312 C 42.910156 155.925781 43.445312 153.542969 44.039062 151.171875 C 44.632812 148.804688 45.285156 146.449219 45.992188 144.113281 C 46.703125 141.777344 47.46875 139.457031 48.289062 137.15625 C 49.113281 134.859375 49.992188 132.578125 50.925781 130.324219 C 51.863281 128.066406 52.851562 125.835938 53.894531 123.625 C 54.941406 121.417969 56.039062 119.238281 57.1875 117.082031 C 58.339844 114.929688 59.542969 112.804688 60.800781 110.707031 C 62.054688 108.613281 63.363281 106.550781 64.71875 104.519531 C 66.074219 102.488281 67.480469 100.492188 68.9375 98.53125 C 70.390625 96.570312 71.894531 94.644531 73.445312 92.753906 C 74.992188 90.867188 76.589844 89.019531 78.230469 87.207031 C 79.871094 85.398438 81.554688 83.628906 83.28125 81.902344 C 85.007812 80.175781 86.777344 78.492188 88.585938 76.851562 C 90.394531 75.210938 92.246094 73.617188 94.132812 72.066406 C 96.019531 70.515625 97.945312 69.015625 99.90625 67.558594 C 101.871094 66.105469 103.867188 64.699219 105.898438 63.339844 C 107.929688 61.984375 109.992188 60.679688 112.085938 59.421875 C 114.179688 58.167969 116.304688 56.964844 118.460938 55.8125 C 120.613281 54.660156 122.796875 53.5625 125.003906 52.519531 C 127.210938 51.472656 129.445312 50.484375 131.699219 49.550781 C 133.957031 48.613281 136.234375 47.734375 138.535156 46.914062 C 140.835938 46.089844 143.152344 45.324219 145.492188 44.617188 C 147.828125 43.90625 150.179688 43.253906 152.550781 42.660156 C 154.921875 42.066406 157.304688 41.53125 159.699219 41.054688 C 162.09375 40.578125 164.5 40.164062 166.917969 39.804688 C 169.332031 39.445312 171.757812 39.148438 174.1875 38.90625 C 176.617188 38.667969 179.054688 38.488281 181.492188 38.367188 C 183.933594 38.25 186.375 38.1875 188.816406 38.1875 C 191.257812 38.1875 193.699219 38.25 196.140625 38.367188 C 198.578125 38.488281 201.015625 38.667969 203.445312 38.90625 C 205.875 39.148438 208.300781 39.445312 210.714844 39.804688 C 213.132812 40.164062 215.539062 40.578125 217.933594 41.054688 C 220.328125 41.53125 222.710938 42.066406 225.082031 42.660156 C 227.449219 43.253906 229.804688 43.90625 232.140625 44.617188 C 234.476562 45.324219 236.796875 46.089844 239.097656 46.914062 C 241.394531 47.734375 243.675781 48.613281 245.929688 49.550781 C 248.1875 50.484375 250.421875 51.472656 252.628906 52.519531 C 254.835938 53.5625 257.019531 54.660156 259.171875 55.8125 C 261.324219 56.964844 263.449219 58.167969 265.546875 59.421875 C 267.640625 60.679688 269.703125 61.984375 271.734375 63.339844 C 273.765625 64.699219 275.761719 66.105469 277.722656 67.558594 C 279.6875 69.015625 281.609375 70.515625 283.5 72.066406 C 285.386719 73.617188 287.234375 75.210938 289.046875 76.851562 C 290.855469 78.492188 292.625 80.175781 294.351562 81.902344 C 296.078125 83.628906 297.761719 85.398438 299.402344 87.207031 C 301.042969 89.019531 302.636719 90.867188 304.1875 92.753906 C 305.738281 94.644531 307.238281 96.570312 308.695312 98.53125 C 310.148438 100.492188 311.554688 102.488281 312.914062 104.519531 C 314.269531 106.550781 315.574219 108.613281 316.832031 110.707031 C 318.085938 112.804688 319.292969 114.929688 320.441406 117.082031 C 321.59375 119.238281 322.691406 121.417969 323.734375 123.625 C 324.78125 125.835938 325.769531 128.066406 326.703125 130.324219 C 327.640625 132.578125 328.519531 134.859375 329.339844 137.15625 C 330.164062 139.457031 330.929688 141.777344 331.640625 144.113281 C 332.347656 146.449219 333 148.804688 333.59375 151.171875 C 334.1875 153.542969 334.722656 155.925781 335.199219 158.320312 C 335.675781 160.71875 336.09375 163.121094 336.449219 165.539062 C 336.808594 167.957031 337.109375 170.378906 337.347656 172.808594 C 337.585938 175.242188 337.765625 177.675781 337.886719 180.117188 C 338.003906 182.554688 338.066406 184.996094 338.066406 187.4375 Z M 338.066406 187.4375 " fill-opacity="1" fill-rule="nonzero"/></g><path fill="#8f62d8" d="M 154.605469 42.269531 C 154.566406 41.898438 154.503906 41.5 154.398438 41.058594 C 153.8125 41.710938 154.015625 42.054688 154.605469 42.269531 Z M 154.605469 42.269531 " fill-opacity="1" fill-rule="nonzero"/><path fill="#8f62d8" d="M 205.625 40.917969 C 206.871094 40.929688 208.117188 40.9375 208.117188 40.9375 C 208.351562 40.988281 208.503906 41.011719 208.597656 41.015625 C 208.632812 41.011719 208.671875 41.007812 208.707031 41.003906 C 208.714844 40.839844 203.921875 39.449219 203.785156 40.914062 C 203.828125 40.910156 203.867188 40.910156 203.917969 40.90625 C 204.382812 40.910156 205.003906 40.914062 205.625 40.917969 Z M 205.625 40.917969 " fill-opacity="1" fill-rule="nonzero"/><path fill="#8f62d8" d="M 181.695312 41.910156 C 181.125 41.675781 180.5 41.488281 179.839844 41.375 C 180.363281 41.550781 181 41.730469 181.695312 41.910156 Z M 181.695312 41.910156 " fill-opacity="1" fill-rule="nonzero"/><path fill="#8f62d8" d="M 195.515625 43.453125 C 194.542969 43.179688 193.546875 42.964844 192.515625 42.8125 C 191.636719 42.6875 190.738281 42.617188 189.820312 42.605469 C 188.90625 42.636719 187.972656 42.730469 187.023438 42.890625 C 187.023438 42.890625 187.039062 42.917969 187.0625 42.960938 C 188.371094 43.144531 189.738281 43.296875 191.121094 43.382812 C 192.589844 43.515625 194.066406 43.523438 195.515625 43.453125 Z M 195.515625 43.453125 " fill-opacity="1" fill-rule="nonzero"/><g clip-path="url(#f5cc4fe7ee)"><path fill="#8f62d8" d="M 175.5 42.1875 C 176.613281 41.941406 177.351562 41.777344 177.351562 41.777344 C 177.351562 41.777344 176.699219 40.875 176.042969 39.972656 C 175.375 39.082031 174.710938 38.1875 174.710938 38.1875 C 169.175781 38.269531 169.855469 39.78125 170.4375 41.335938 C 170.71875 42.109375 170.96875 42.902344 170.441406 43.539062 C 170.78125 43.449219 171.125 43.355469 171.46875 43.265625 C 172.933594 42.875 174.402344 42.480469 175.5 42.1875 Z M 175.5 42.1875 " fill-opacity="1" fill-rule="nonzero"/></g><path fill="#8f62d8" d="M 170.429688 43.554688 C 170.433594 43.550781 170.4375 43.542969 170.441406 43.539062 C 169.335938 43.835938 168.289062 44.140625 167.464844 44.425781 C 166.382812 44.773438 165.664062 45.003906 165.664062 45.003906 C 167.113281 44.855469 168.164062 44.644531 168.921875 44.386719 C 169.683594 44.148438 170.160156 43.878906 170.429688 43.554688 Z M 170.429688 43.554688 " fill-opacity="1" fill-rule="nonzero"/><path fill="#8f62d8" d="M 263.359375 319.824219 C 263.03125 320.285156 262.554688 320.804688 262.015625 321.339844 C 262.582031 321.167969 263.132812 320.957031 263.65625 320.644531 Z M 263.359375 319.824219 " fill-opacity="1" fill-rule="nonzero"/><path fill="#8f62d8" d="M 262.597656 317.773438 L 263.359375 319.828125 C 264.023438 318.820312 264.050781 318.050781 262.597656 317.773438 Z M 262.597656 317.773438 " fill-opacity="1" fill-rule="nonzero"/><path fill="#8f62d8" d="M 243.820312 327.136719 C 242.316406 328.679688 240.71875 330.085938 240.71875 330.085938 C 242.101562 329.816406 244.40625 329.125 245.96875 328.101562 C 247.542969 327.085938 248.34375 325.757812 246.800781 324.117188 C 246.800781 324.117188 245.3125 325.628906 243.820312 327.136719 Z M 243.820312 327.136719 " fill-opacity="1" fill-rule="nonzero"/><path fill="#8f62d8" d="M 290.050781 275.414062 L 288.691406 274.480469 C 288.777344 275.070312 289.101562 275.484375 290.050781 275.414062 Z M 290.050781 275.414062 " fill-opacity="1" fill-rule="nonzero"/><path fill="#8f62d8" d="M 58.832031 130.21875 C 58.71875 129.910156 58.546875 129.59375 58.289062 129.269531 C 58.289062 129.265625 58.5 129.640625 58.832031 130.21875 Z M 58.832031 130.21875 " fill-opacity="1" fill-rule="nonzero"/><path fill="#8f62d8" d="M 188.777344 330.832031 L 188.609375 330.597656 C 188.597656 330.695312 188.65625 330.769531 188.777344 330.832031 Z M 188.777344 330.832031 " fill-opacity="1" fill-rule="nonzero"/><path fill="#8f62d8" d="M 266.980469 69.324219 C 267.367188 68.9375 267.632812 68.675781 267.632812 68.675781 C 267.308594 68.839844 267.109375 69.066406 266.980469 69.324219 Z M 266.980469 69.324219 " fill-opacity="1" fill-rule="nonzero"/><path fill="#8f62d8" d="M 327.382812 222.925781 C 327.292969 222.933594 327.214844 222.933594 327.128906 222.941406 C 327.125 223.070312 327.121094 223.199219 327.113281 223.332031 C 327.203125 223.195312 327.289062 223.066406 327.382812 222.925781 Z M 327.382812 222.925781 " fill-opacity="1" fill-rule="nonzero"/><path fill="#8f62d8" d="M 325.582031 235.449219 C 326.1875 231.789062 326.839844 227.355469 327.105469 223.539062 C 327.109375 223.464844 327.113281 223.402344 327.113281 223.332031 C 325.820312 225.273438 325.242188 226.890625 325.195312 228.6875 C 325.144531 230.605469 325.457031 232.691406 325.582031 235.449219 Z M 325.582031 235.449219 " fill-opacity="1" fill-rule="nonzero"/><path fill="#8f62d8" d="M 314.585938 265.34375 C 314.875 265.582031 315.203125 265.820312 315.589844 266.054688 C 315.539062 265.179688 315.152344 265.082031 314.585938 265.34375 Z M 314.585938 265.34375 " fill-opacity="1" fill-rule="nonzero"/><path fill="#8f62d8" d="M 306.308594 264.019531 C 306.308594 264.019531 307.324219 262.589844 308.289062 261.121094 C 309.21875 259.632812 310.148438 258.140625 310.148438 258.140625 C 311.367188 259.839844 310.617188 261.886719 309.707031 263.695312 C 308.816406 265.519531 307.949219 267.199219 309.179688 268.492188 C 310.667969 268.945312 313.1875 266 314.585938 265.347656 C 312.140625 263.359375 312.859375 261.363281 313.332031 259.746094 C 313.855469 257.9375 314.007812 256.667969 309.03125 256.464844 C 308.808594 256.890625 308.589844 257.328125 308.378906 257.800781 C 307.648438 259.453125 307 261.429688 306.308594 264.019531 Z M 306.308594 264.019531 " fill-opacity="1" fill-rule="nonzero"/><path fill="#8f62d8" d="M 314.117188 242.613281 C 313.863281 245.269531 313.390625 247.324219 312.808594 249.042969 C 312.351562 250.21875 311.851562 251.234375 311.339844 252.203125 C 311.894531 251.898438 312.476562 251.8125 313.078125 251.726562 C 314.628906 251.496094 316.398438 251.242188 317.640625 246.523438 C 317.640625 246.523438 316.765625 245.535156 315.886719 244.546875 C 315 243.578125 314.117188 242.613281 314.117188 242.613281 Z M 314.117188 242.613281 " fill-opacity="1" fill-rule="nonzero"/><path fill="#8f62d8" d="M 308.898438 256.457031 C 308.945312 256.457031 308.984375 256.460938 309.03125 256.464844 C 309.582031 255.398438 310.148438 254.445312 310.660156 253.464844 C 310.886719 253.050781 311.113281 252.628906 311.339844 252.203125 C 311.167969 252.296875 311 252.410156 310.835938 252.554688 C 310.117188 253.164062 309.5625 254.320312 308.898438 256.457031 Z M 308.898438 256.457031 " fill-opacity="1" fill-rule="nonzero"/><path fill="#8f62d8" d="M 289.445312 290.007812 C 290.074219 289.339844 290.667969 288.613281 291.222656 287.828125 C 291.222656 287.828125 291.191406 287.820312 291.148438 287.808594 C 290.089844 288.601562 289.015625 289.460938 287.980469 290.382812 C 286.84375 291.324219 285.796875 292.363281 284.820312 293.4375 C 285.703125 292.945312 286.554688 292.390625 287.394531 291.769531 C 288.101562 291.234375 288.789062 290.648438 289.445312 290.007812 Z M 289.445312 290.007812 " fill-opacity="1" fill-rule="nonzero"/><path fill="#8f62d8" d="M 295.683594 284.753906 C 296.253906 284.519531 296.828125 284.207031 297.375 283.824219 C 296.878906 284.070312 296.304688 284.390625 295.683594 284.753906 Z M 295.683594 284.753906 " fill-opacity="1" fill-rule="nonzero"/><path fill="#8f62d8" d="M 292.957031 285.167969 C 291.761719 284.917969 291.21875 283.984375 291.875 282.035156 C 291.875 282.035156 293.222656 282 294.570312 281.964844 C 295.933594 281.90625 297.292969 281.851562 297.292969 281.851562 C 297.292969 281.851562 297.28125 281.179688 297.257812 280.175781 C 297.25 279.1875 297.175781 277.84375 297.074219 276.503906 C 296.886719 273.835938 296.640625 271.257812 296.640625 271.257812 C 296.695312 273.144531 296.023438 274.710938 295.105469 276.039062 C 294.203125 277.382812 292.910156 278.402344 291.894531 279.390625 C 289.851562 281.375 288.457031 282.957031 291.210938 285.878906 C 291.210938 285.878906 290.148438 286.105469 289.085938 286.328125 C 288.035156 286.539062 286.984375 286.75 286.984375 286.75 C 286.984375 286.75 288.039062 287.023438 289.09375 287.296875 C 290 287.523438 290.898438 287.742188 291.148438 287.808594 C 292.773438 286.585938 294.347656 285.542969 295.683594 284.753906 C 294.6875 285.164062 293.71875 285.328125 292.957031 285.167969 Z M 292.957031 285.167969 " fill-opacity="1" fill-rule="nonzero"/><path fill="#8f62d8" d="M 279.460938 302.378906 C 278.574219 303.253906 277.6875 304.125 277.6875 304.125 C 277.488281 304.257812 277.367188 304.347656 277.292969 304.410156 C 277.269531 304.4375 277.246094 304.46875 277.222656 304.496094 C 277.335938 304.613281 281.707031 302.210938 280.769531 301.078125 C 280.738281 301.113281 280.710938 301.140625 280.679688 301.175781 C 280.347656 301.503906 279.902344 301.941406 279.460938 302.378906 Z M 279.460938 302.378906 " fill-opacity="1" fill-rule="nonzero"/><path fill="#8f62d8" d="M 304.832031 271.230469 C 303.910156 272.363281 303.316406 273.253906 302.960938 273.972656 C 302.59375 274.679688 302.449219 275.207031 302.488281 275.625 C 302.488281 275.632812 302.492188 275.636719 302.492188 275.644531 C 303.058594 274.652344 303.585938 273.699219 303.96875 272.917969 C 304.484375 271.90625 304.832031 271.230469 304.832031 271.230469 Z M 304.832031 271.230469 " fill-opacity="1" fill-rule="nonzero"/><path fill="#8f62d8" d="M 304.050781 277.199219 C 303.300781 276.851562 302.570312 276.46875 302.492188 275.644531 C 302.316406 275.949219 302.136719 276.257812 301.957031 276.566406 C 301.195312 277.878906 300.4375 279.195312 299.867188 280.179688 C 299.253906 281.140625 298.847656 281.777344 298.847656 281.777344 C 298.847656 281.777344 299.949219 281.953125 301.050781 282.128906 C 302.15625 282.289062 303.257812 282.449219 303.257812 282.449219 C 307.109375 278.476562 305.5625 277.890625 304.050781 277.199219 Z M 304.050781 277.199219 " fill-opacity="1" fill-rule="nonzero"/><path fill="#8f62d8" d="M 41.421875 145.984375 C 41.328125 145.429688 41.296875 144.722656 41.300781 143.960938 C 41.019531 144.484375 40.78125 145.027344 40.632812 145.617188 Z M 41.421875 145.984375 " fill-opacity="1" fill-rule="nonzero"/><path fill="#8f62d8" d="M 43.414062 146.898438 L 41.421875 145.984375 C 41.664062 147.164062 42.1875 147.730469 43.414062 146.898438 Z M 43.414062 146.898438 " fill-opacity="1" fill-rule="nonzero"/><g clip-path="url(#b010c2e98a)"><path fill="#8f62d8" d="M 47.699219 137.902344 C 49.609375 136.441406 50.359375 135.15625 47.433594 132.867188 C 47.433594 132.867188 46.542969 134.429688 45.652344 135.996094 C 45.210938 136.78125 44.765625 137.566406 44.433594 138.160156 C 44.101562 138.746094 43.886719 139.144531 43.886719 139.144531 C 41.15625 137.738281 39.796875 137.027344 42.15625 133.089844 C 40.554688 133.523438 40.3125 137.972656 39.988281 140.328125 L 40.960938 138.917969 C 41.378906 140.199219 41.28125 142.230469 41.300781 143.960938 C 42.796875 141.085938 45.75 139.339844 47.699219 137.902344 Z M 47.699219 137.902344 " fill-opacity="1" fill-rule="nonzero"/></g><path fill="#8f62d8" d="M 50.097656 131.242188 C 50.097656 131.242188 50.082031 129.121094 50.066406 127 C 50.039062 124.84375 50.175781 122.722656 50.175781 122.722656 C 49.390625 123.886719 48.246094 126.003906 47.867188 127.835938 C 47.472656 129.667969 47.84375 131.171875 50.097656 131.242188 Z M 50.097656 131.242188 " fill-opacity="1" fill-rule="nonzero"/><path fill="#8f62d8" d="M 58.234375 125.050781 C 59.015625 123.859375 59.835938 122.796875 59.8125 121.410156 C 57.855469 122.648438 57.902344 121.871094 58.472656 120.519531 C 59.050781 119.175781 60.136719 117.269531 60.132812 116.226562 C 53.320312 121.519531 59.921875 120.566406 58.234375 125.050781 Z M 58.234375 125.050781 " fill-opacity="1" fill-rule="nonzero"/><path fill="#8f62d8" d="M 58.234375 125.050781 C 57.878906 125.601562 57.542969 126.195312 57.347656 126.867188 C 57.789062 126.164062 58.039062 125.585938 58.234375 125.050781 Z M 58.234375 125.050781 " fill-opacity="1" fill-rule="nonzero"/><path fill="#8f62d8" d="M 86.378906 85.46875 L 86.660156 85.515625 C 86.601562 85.433594 86.503906 85.421875 86.378906 85.46875 Z M 86.378906 85.46875 " fill-opacity="1" fill-rule="nonzero"/><g clip-path="url(#bab0360542)"><path fill="#8f62d8" d="M 334.214844 179.175781 C 333.585938 177.476562 332.875 175.472656 332.390625 173.542969 C 331.917969 171.609375 331.824219 169.71875 332.667969 168.148438 L 329.667969 168.714844 C 329.648438 168.503906 329.628906 168.296875 329.609375 168.089844 C 329.355469 164.507812 329.1875 162.242188 329.207031 160.707031 C 329.179688 159.09375 329.277344 158.300781 329.421875 157.582031 C 329.5625 156.863281 329.730469 156.222656 329.757812 154.917969 C 329.769531 154.269531 329.746094 153.449219 329.667969 152.367188 C 329.550781 151.296875 329.367188 149.96875 329.078125 148.28125 C 329.078125 148.28125 327.945312 147.625 326.8125 146.972656 C 326.492188 146.792969 326.183594 146.617188 325.894531 146.449219 C 325.699219 145.714844 325.507812 144.984375 325.300781 144.253906 C 325.320312 144.234375 325.332031 144.21875 325.351562 144.199219 C 325.226562 143.832031 325.089844 143.464844 324.957031 143.101562 C 322.960938 136.292969 320.40625 129.722656 317.347656 123.445312 C 316.863281 121.855469 316.140625 120.242188 314.992188 118.722656 C 314.992188 118.722656 315.015625 118.824219 315.050781 118.964844 C 313.515625 116.113281 311.878906 113.324219 310.136719 110.609375 C 310.320312 110.457031 310.496094 110.269531 310.65625 110.011719 C 309.519531 108.332031 308.183594 106.867188 306.734375 105.578125 C 296.246094 90.84375 282.671875 78.460938 266.960938 69.363281 C 266.964844 69.351562 266.976562 69.339844 266.984375 69.324219 C 266.972656 69.335938 266.960938 69.347656 266.949219 69.359375 C 265.695312 68.632812 264.425781 67.933594 263.148438 67.25 C 263.617188 66.726562 264.136719 66.191406 264.660156 65.648438 C 267.355469 62.871094 270.132812 59.894531 264.683594 57.582031 C 266.773438 60.132812 265.789062 62.375 263.945312 63.691406 C 262.082031 65.019531 259.445312 65.355469 257.734375 64.125 C 257.761719 64.234375 257.765625 64.378906 257.757812 64.539062 C 257.007812 64.183594 256.253906 63.832031 255.496094 63.492188 C 257.300781 62.882812 257.628906 61.734375 256.976562 60.5625 C 256.277344 59.308594 254.480469 58.007812 252.367188 57.59375 C 253.230469 58 253.941406 58.476562 254.480469 59.011719 C 255.011719 59.566406 255.382812 60.152344 255.601562 60.726562 C 255.988281 61.75 255.847656 62.714844 255.269531 63.390625 C 254.132812 62.882812 252.984375 62.394531 251.828125 61.917969 C 251.582031 61.738281 251.335938 61.5625 251.085938 61.378906 C 251.453125 61.230469 251.859375 60.960938 252.324219 60.519531 C 253.589844 58.402344 251.4375 56.046875 248.363281 53.792969 C 246.816406 52.703125 245.066406 51.589844 243.4375 50.507812 C 241.789062 49.488281 240.277344 48.457031 239.253906 47.394531 C 237.054688 47.101562 235.847656 47.484375 234.992188 48.097656 C 234.128906 48.734375 233.582031 49.710938 232.644531 50.921875 C 232.417969 49.480469 231.289062 48.253906 230.105469 47.140625 C 228.921875 46.019531 227.710938 44.898438 227.386719 43.449219 C 224.949219 43.953125 222.917969 43.972656 221.058594 43.667969 C 219.199219 43.355469 217.515625 42.699219 215.804688 42.191406 C 214.097656 41.660156 212.371094 41.101562 210.488281 40.960938 C 209.914062 40.933594 209.316406 40.957031 208.707031 41.003906 C 208.707031 41.019531 208.671875 41.023438 208.601562 41.019531 C 207.253906 41.140625 205.832031 41.460938 204.300781 42.125 C 203.902344 41.589844 203.757812 41.199219 203.785156 40.914062 C 203.398438 40.925781 203.140625 40.933594 203.140625 40.933594 L 203.664062 41.53125 C 201.980469 42.519531 199.972656 43.0625 197.824219 43.28125 C 197.070312 43.363281 196.296875 43.414062 195.515625 43.453125 C 196.199219 43.644531 196.875 43.867188 197.53125 44.136719 C 197.984375 44.332031 198.414062 44.550781 198.851562 44.757812 C 197.621094 44.871094 196.074219 45.074219 194.519531 45.253906 C 192.320312 45.484375 190.140625 45.824219 188.894531 46.03125 C 188.691406 45.683594 188.421875 45.226562 188.152344 44.769531 C 187.675781 43.972656 187.195312 43.183594 187.0625 42.957031 C 185.050781 42.671875 183.199219 42.296875 181.695312 41.910156 C 182.6875 42.324219 183.492188 42.894531 183.914062 43.546875 C 184.226562 44.019531 184.320312 44.5 184.160156 44.964844 C 183.824219 44.984375 183.488281 45.007812 183.148438 45.023438 C 182.433594 45.078125 181.714844 45.097656 181 45.136719 C 180.839844 44.984375 180.675781 44.828125 180.511719 44.671875 C 179.507812 43.75 178.503906 42.824219 178.503906 42.824219 C 178.503906 42.824219 178.042969 43.308594 177.34375 44.035156 C 176.984375 44.402344 176.566406 44.851562 176.128906 45.335938 C 173.675781 45.425781 171.25 45.585938 168.878906 45.679688 C 165.808594 45.898438 162.84375 46.210938 160.101562 46.683594 C 157.820312 47.15625 155.699219 47.71875 153.800781 48.472656 C 154.625 47.734375 155.761719 47.257812 156.890625 46.882812 C 158.808594 46.222656 160.609375 45.648438 160.65625 43.867188 C 159.921875 42.496094 156.054688 42.792969 154.609375 42.269531 C 154.929688 45.40625 153.011719 46.304688 151.53125 47.113281 C 150.039062 47.9375 149.074219 48.667969 151.425781 51.53125 C 151.269531 52.019531 151.285156 52.425781 151.644531 52.664062 C 150.726562 52.9375 149.847656 53.175781 148.980469 53.445312 C 148.527344 53.578125 148.070312 53.714844 147.609375 53.859375 C 147.796875 53.910156 147.996094 53.953125 148.214844 53.964844 C 149.082031 54.035156 150.191406 53.671875 151.921875 52.792969 C 152.511719 52.980469 153.59375 52.929688 155.472656 52.5 C 153.253906 54.695312 150.367188 55.445312 147.210938 55.488281 C 146.015625 55.5625 144.777344 55.53125 143.542969 55.476562 C 143.808594 55.335938 144.078125 55.183594 144.335938 55.058594 C 145.488281 54.546875 146.5625 54.183594 147.609375 53.859375 C 147 53.683594 146.527344 53.332031 146.042969 52.96875 C 144.785156 52.035156 143.351562 50.960938 139.136719 53.421875 C 139.136719 53.421875 139.085938 54.28125 139.027344 55.304688 C 138.625 55.296875 138.214844 55.277344 137.835938 55.289062 C 137.835938 55.289062 138.035156 54.949219 138.339844 54.433594 C 138.644531 53.914062 139.0625 53.246094 139.488281 52.585938 C 140.355469 51.253906 141.222656 49.925781 141.222656 49.925781 C 133.578125 52.546875 124.804688 54.320312 116.488281 57.320312 C 108.199219 60.269531 100.398438 64.347656 95.441406 70.191406 L 99.414062 71.355469 C 98.753906 71.914062 98.085938 72.449219 97.410156 72.96875 C 96.742188 73.503906 96.082031 74.042969 95.410156 74.554688 C 94.070312 75.582031 92.707031 76.542969 91.339844 77.460938 C 88.679688 79.386719 85.980469 81.109375 83.527344 82.847656 C 81.117188 84.628906 78.789062 86.246094 76.976562 88.003906 C 75.152344 89.75 73.6875 91.46875 72.816406 93.230469 C 78.148438 91.613281 77.429688 93.425781 75.371094 95.929688 C 74.882812 96.578125 74.308594 97.273438 73.714844 97.980469 C 73.511719 98.070312 73.304688 98.148438 73.09375 98.210938 L 73.359375 98.394531 C 71.65625 100.402344 69.910156 102.414062 69.695312 103.546875 C 70.664062 102.773438 71.644531 101.910156 72.625 100.996094 C 73.238281 100.402344 73.839844 99.773438 74.433594 99.125 L 75.621094 99.941406 C 73.023438 102.9375 71.441406 104.785156 70.277344 105.917969 C 69.15625 107.078125 68.527344 107.574219 67.914062 107.976562 C 67.304688 108.386719 66.738281 108.722656 65.796875 109.625 C 65.328125 110.074219 64.761719 110.671875 64.050781 111.492188 C 63.378906 112.332031 62.570312 113.402344 61.582031 114.796875 C 61.582031 114.796875 61.917969 116.0625 62.253906 117.328125 C 62.429688 117.953125 62.601562 118.578125 62.730469 119.046875 C 62.875 119.515625 62.972656 119.828125 62.972656 119.828125 C 63.25 120.265625 63.570312 117.210938 64.371094 114.257812 C 65.121094 111.277344 66.605469 108.566406 68.558594 109.699219 C 68.40625 110.796875 68.1875 111.910156 67.917969 113.03125 C 67.671875 114.164062 67.410156 115.324219 67.097656 116.488281 C 66.792969 117.652344 66.457031 118.824219 66.109375 120.007812 C 65.769531 121.195312 65.484375 122.414062 65.175781 123.625 C 64.871094 124.839844 64.578125 126.058594 64.3125 127.273438 C 64.0625 128.496094 63.894531 129.734375 63.746094 130.957031 C 63.601562 132.183594 63.507812 133.398438 63.480469 134.59375 C 63.460938 135.796875 63.570312 137 63.730469 138.167969 C 63.730469 138.167969 62.28125 136.015625 60.917969 133.78125 C 60.113281 132.449219 59.332031 131.09375 58.828125 130.21875 C 59.460938 131.949219 58.011719 133.480469 56.207031 135.542969 C 55.125 136.753906 53.875 138.132812 52.792969 139.785156 C 51.785156 141.453125 50.949219 143.398438 50.640625 145.660156 C 50.640625 145.660156 51.699219 143.90625 52.761719 142.148438 C 53.296875 141.28125 53.804688 140.414062 54.234375 139.777344 C 54.660156 139.140625 54.945312 138.71875 54.945312 138.71875 C 56.144531 140.71875 56.574219 143.019531 56.421875 145.5 C 56.234375 147.976562 55.71875 150.695312 55.082031 153.527344 C 54.917969 154.234375 54.753906 154.949219 54.589844 155.667969 C 54.457031 156.390625 54.324219 157.117188 54.191406 157.847656 C 53.9375 159.304688 53.714844 160.773438 53.566406 162.222656 C 53.308594 165.128906 53.519531 167.980469 54.355469 170.507812 C 54.589844 167.808594 54.839844 165.109375 57.015625 164.867188 C 57.207031 165.109375 57.351562 165.390625 57.472656 165.699219 C 57.460938 166.710938 57.527344 166.902344 57.757812 166.773438 C 57.929688 167.855469 57.855469 169.140625 57.621094 170.492188 C 57.265625 172.777344 56.597656 175.242188 55.902344 177.082031 C 55.621094 177.027344 55.355469 176.9375 55.101562 176.832031 C 54.8125 175.023438 54.941406 173.242188 56.183594 170.78125 C 56.183594 170.78125 55.101562 170.957031 54.015625 171.136719 C 52.929688 171.328125 51.839844 171.519531 51.839844 171.519531 C 51.867188 171.933594 51.910156 172.34375 51.949219 172.753906 C 51.949219 172.75 51.945312 172.746094 51.945312 172.742188 C 51.113281 170.449219 50.992188 167.554688 50.796875 164.769531 C 50.546875 159.214844 50.792969 154.097656 47.546875 154.886719 C 46.980469 157.828125 47.007812 160.75 47.480469 163.539062 C 48.011719 166.332031 48.816406 168.980469 49.695312 171.433594 C 50.625 173.894531 51.53125 176.160156 52.078125 178.242188 C 52.675781 180.324219 52.96875 182.226562 52.523438 184 C 52.523438 184 51.363281 182.59375 50.199219 181.191406 C 49.621094 180.472656 49.039062 179.753906 48.605469 179.214844 C 48.164062 178.667969 47.898438 178.300781 47.898438 178.300781 C 47.898438 178.300781 47.972656 178.65625 48.128906 179.191406 C 48.273438 179.722656 48.472656 180.429688 48.667969 181.136719 C 49.066406 182.542969 49.464844 183.945312 49.464844 183.945312 L 49.75 182.28125 C 51.613281 183.4375 51.515625 185.207031 51.226562 187.28125 C 50.964844 189.347656 50.421875 191.734375 51.179688 193.914062 C 51.179688 193.914062 49.988281 193.269531 48.792969 192.628906 C 47.601562 191.960938 46.410156 191.296875 46.410156 191.296875 C 46.410156 191.296875 46.441406 191.832031 46.492188 192.628906 C 46.558594 193.429688 46.585938 194.5 46.71875 195.5625 C 46.953125 197.691406 47.191406 199.820312 47.191406 199.820312 L 48.285156 198.589844 C 51.972656 211.921875 54.167969 223.222656 55.945312 235.945312 C 55.945312 235.945312 55.890625 235.472656 55.808594 234.765625 C 55.734375 234.054688 55.597656 233.125 55.542969 232.171875 C 55.414062 230.28125 55.28125 228.390625 55.28125 228.390625 C 56.355469 228.6875 57.785156 232.34375 58.46875 235.691406 C 59.597656 234.707031 59.054688 232.242188 58.792969 229.921875 C 58.539062 228.003906 58.328125 226.265625 58.988281 225.691406 C 59.582031 229.042969 60.308594 232.371094 61.167969 235.671875 C 61.214844 236.453125 61.246094 237.214844 61.261719 237.984375 C 61.296875 239.753906 61.414062 241.507812 61.625 243.597656 C 61.738281 244.636719 61.886719 245.753906 62.109375 246.980469 C 62.367188 248.1875 62.695312 249.503906 63.121094 250.964844 C 63.910156 251.054688 64.507812 249.75 65.238281 248.449219 C 66.070312 250.640625 66.96875 252.808594 67.925781 254.960938 C 67.199219 255.46875 66.070312 255.429688 64.101562 254.296875 C 67.410156 257.277344 67.523438 259.015625 67.738281 260.523438 C 67.953125 262.003906 68.351562 263.207031 72.09375 264.765625 C 71.453125 264.21875 70.980469 263.054688 70.523438 261.894531 C 70.625 261.5625 70.753906 261.339844 70.894531 261.171875 C 72.460938 264.230469 74.152344 267.238281 75.984375 270.183594 C 76.027344 272.695312 76.523438 275.207031 78.605469 278.480469 C 78.605469 278.480469 79.25 279.035156 80.21875 279.871094 C 81.1875 280.699219 82.550781 281.738281 83.878906 282.789062 C 84.890625 283.609375 85.921875 284.394531 86.8125 285.054688 C 87.5 285.871094 88.199219 286.679688 88.914062 287.480469 C 88.570312 287.757812 88.113281 287.835938 88.113281 287.835938 C 89.363281 288.84375 90.566406 289.910156 91.753906 290.992188 C 92.976562 292.042969 94.167969 293.121094 95.339844 294.21875 C 95.53125 294.40625 95.730469 294.578125 95.921875 294.761719 C 96.203125 295.03125 96.484375 295.296875 96.765625 295.566406 C 96.855469 296.167969 97.230469 296.753906 98.089844 297.230469 C 98.4375 297.410156 98.75 297.546875 99.027344 297.648438 C 99.058594 297.675781 99.09375 297.707031 99.128906 297.734375 C 100.203125 298.707031 101.273438 299.664062 102.3125 300.625 C 104.636719 302.636719 106.953125 304.515625 109.230469 306.117188 C 110.058594 306.660156 110.875 307.160156 111.683594 307.636719 C 114.96875 309.90625 118.335938 312.003906 121.773438 313.925781 C 121.773438 313.953125 121.777344 313.972656 121.777344 314 C 122.0625 314.140625 122.363281 314.265625 122.652344 314.402344 C 124.113281 315.199219 125.582031 315.972656 127.0625 316.710938 C 125.867188 316.964844 124.867188 317.175781 124.867188 317.175781 C 132.128906 320.730469 139.585938 325.679688 147.585938 329.433594 C 155.53125 333.210938 163.933594 335.84375 171.570312 335.214844 L 169.585938 331.582031 C 170.445312 331.65625 171.300781 331.75 172.144531 331.859375 C 172.992188 331.949219 173.839844 332.035156 174.675781 332.152344 C 176.351562 332.375 177.996094 332.65625 179.613281 332.972656 C 182.855469 333.496094 185.980469 334.183594 188.945312 334.691406 C 191.910156 335.132812 194.699219 335.636719 197.222656 335.675781 C 199.746094 335.734375 202 335.550781 203.859375 334.921875 C 198.945312 332.292969 200.734375 331.523438 203.960938 331.207031 C 207.207031 330.742188 212.007812 330.757812 213.363281 329.832031 C 212.128906 329.695312 210.828125 329.609375 209.488281 329.566406 C 208.148438 329.539062 206.773438 329.589844 205.390625 329.6875 C 202.628906 329.90625 199.84375 330.09375 197.347656 330.421875 C 193.023438 330.851562 189.554688 331.207031 188.78125 330.820312 L 189.082031 331.242188 C 189.082031 331.242188 187.949219 331.359375 186.25 331.421875 C 184.546875 331.5 182.265625 331.621094 179.96875 331.6875 C 177.667969 331.671875 175.367188 331.660156 173.640625 331.652344 C 172.769531 331.648438 172.046875 331.628906 171.542969 331.59375 C 171.039062 331.566406 170.75 331.550781 170.75 331.550781 L 171.332031 329.332031 C 186.265625 330.746094 201.402344 329.507812 215.980469 325.621094 C 215.988281 325.636719 215.988281 325.652344 215.992188 325.664062 C 215.992188 325.652344 215.992188 325.632812 215.992188 325.617188 C 217.390625 325.246094 218.785156 324.84375 220.171875 324.421875 C 220.210938 325.121094 220.222656 325.871094 220.234375 326.625 C 220.292969 330.488281 220.429688 334.5625 225.921875 332.347656 C 222.640625 332.019531 221.75 329.734375 222.125 327.503906 C 222.503906 325.246094 224.128906 323.140625 226.210938 322.804688 C 226.113281 322.746094 226.007812 322.644531 225.902344 322.527344 C 226.683594 322.246094 227.460938 321.964844 228.238281 321.667969 C 227.394531 323.375 227.972656 324.417969 229.265625 324.785156 C 230.339844 325.089844 231.902344 324.941406 233.386719 324.292969 C 235.121094 324.769531 234.558594 325.25 233.296875 325.765625 C 231.9375 326.304688 229.820312 326.882812 229.085938 327.625 C 236.46875 328.550781 233.515625 325.710938 235.363281 323.640625 C 236.679688 323.863281 238.339844 323.761719 240.144531 323.484375 C 242.007812 323.160156 244.035156 322.710938 245.949219 322.320312 C 247.519531 321.953125 249.019531 321.667969 250.332031 321.59375 C 249.828125 322.144531 249.625 323.132812 249.832031 324.839844 C 249.832031 324.839844 251.570312 324.359375 253.304688 323.882812 C 254.175781 323.640625 255.042969 323.398438 255.695312 323.214844 C 256.347656 323.035156 256.78125 322.902344 256.78125 322.902344 C 257.71875 325.832031 258.175781 327.292969 253.722656 328.414062 C 255.160156 329.238281 258.476562 326.265625 260.375 324.828125 L 258.691406 325.136719 C 259.300781 323.933594 260.804688 322.566406 262.015625 321.328125 C 258.925781 322.304688 255.597656 321.449219 253.207031 321.085938 C 252.679688 321.015625 252.199219 320.984375 251.773438 321.011719 C 253.023438 319.902344 253.476562 318.945312 253.628906 318.050781 C 253.785156 316.992188 253.484375 315.914062 253.289062 314.394531 C 254.464844 315.253906 256.132812 315.320312 257.757812 315.273438 C 259.386719 315.230469 261.039062 315.164062 262.292969 315.960938 C 263.65625 313.882812 265.078125 312.433594 266.613281 311.332031 C 268.144531 310.238281 269.796875 309.511719 271.371094 308.660156 C 272.953125 307.828125 274.566406 307.003906 275.996094 305.773438 C 276.421875 305.382812 276.832031 304.945312 277.226562 304.480469 C 277.214844 304.472656 277.238281 304.445312 277.292969 304.394531 C 278.160156 303.355469 278.9375 302.125 279.550781 300.574219 C 280.210938 300.667969 280.589844 300.84375 280.769531 301.066406 C 281.035156 300.78125 281.210938 300.59375 281.210938 300.59375 L 280.417969 300.546875 C 280.910156 298.65625 281.945312 296.855469 283.3125 295.175781 C 283.785156 294.585938 284.296875 294.003906 284.820312 293.421875 C 284.199219 293.773438 283.570312 294.09375 282.914062 294.363281 C 279.714844 295.644531 276.503906 296.386719 273.332031 296.738281 C 271.402344 296.984375 269.59375 297.179688 267.894531 297.398438 C 269.402344 296.039062 270.878906 294.632812 272.332031 293.1875 C 273.207031 293.800781 274.050781 294.390625 274.050781 294.390625 C 275.421875 292.824219 276.589844 291.203125 277.644531 289.535156 C 278.65625 287.914062 279.5 286.164062 280.355469 284.429688 C 283.148438 281.082031 285.742188 277.628906 288.132812 274.078125 L 288.691406 274.46875 C 288.632812 274.054688 289.449219 272.980469 290.773438 271.292969 C 291.445312 270.460938 292.265625 269.5 293.207031 268.429688 C 294.109375 267.328125 295.113281 266.097656 296.203125 264.765625 C 296.234375 264.726562 296.269531 264.679688 296.304688 264.640625 C 305.632812 254.601562 313.351562 243.042969 319.039062 230.375 C 319.082031 230.347656 319.121094 230.320312 319.164062 230.292969 C 319.816406 229.835938 320.453125 229.355469 320.871094 229.457031 C 321.277344 229.554688 321.472656 230.25 321.027344 232.105469 C 321.082031 233.175781 321.695312 230.429688 321.761719 227.265625 C 321.824219 226.148438 321.808594 224.988281 321.714844 223.933594 C 322.085938 222.972656 322.441406 222.003906 322.789062 221.03125 C 323.414062 222.363281 324.699219 223.109375 327.132812 222.929688 C 327.277344 219.371094 327.113281 216.445312 326.15625 215.332031 L 327.015625 215.980469 C 327.015625 215.980469 326.507812 214.292969 325.609375 212.035156 C 326.167969 210 326.671875 207.945312 327.125 205.867188 C 328.183594 207.742188 329.433594 208.871094 331.265625 207.914062 C 331.265625 207.914062 330.488281 206.269531 329.703125 204.621094 C 329.328125 203.808594 328.898438 203.003906 328.574219 202.402344 C 328.253906 201.800781 328.039062 201.402344 328.039062 201.402344 C 331.738281 203.644531 330.730469 195.089844 333.507812 196.6875 C 333.507812 196.6875 333.46875 196.40625 333.359375 195.917969 C 333.257812 195.429688 333.109375 194.730469 332.933594 193.894531 C 332.554688 192.226562 332.167969 190.003906 331.5625 187.816406 C 331.003906 185.726562 330.484375 183.667969 330.019531 182.078125 C 330.046875 181.015625 330.058594 179.953125 330.0625 178.886719 L 332.664062 178.179688 C 332.664062 178.179688 332.375 179.308594 332.085938 180.433594 C 331.9375 180.996094 331.792969 181.554688 331.679688 181.972656 C 331.558594 182.390625 331.476562 182.667969 331.476562 182.667969 C 333.664062 183.6875 334.644531 183.695312 334.941406 182.980469 C 335.257812 182.277344 334.835938 180.871094 334.214844 179.175781 Z M 77.394531 126.054688 C 77.800781 124.855469 78.199219 123.695312 78.484375 122.527344 C 78.554688 122.265625 78.609375 122.007812 78.671875 121.75 C 79.6875 121.066406 80.621094 121.375 81.398438 123.746094 C 81.398438 123.746094 79.914062 125.105469 78.429688 126.472656 C 77.652344 127.257812 76.878906 128.035156 76.335938 128.585938 C 76.742188 127.742188 77.105469 126.898438 77.394531 126.054688 Z M 79.449219 118.257812 C 79.644531 117.433594 79.835938 116.609375 80.039062 115.820312 C 80.199219 115.207031 80.371094 114.617188 80.558594 114.035156 C 80.863281 116.003906 80.367188 117.292969 79.449219 118.257812 Z M 86.390625 119.996094 C 86.960938 119.9375 87.621094 120.042969 88.402344 120.363281 C 87.675781 121.191406 86.960938 122.023438 86.261719 122.859375 C 86.269531 122.347656 86.28125 121.824219 86.3125 121.296875 C 86.339844 120.863281 86.363281 120.425781 86.390625 119.996094 Z M 68.820312 148.523438 C 69.023438 147.011719 69 145.316406 68.910156 143.558594 C 68.855469 141.332031 68.65625 139.007812 68.570312 136.914062 C 68.566406 136.652344 68.574219 136.40625 68.574219 136.152344 C 68.878906 135.464844 69.214844 134.871094 69.566406 134.441406 C 69.234375 134.542969 68.917969 134.691406 68.609375 134.859375 C 68.671875 133.652344 68.8125 132.585938 69.089844 131.796875 C 69.316406 132.484375 70.308594 131.085938 71.519531 129.535156 C 72.71875 129.957031 73.945312 128.234375 75.183594 126.246094 C 75.699219 126.332031 75.976562 127.128906 75.851562 129.074219 C 75.6875 129.242188 75.585938 129.339844 75.585938 129.339844 C 75.675781 129.339844 75.75 129.332031 75.835938 129.328125 C 75.824219 129.4375 75.820312 129.539062 75.808594 129.65625 C 75.871094 129.542969 75.914062 129.429688 75.972656 129.320312 C 78.054688 129.199219 79.394531 128.460938 80.425781 127.460938 C 81.527344 126.410156 82.21875 125.019531 82.863281 123.695312 C 83.433594 122.519531 84.011719 121.425781 84.785156 120.734375 C 84.753906 120.820312 84.726562 120.894531 84.695312 120.984375 C 84.351562 122.003906 84.042969 123.121094 83.707031 124.222656 C 83.40625 125.222656 83.113281 126.214844 82.828125 127.160156 C 82.304688 127.847656 81.78125 128.539062 81.273438 129.234375 C 81.125 129.285156 80.996094 129.316406 80.894531 129.320312 C 80.886719 129.46875 80.910156 129.589844 80.9375 129.703125 C 76.472656 135.871094 72.636719 142.351562 69.425781 149.054688 C 69.203125 148.898438 69.007812 148.71875 68.820312 148.523438 Z M 327.484375 150.636719 C 328.957031 153.101562 329.8125 155.847656 328.140625 156.671875 C 327.691406 154.128906 327.164062 151.617188 326.566406 149.128906 C 326.875 149.613281 327.1875 150.113281 327.484375 150.636719 Z M 250.996094 61.574219 C 250.914062 61.542969 250.835938 61.511719 250.757812 61.480469 C 250.789062 61.472656 250.824219 61.46875 250.859375 61.457031 C 250.90625 61.5 250.949219 61.535156 250.996094 61.574219 Z M 247.855469 58.972656 C 247.703125 58.855469 247.550781 58.746094 247.398438 58.628906 C 247.398438 58.628906 247.585938 58.777344 247.886719 59.015625 C 247.988281 59.160156 248.085938 59.3125 248.1875 59.464844 C 248.507812 59.960938 248.828125 60.472656 249.191406 60.863281 C 247.707031 60.292969 246.214844 59.746094 244.703125 59.226562 C 246.136719 57.164062 247.042969 57.820312 247.855469 58.972656 Z M 188.441406 46.109375 C 188.058594 46.175781 187.835938 46.214844 187.835938 46.214844 C 187.671875 46.011719 187.628906 45.789062 187.640625 45.574219 C 187.921875 45.761719 188.199219 45.945312 188.441406 46.109375 Z M 185.65625 44.277344 C 185.65625 44.277344 186 44.503906 186.472656 44.808594 C 186.1875 44.832031 185.902344 44.863281 185.617188 44.882812 C 185.636719 44.691406 185.648438 44.492188 185.65625 44.277344 Z M 117.9375 61.515625 C 117.65625 61.746094 117.382812 61.976562 117.109375 62.207031 C 117.046875 62.140625 117 62.082031 116.925781 62.011719 C 117.273438 61.8125 117.609375 61.652344 117.9375 61.515625 Z M 109.902344 67.671875 C 110.714844 67.417969 111.523438 67.199219 112.300781 66.992188 C 111.578125 67.929688 111.117188 68.769531 111.070312 69.445312 L 110.917969 68.378906 C 110.917969 68.378906 110.03125 70.019531 109.035156 72.363281 C 108.019531 74.691406 107.066406 77.878906 106.636719 80.746094 C 107.300781 78.878906 108.636719 77.144531 110.132812 75.539062 C 111.691406 74 113.402344 72.585938 114.785156 71.230469 C 116.976562 69.230469 118.40625 67.332031 117.277344 65.191406 C 118.136719 64.566406 118.351562 63.78125 117.570312 62.738281 C 118.878906 62.332031 119.90625 61.777344 120.808594 61.015625 C 122.242188 61.132812 123.40625 61.828125 124.175781 62.722656 C 123.675781 63.136719 123.144531 63.605469 122.613281 64.113281 C 120.265625 66.222656 118.0625 69.003906 118.585938 70.144531 C 119.660156 69.933594 120.652344 68.113281 121.933594 66.859375 C 123.1875 65.578125 124.589844 64.710938 126.140625 66.246094 C 129.535156 64.332031 128.210938 64.125 126.644531 63.824219 C 126.761719 63.746094 126.863281 63.675781 126.988281 63.59375 C 128.105469 62.882812 129.59375 61.9375 131.082031 60.992188 C 132.574219 60.019531 134.113281 59.144531 135.277344 58.492188 C 136.441406 57.835938 137.21875 57.394531 137.21875 57.394531 C 139.253906 58.695312 137.828125 63.933594 136.246094 64.097656 C 134.96875 64.46875 133.597656 65.226562 132.164062 66.070312 C 130.730469 66.917969 129.214844 67.796875 127.695312 68.644531 C 124.664062 70.355469 121.480469 71.484375 118.164062 70.585938 C 116.785156 72.769531 118.261719 73.421875 119.03125 74.199219 C 119.820312 75 119.867188 75.804688 116.011719 78.46875 C 110.457031 79.335938 105.238281 81.832031 100.488281 84.929688 C 100.660156 83.148438 101.699219 80.789062 102.589844 78.488281 C 103.953125 75.152344 105.085938 71.980469 102.207031 71.078125 C 102.207031 71.078125 101.597656 72.796875 100.984375 74.511719 C 100.863281 74.839844 100.753906 75.171875 100.648438 75.496094 C 99.207031 71.4375 104.710938 69.105469 109.902344 67.671875 Z M 96.496094 74.175781 C 97.109375 73.5625 97.636719 73.0625 98.015625 72.734375 C 98.390625 72.394531 98.609375 72.203125 98.609375 72.203125 L 100.605469 75.617188 C 100.457031 76.078125 100.324219 76.511719 100.214844 76.878906 C 100.015625 77.53125 99.886719 77.964844 99.886719 77.964844 C 98.90625 73.960938 94.023438 79.890625 92.839844 77.789062 C 94.183594 76.457031 95.480469 75.175781 96.496094 74.175781 Z M 85.867188 85.378906 C 85.867188 85.378906 86.582031 84.496094 87.742188 83.25 C 88.804688 82.085938 90.199219 80.539062 91.652344 78.992188 C 91.484375 79.246094 91.3125 79.511719 91.117188 79.8125 C 90.207031 81.261719 88.90625 83.105469 87.789062 85.082031 C 86.652344 87.042969 85.5 88.972656 84.695312 90.457031 C 83.917969 91.953125 83.398438 92.949219 83.398438 92.949219 L 80.859375 91.496094 C 81.28125 90.972656 81.695312 90.472656 82.089844 89.992188 C 82.125 89.972656 82.164062 89.949219 82.199219 89.925781 C 82.699219 89.636719 83.199219 89.34375 83.574219 89.128906 C 83.957031 88.917969 84.210938 88.777344 84.210938 88.777344 C 84.089844 88.445312 83.972656 88.15625 83.855469 87.886719 C 85.03125 86.527344 85.921875 85.621094 86.378906 85.464844 Z M 61.441406 153.878906 C 63.722656 146.941406 63.132812 156.378906 65.820312 153.785156 C 66.453125 153.460938 66.949219 153.03125 67.347656 152.519531 C 67.378906 152.835938 67.398438 153.160156 67.394531 153.496094 C 66.4375 155.710938 65.554688 157.949219 64.730469 160.203125 C 63.882812 160.578125 63.128906 160.269531 62.550781 159.457031 C 62.148438 158.894531 61.828125 158.097656 61.613281 157.136719 C 61.414062 156.179688 61.375 155.070312 61.441406 153.878906 Z M 148.832031 325.121094 C 149.417969 325.289062 150.007812 325.457031 150.597656 325.613281 C 150.597656 325.683594 150.589844 325.738281 150.589844 325.8125 C 149.921875 325.636719 149.339844 325.398438 148.832031 325.121094 Z M 162.128906 328.128906 C 164.882812 328.597656 167.648438 328.960938 170.421875 329.246094 C 168.484375 330.554688 165.300781 329.652344 162.128906 328.128906 Z M 233.183594 324.019531 C 232.816406 324.082031 232.460938 324.128906 232.125 324.128906 C 231.355469 324.113281 230.679688 323.960938 230.121094 323.710938 C 229.121094 323.257812 228.539062 322.476562 228.46875 321.589844 C 229.992188 321.007812 231.507812 320.394531 233.011719 319.75 C 232.761719 320.132812 232.605469 320.695312 232.582031 321.539062 C 232.808594 322.433594 233.394531 323.015625 234.242188 323.359375 C 233.859375 323.519531 233.503906 323.734375 233.183594 324.019531 Z M 236.253906 319.359375 C 235.671875 319.234375 235.085938 319.097656 234.554688 319.078125 C 236.007812 318.4375 237.449219 317.765625 238.882812 317.0625 C 239.394531 319.875 237.894531 319.71875 236.253906 319.359375 Z M 236.253906 319.359375 " fill-opacity="1" fill-rule="nonzero"/></g><path fill="#8f62d8" d="M 215.992188 325.675781 C 215.992188 326.222656 215.992188 326.59375 215.992188 326.59375 C 216.105469 326.25 216.082031 325.949219 215.992188 325.675781 Z M 215.992188 325.675781 " fill-opacity="1" fill-rule="nonzero"/><g clip-path="url(#82285a2345)"><path fill="#e1cfff" d="M 203.722656 260.390625 C 198.140625 260.296875 192.558594 260.285156 186.976562 260.09375 C 182.960938 259.945312 178.96875 259.566406 174.941406 259.304688 L 173.292969 259.246094 C 167.183594 258.8125 161.0625 258.46875 154.988281 257.894531 C 149.441406 257.371094 143.914062 256.625 138.390625 255.9375 C 133.675781 255.355469 128.941406 254.863281 124.25 254.074219 C 114.363281 252.582031 104.710938 250.152344 95.292969 246.789062 C 92.824219 245.859375 90.433594 244.683594 88.0625 243.515625 C 86.855469 242.875 85.605469 242.328125 84.3125 241.878906 C 80.375 240.640625 76.59375 239.039062 72.964844 237.074219 C 71.765625 236.421875 70.621094 235.679688 69.53125 234.855469 C 63.902344 230.429688 61.890625 224.558594 62.828125 217.582031 C 63.039062 216.304688 63.449219 215.09375 64.050781 213.945312 C 64.652344 212.800781 65.421875 211.777344 66.351562 210.875 C 68.058594 209.070312 69.988281 207.546875 72.140625 206.300781 C 77.191406 203.445312 82.53125 201.308594 88.15625 199.894531 C 94.007812 198.429688 99.921875 197.285156 105.898438 196.460938 C 108.1875 196.128906 110.382812 195.660156 112.605469 195.113281 C 115.691406 194.335938 118.863281 193.808594 122.007812 193.28125 C 126.515625 192.519531 131.027344 191.824219 135.542969 191.199219 C 138.789062 190.730469 142.0625 190.351562 145.324219 189.953125 C 148.226562 189.609375 151.121094 189.277344 154.027344 188.992188 C 155.171875 188.878906 156.40625 188.992188 157.597656 188.867188 C 165.285156 188.316406 173.054688 188.316406 180.832031 188.316406 C 183.761719 188.316406 186.691406 188.316406 189.617188 188.316406 C 192.179688 188.25 194.734375 188.351562 197.285156 188.625 C 198.988281 188.867188 200.714844 188.71875 202.488281 188.808594 C 205.40625 188.945312 208.324219 189.128906 211.242188 189.300781 C 211.886719 189.308594 212.523438 189.382812 213.152344 189.527344 C 213.792969 189.636719 214.347656 189.917969 214.808594 190.375 C 215.113281 190.773438 215.488281 191.085938 215.9375 191.308594 C 216.386719 191.527344 216.859375 191.636719 217.359375 191.632812 C 223.253906 192.378906 229.121094 193.191406 234.992188 194.128906 C 241.121094 195.179688 247.21875 196.324219 253.339844 197.46875 C 256.292969 198.007812 259.300781 198.328125 262.285156 198.738281 C 269.800781 199.753906 277.246094 201.140625 284.628906 202.902344 C 289.453125 203.972656 294.183594 205.367188 298.816406 207.089844 C 302.167969 208.339844 305.351562 209.929688 308.367188 211.859375 C 310.5 213.160156 312.332031 214.792969 313.859375 216.769531 C 314.566406 217.644531 315.152344 218.597656 315.613281 219.625 C 316.074219 220.652344 316.394531 221.722656 316.578125 222.835938 C 316.761719 223.949219 316.800781 225.0625 316.695312 226.1875 C 316.589844 227.308594 316.339844 228.398438 315.953125 229.457031 C 314.996094 232.164062 313.554688 234.585938 311.628906 236.71875 C 308.84375 239.804688 305.632812 242.347656 301.996094 244.351562 C 297.3125 246.878906 292.40625 248.847656 287.273438 250.253906 C 278.757812 252.730469 270.109375 254.585938 261.324219 255.8125 C 255.355469 256.636719 249.394531 257.539062 243.410156 258.332031 C 240.972656 258.652344 238.503906 258.800781 236.042969 258.992188 C 231.582031 259.347656 227.121094 259.714844 222.65625 259.988281 C 219.914062 260.160156 217.167969 260.230469 214.433594 260.265625 C 210.863281 260.265625 207.292969 260.265625 203.722656 260.265625 Z M 298.242188 244.832031 C 298.011719 244.800781 297.792969 244.835938 297.585938 244.9375 C 297.378906 245.039062 297.214844 245.191406 297.097656 245.390625 L 296.515625 245.644531 C 296.597656 245.644531 296.699219 245.710938 296.734375 245.644531 C 296.839844 245.527344 296.941406 245.40625 297.03125 245.277344 C 297.464844 245.277344 298.015625 245.414062 298.175781 244.726562 C 298.65625 244.726562 299.148438 244.867188 299.320312 244.257812 C 299.757812 244.183594 300.183594 244.066406 300.601562 243.902344 C 304.121094 242.089844 307.269531 239.769531 310.039062 236.9375 C 311.9375 235.039062 313.402344 232.851562 314.429688 230.371094 C 314.695312 229.753906 314.90625 229.121094 315.070312 228.46875 C 315.230469 227.820312 315.339844 227.160156 315.398438 226.492188 C 315.453125 225.824219 315.457031 225.15625 315.410156 224.484375 C 315.359375 223.816406 315.257812 223.15625 315.101562 222.503906 C 314.949219 221.851562 314.742188 221.214844 314.488281 220.59375 C 314.230469 219.976562 313.929688 219.378906 313.578125 218.808594 C 313.226562 218.234375 312.835938 217.695312 312.398438 217.1875 C 311.960938 216.679688 311.488281 216.207031 310.976562 215.773438 C 308.15625 213.40625 305.058594 211.5 301.675781 210.054688 C 295.59375 207.503906 289.316406 205.597656 282.84375 204.332031 C 282.121094 204.242188 281.398438 204.214844 280.671875 204.253906 C 280.492188 204.097656 280.292969 203.972656 280.078125 203.875 C 279.9375 203.816406 279.765625 203.875 279.605469 203.945312 C 279.734375 203.984375 279.863281 204.019531 279.996094 204.046875 L 280.738281 204.171875 C 281.347656 204.984375 282.363281 204.960938 283.1875 205.246094 C 288.054688 206.847656 292.820312 208.699219 297.488281 210.808594 C 300.832031 212.316406 303.988281 214.15625 306.949219 216.320312 C 309.207031 217.9375 311.085938 219.914062 312.589844 222.246094 C 313.589844 223.867188 313.972656 225.621094 313.734375 227.511719 C 313.582031 229.171875 313.042969 230.699219 312.121094 232.085938 C 311.199219 233.453125 310.183594 234.746094 309.078125 235.964844 C 306.546875 238.761719 303.699219 241.183594 300.53125 243.230469 C 300.085938 243.503906 299.5 243.664062 299.386719 244.292969 C 298.859375 244.234375 298.425781 244.304688 298.242188 244.832031 Z M 130.234375 251.421875 C 129.191406 250.664062 127.945312 251.042969 126.871094 250.972656 C 126.695312 250.996094 126.527344 251.046875 126.367188 251.121094 C 126.511719 251.195312 126.664062 251.25 126.824219 251.28125 C 127.96875 251.28125 129.113281 251.28125 130.253906 251.351562 C 130.542969 251.511719 130.828125 251.796875 131.136719 251.820312 C 132.476562 251.890625 133.824219 251.890625 135.175781 251.925781 C 135.457031 252.128906 135.769531 252.28125 136.101562 252.382812 C 137.804688 252.566406 139.535156 252.746094 141.238281 252.894531 C 143.871094 253.136719 146.476562 253.546875 149.121094 253.695312 C 151.582031 253.835938 154.027344 254.085938 156.488281 254.292969 L 168.488281 255.308594 C 169.402344 255.378906 170.320312 255.308594 171.234375 255.414062 C 174.871094 255.6875 178.5 256.054688 182.148438 256.25 C 187.160156 256.535156 192.179688 256.695312 197.203125 256.910156 C 201.859375 257.105469 206.515625 257.070312 211.183594 257.289062 C 217.476562 257.585938 223.769531 257.371094 230.105469 257.371094 C 230.746094 257.371094 231.386719 257.371094 232.027344 257.371094 C 236.125 257.039062 240.207031 256.683594 244.304688 256.339844 C 244.851562 256.339844 245.445312 256.339844 245.949219 256.269531 C 246.152344 256.226562 246.34375 256.148438 246.523438 256.042969 C 246.351562 255.992188 246.179688 255.957031 246.007812 255.929688 C 243.992188 255.929688 241.980469 255.824219 239.976562 255.835938 C 236.957031 255.835938 233.9375 255.972656 230.917969 255.972656 C 218.480469 255.972656 206.046875 256.144531 193.621094 255.449219 C 189.242188 255.207031 184.859375 255.296875 180.476562 254.921875 C 176.566406 254.589844 172.628906 254.519531 168.707031 254.316406 C 164.417969 254.074219 160.125 253.847656 155.847656 253.546875 C 152.5625 253.320312 149.292969 252.953125 146.019531 252.703125 C 144.480469 252.6875 142.949219 252.578125 141.421875 252.382812 C 139.34375 252.035156 137.253906 251.894531 135.152344 251.957031 C 134.792969 251.757812 134.410156 251.609375 134.007812 251.511719 C 132.726562 251.453125 131.480469 251.453125 130.234375 251.421875 Z M 95.089844 200.386719 C 94.367188 200.378906 93.644531 200.417969 92.925781 200.5 C 91.578125 200.75 90.25 201.09375 88.921875 201.425781 C 84.300781 202.570312 79.851562 204.183594 75.570312 206.265625 C 72.539062 207.664062 69.871094 209.570312 67.5625 211.984375 C 66.414062 213.199219 65.558594 214.59375 64.992188 216.164062 C 64.425781 217.738281 64.203125 219.355469 64.316406 221.023438 C 64.34375 222.292969 64.519531 223.535156 64.847656 224.761719 C 65.175781 225.984375 65.640625 227.15625 66.25 228.265625 C 66.855469 229.378906 67.585938 230.40625 68.4375 231.34375 C 69.292969 232.28125 70.242188 233.105469 71.292969 233.8125 C 73.804688 235.511719 76.472656 236.902344 79.300781 237.988281 C 79.394531 237.988281 79.484375 238.082031 79.5625 238.058594 C 79.726562 238.019531 79.882812 237.960938 80.035156 237.886719 C 80.007812 237.800781 79.96875 237.722656 79.917969 237.648438 C 78.105469 235.679688 76.675781 233.460938 75.628906 231 C 74.402344 228.097656 73.890625 225.074219 74.097656 221.925781 C 74.261719 220.28125 74.65625 218.691406 75.285156 217.160156 C 75.914062 215.628906 76.75 214.222656 77.792969 212.9375 C 80.667969 209.304688 84.140625 206.382812 88.214844 204.171875 C 90.101562 203.027344 92.089844 202.136719 94.023438 201.117188 C 94.414062 200.910156 94.929688 200.878906 95.042969 200.316406 L 95.214844 200.15625 Z M 164.632812 194.757812 L 164.632812 194.976562 C 160.058594 194.976562 155.480469 194.976562 150.90625 194.976562 C 146.054688 194.976562 141.214844 194.835938 136.363281 195.285156 C 132.464844 195.636719 128.515625 195.683594 124.605469 196.027344 C 120.246094 196.417969 115.886719 196.953125 111.539062 197.46875 C 109.898438 197.609375 108.277344 197.875 106.675781 198.269531 C 103.246094 199.230469 99.8125 200.25 96.496094 201.460938 C 91.792969 203.105469 87.484375 205.472656 83.570312 208.554688 C 81.011719 210.554688 78.917969 212.960938 77.289062 215.773438 C 76.011719 217.949219 75.347656 220.296875 75.296875 222.820312 C 75.273438 224.855469 75.621094 226.820312 76.339844 228.722656 C 77.0625 230.625 78.105469 232.332031 79.472656 233.835938 C 82.355469 236.96875 85.703125 239.480469 89.515625 241.375 C 90.25 241.734375 91.015625 242.015625 91.804688 242.222656 C 99.539062 244.449219 107.375 246.21875 115.316406 247.53125 C 123.597656 248.949219 131.9375 249.980469 140.300781 250.769531 C 144.875 251.203125 149.453125 251.546875 153.960938 251.914062 C 157.78125 252.175781 161.613281 252.371094 165.398438 252.574219 C 166.542969 252.644531 167.78125 252.574219 168.96875 252.714844 C 173.066406 252.988281 177.160156 253.367188 181.265625 253.558594 C 187.558594 253.847656 193.851562 254.027344 200.179688 254.210938 C 205.898438 254.394531 211.699219 254.636719 217.453125 254.636719 C 225.460938 254.636719 233.355469 254.773438 241.316406 254.394531 C 247.882812 254.085938 254.449219 253.855469 261.015625 253.25 C 265.660156 252.839844 270.273438 252.253906 274.859375 251.441406 C 282.585938 250.140625 289.894531 247.621094 296.777344 243.882812 C 301.640625 241.21875 305.835938 237.746094 309.363281 233.472656 C 310.117188 232.546875 310.742188 231.542969 311.238281 230.460938 C 311.605469 229.765625 311.859375 229.035156 311.996094 228.261719 C 312.136719 227.488281 312.152344 226.710938 312.050781 225.933594 C 311.949219 225.152344 311.730469 224.410156 311.398438 223.699219 C 311.0625 222.988281 310.628906 222.34375 310.09375 221.765625 C 308.421875 219.820312 306.515625 218.140625 304.375 216.722656 C 300.757812 214.367188 296.941406 212.390625 292.933594 210.785156 C 284.617188 207.429688 276.105469 204.667969 267.402344 202.503906 C 262.023438 201.007812 256.5625 199.945312 251.019531 199.308594 C 245.835938 198.796875 240.652344 198.167969 235.472656 197.789062 C 230.003906 197.332031 224.535156 196.988281 219.066406 196.644531 C 214.136719 196.335938 209.203125 196.105469 204.273438 195.84375 C 199.070312 195.558594 193.875 195.15625 188.667969 195.03125 C 180.730469 194.824219 172.6875 194.824219 164.632812 194.757812 Z M 181.347656 191.40625 C 173.40625 191.542969 165.457031 191.3125 157.527344 192.023438 C 154.097656 191.839844 150.664062 192.5625 147.234375 192.765625 C 147.050781 192.800781 146.878906 192.847656 146.707031 192.914062 C 146.863281 192.992188 147.027344 193.046875 147.199219 193.074219 C 150.628906 193.074219 153.960938 193.074219 157.335938 193.074219 C 159.429688 193.074219 161.53125 192.8125 163.625 192.824219 C 172.574219 192.824219 181.53125 192.582031 190.476562 193.121094 C 194.9375 193.394531 199.410156 193.234375 203.882812 193.660156 C 207.144531 193.96875 210.441406 193.875 213.710938 194.242188 C 216.527344 194.550781 219.375 194.335938 222.1875 194.757812 C 223.375 194.855469 224.5625 194.855469 225.746094 194.757812 C 225.976562 194.714844 226.195312 194.644531 226.410156 194.550781 C 226.238281 194.492188 226.0625 194.445312 225.882812 194.414062 C 225.164062 194.335938 224.429688 194.3125 223.710938 194.207031 C 221.421875 193.875 219.203125 193.464844 216.949219 193.179688 C 214.238281 192.835938 211.503906 192.5625 208.78125 192.308594 C 206.058594 192.058594 203.449219 191.75 200.808594 191.75 C 194.320312 191.554688 187.835938 191.507812 181.347656 191.40625 Z M 123.207031 250.734375 L 124.351562 250.734375 C 124.46875 250.734375 124.570312 250.621094 124.671875 250.5625 C 124.589844 250.527344 124.5 250.507812 124.410156 250.492188 L 122.234375 250.492188 C 122.144531 250.507812 122.054688 250.539062 121.972656 250.585938 C 122.125 250.667969 122.285156 250.734375 122.453125 250.78125 C 122.707031 250.78125 122.957031 250.765625 123.207031 250.734375 Z M 119.101562 250.160156 C 119.398438 250.160156 119.664062 250.160156 119.925781 250.160156 C 120.0625 250.128906 120.191406 250.078125 120.3125 250.011719 C 120.148438 249.96875 119.980469 249.933594 119.8125 249.910156 C 119.546875 249.894531 119.285156 249.894531 119.023438 249.910156 C 118.882812 249.949219 118.75 250.011719 118.632812 250.09375 Z M 249.382812 255.597656 C 249.382812 255.597656 249.382812 255.46875 249.382812 255.46875 C 249.175781 255.480469 248.96875 255.503906 248.765625 255.539062 C 248.828125 255.582031 248.894531 255.613281 248.96875 255.628906 Z M 117.054688 249.429688 L 116.8125 249.429688 L 117.03125 249.5 Z M 115.347656 249.429688 L 115.347656 249.542969 L 115.589844 249.542969 Z M 115.347656 249.429688 " fill-opacity="1" fill-rule="nonzero"/></g><g fill="#ffffff" fill-opacity="1"><g transform="translate(103.492308, 232.854253)"><g><path d="M 8.566406 -8.679688 C 11.878906 -8.679688 15.988281 -13.476562 17.929688 -16.101562 C 25.351562 -25.125 31.632812 -34.832031 38.144531 -44.539062 C 38.488281 -44.996094 38.601562 -45.339844 38.601562 -45.683594 C 38.601562 -46.136719 38.488281 -46.480469 38.144531 -46.59375 C 38.03125 -46.710938 37.914062 -46.710938 37.800781 -46.710938 C 37.574219 -46.710938 37.34375 -46.59375 37.117188 -46.367188 L 33.917969 -41.800781 C 28.78125 -34.03125 23.753906 -26.609375 17.929688 -19.300781 C 15.761719 -16.445312 12.335938 -12.105469 9.136719 -10.277344 C 8.679688 -10.164062 8.335938 -10.050781 7.878906 -10.050781 C 7.308594 -10.050781 6.851562 -10.277344 6.28125 -10.847656 C 4.566406 -12.5625 2.855469 -18.273438 2.511719 -20.785156 C 2.398438 -22.042969 2.167969 -23.296875 2.054688 -24.554688 C 1.941406 -25.808594 1.828125 -26.953125 1.941406 -27.980469 C 1.941406 -44.882812 8.449219 -68.867188 22.15625 -79.601562 C 24.097656 -81.3125 27.179688 -83.140625 29.808594 -83.140625 C 30.378906 -83.140625 30.605469 -82.796875 30.492188 -82.226562 C 30.035156 -80.515625 29.007812 -79.371094 27.75 -78.34375 C 27.410156 -78 27.179688 -77.773438 26.839844 -77.542969 C 26.496094 -77.316406 26.265625 -77.089844 25.925781 -76.746094 C 25.582031 -76.402344 25.808594 -75.945312 26.152344 -75.832031 C 26.265625 -75.71875 26.496094 -75.71875 26.839844 -75.71875 C 26.953125 -75.71875 27.066406 -75.71875 27.179688 -75.832031 C 29.351562 -77.089844 30.835938 -78.6875 31.75 -80.972656 C 32.664062 -83.140625 31.0625 -85.082031 28.78125 -85.082031 L 28.4375 -85.082031 C 16.101562 -82.113281 7.195312 -64.867188 3.769531 -52.992188 C 1.941406 -47.167969 1.140625 -41.34375 0.34375 -35.402344 C -0.113281 -30.722656 -0.113281 -26.265625 0.457031 -22.042969 C 1.140625 -17.015625 2.855469 -8.679688 8.566406 -8.679688 Z M 8.566406 -8.679688 "/></g></g></g><g fill="#ffffff" fill-opacity="1"><g transform="translate(139.463848, 232.854253)"><g><path d="M 1.140625 -10.734375 C 1.484375 -10.847656 1.714844 -11.191406 1.714844 -11.535156 C 1.828125 -12.335938 1.941406 -12.90625 1.941406 -13.363281 C 2.054688 -14.390625 2.167969 -15.304688 2.285156 -16.332031 C 2.285156 -17.246094 2.398438 -18.273438 2.511719 -19.300781 C 3.539062 -27.636719 5.9375 -35.632812 9.707031 -43.285156 C 10.050781 -43.855469 10.277344 -44.539062 11.078125 -45.109375 C 11.191406 -44.769531 11.304688 -44.539062 11.304688 -44.3125 C 11.304688 -44.082031 11.304688 -43.855469 11.191406 -43.625 L 10.507812 -38.945312 C 10.164062 -37.574219 10.050781 -36.203125 10.394531 -34.945312 C 10.734375 -33.234375 11.648438 -32.320312 12.90625 -32.320312 C 13.476562 -32.320312 13.933594 -32.433594 14.503906 -32.777344 C 16.675781 -34.03125 18.617188 -35.289062 20.441406 -37.003906 C 21.8125 -38.257812 23.183594 -39.628906 24.667969 -40.886719 C 26.039062 -42.140625 27.410156 -43.398438 28.78125 -44.652344 L 29.121094 -44.996094 C 29.351562 -45.339844 29.351562 -45.566406 29.007812 -45.910156 C 28.664062 -46.253906 28.4375 -46.480469 28.09375 -46.367188 C 27.636719 -46.136719 27.179688 -45.796875 26.839844 -45.453125 C 25.125 -43.96875 23.527344 -42.484375 21.925781 -40.886719 C 20.898438 -39.972656 19.871094 -39.058594 18.84375 -38.144531 C 17.816406 -37.230469 16.675781 -36.429688 15.53125 -35.632812 C 14.730469 -35.0625 14.046875 -34.605469 13.246094 -34.261719 C 13.132812 -34.148438 13.019531 -34.148438 12.789062 -34.148438 C 12.5625 -34.148438 12.335938 -34.375 12.21875 -34.71875 C 12.105469 -36.546875 12.105469 -38.257812 12.449219 -40.085938 C 12.5625 -41.34375 12.789062 -42.484375 13.019531 -43.625 C 13.246094 -44.769531 13.476562 -45.910156 13.589844 -47.167969 C 13.703125 -47.964844 13.703125 -48.535156 13.363281 -48.992188 C 13.019531 -49.566406 12.5625 -49.792969 12.21875 -49.792969 C 11.878906 -49.792969 11.535156 -49.566406 11.191406 -49.109375 C 7.082031 -44.769531 2.855469 -31.179688 1.714844 -25.46875 C 1.597656 -24.78125 1.484375 -24.097656 1.371094 -23.527344 C 1.257812 -22.839844 1.027344 -22.15625 0.914062 -21.46875 C 0.914062 -21.128906 0.683594 -21.011719 0.34375 -21.011719 C 0.226562 -21.011719 0.113281 -21.128906 0.113281 -21.355469 C 0.113281 -26.039062 0.914062 -39.972656 3.539062 -44.082031 C 4.566406 -45.910156 5.597656 -47.738281 6.625 -49.679688 C 10.394531 -56.644531 14.160156 -63.613281 18.160156 -70.578125 C 20.328125 -74.234375 22.15625 -77.886719 24.097656 -81.65625 C 24.898438 -83.027344 25.46875 -84.398438 25.808594 -85.882812 C 25.925781 -86.796875 25.925781 -87.59375 25.695312 -88.28125 C 25.351562 -89.078125 25.011719 -89.421875 24.441406 -89.421875 C 24.097656 -89.421875 23.753906 -89.308594 23.410156 -89.078125 C 19.871094 -87.023438 14.503906 -78.6875 12.675781 -74.917969 C 5.140625 -60.414062 -0.800781 -42.941406 -1.714844 -26.496094 C -1.941406 -22.269531 -1.597656 -17.816406 -0.800781 -13.363281 C -0.683594 -13.019531 -0.683594 -12.675781 -0.683594 -12.335938 C -0.570312 -11.992188 -0.457031 -11.648438 -0.34375 -11.304688 C -0.226562 -10.964844 0.34375 -10.734375 1.140625 -10.734375 Z M 5.367188 -51.847656 C 7.878906 -63.269531 14.847656 -77.316406 22.726562 -86.109375 C 23.070312 -86.453125 23.410156 -86.679688 23.867188 -86.679688 C 24.324219 -85.882812 23.867188 -85.3125 23.527344 -84.738281 C 22.613281 -82.570312 21.699219 -80.515625 20.441406 -78.574219 C 17.246094 -72.632812 13.933594 -66.695312 10.621094 -60.757812 L 6.851562 -53.90625 C 6.507812 -53.105469 6.28125 -52.304688 5.367188 -51.847656 Z M 5.367188 -51.847656 "/></g></g></g><g fill="#ffffff" fill-opacity="1"><g transform="translate(166.071371, 232.854253)"><g><path d="M 10.734375 -26.382812 C 11.078125 -26.382812 11.535156 -26.496094 11.992188 -26.722656 C 13.019531 -27.179688 13.933594 -27.867188 14.730469 -28.664062 C 15.304688 -29.238281 15.875 -29.921875 16.445312 -30.492188 C 17.015625 -31.0625 17.585938 -31.632812 18.160156 -32.207031 C 19.871094 -34.148438 21.585938 -36.089844 23.070312 -38.144531 C 24.554688 -40.199219 26.039062 -42.253906 27.523438 -44.195312 C 27.75 -44.539062 27.867188 -44.769531 27.980469 -45.109375 C 28.09375 -45.453125 28.09375 -45.796875 27.75 -46.136719 C 27.636719 -46.253906 27.523438 -46.253906 27.410156 -46.253906 C 27.179688 -46.253906 26.953125 -46.136719 26.839844 -46.023438 L 23.753906 -42.253906 C 22.5 -40.65625 21.355469 -39.058594 20.214844 -37.574219 C 18.957031 -35.972656 17.703125 -34.488281 16.445312 -33.003906 C 15.761719 -32.089844 11.304688 -27.867188 10.507812 -27.867188 C 10.277344 -27.867188 10.164062 -27.867188 10.050781 -27.980469 C 9.136719 -28.324219 9.25 -29.238281 9.25 -30.035156 C 9.136719 -32.320312 9.480469 -34.605469 9.9375 -36.886719 C 10.964844 -42.253906 12.90625 -47.167969 15.304688 -52.078125 C 15.644531 -52.761719 16.101562 -53.449219 16.445312 -54.132812 C 16.789062 -54.816406 17.246094 -55.503906 17.585938 -56.304688 C 17.929688 -57.101562 18.042969 -57.789062 17.703125 -58.359375 C 17.585938 -58.816406 17.015625 -59.042969 16.675781 -59.042969 C 16.445312 -59.042969 16.332031 -59.042969 16.21875 -58.929688 C 15.417969 -58.359375 14.847656 -57.902344 14.277344 -57.101562 C 13.703125 -56.304688 13.132812 -55.617188 12.5625 -54.933594 C 11.992188 -54.132812 11.304688 -53.449219 10.734375 -52.648438 C 10.277344 -52.191406 9.9375 -51.964844 9.59375 -51.964844 L 9.136719 -52.078125 C 8.90625 -52.191406 8.566406 -52.191406 8.109375 -52.191406 C 4.566406 -52.191406 1.371094 -46.824219 0.34375 -43.742188 C 0 -42.941406 0 -42.140625 0.113281 -41.113281 C 0.226562 -39.972656 0.914062 -39.402344 1.941406 -39.402344 C 2.398438 -39.402344 2.855469 -39.515625 3.199219 -39.855469 C 3.769531 -40.429688 4.339844 -41 4.910156 -41.683594 C 5.480469 -42.371094 5.9375 -43.054688 6.507812 -43.742188 C 7.421875 -44.996094 8.335938 -46.136719 9.25 -47.394531 C 10.050781 -48.652344 10.964844 -49.792969 11.878906 -51.050781 C 12.105469 -51.621094 12.449219 -51.964844 12.90625 -52.304688 C 13.019531 -52.417969 13.132812 -52.535156 13.246094 -52.535156 C 13.363281 -52.535156 13.476562 -52.417969 13.820312 -52.304688 C 11.761719 -50.933594 9.023438 -40.3125 8.449219 -37.914062 C 7.878906 -35.519531 7.539062 -33.121094 7.652344 -30.722656 C 7.765625 -30.265625 7.765625 -29.808594 7.878906 -29.351562 C 7.878906 -28.894531 7.996094 -28.4375 8.222656 -28.09375 C 8.792969 -26.953125 9.59375 -26.382812 10.734375 -26.382812 Z M 2.167969 -41.800781 C 2.054688 -41.914062 1.941406 -42.140625 1.828125 -42.253906 L 1.941406 -42.710938 C 2.742188 -45.910156 4.910156 -48.992188 7.996094 -50.476562 C 8.222656 -50.59375 8.449219 -50.476562 8.566406 -50.363281 C 8.566406 -50.023438 8.566406 -49.90625 8.566406 -49.90625 L 6.507812 -46.824219 C 5.253906 -45.339844 4.113281 -43.742188 2.855469 -42.253906 C 2.742188 -42.140625 2.742188 -42.027344 2.625 -42.027344 C 2.511719 -42.027344 2.285156 -41.914062 2.167969 -41.800781 Z M 2.167969 -41.800781 "/></g></g></g><g fill="#ffffff" fill-opacity="1"><g transform="translate(191.422739, 232.854253)"><g><path d="M 34.375 -3.3125 C 34.945312 -3.3125 35.175781 -3.65625 35.175781 -4.453125 L 35.175781 -6.28125 C 35.0625 -8.679688 34.945312 -10.964844 34.832031 -13.246094 C 34.71875 -15.53125 34.488281 -17.816406 34.375 -20.214844 C 34.03125 -27.410156 33.917969 -34.375 34.261719 -41.683594 L 35.289062 -62.011719 C 35.402344 -63.726562 35.402344 -65.554688 35.402344 -67.265625 C 35.402344 -68.980469 35.402344 -70.691406 35.519531 -72.40625 C 35.519531 -74.347656 35.519531 -74.460938 37.460938 -75.03125 C 49.335938 -79.03125 61.328125 -82 73.660156 -84.855469 C 74.574219 -85.195312 75.488281 -85.425781 76.402344 -85.769531 C 77.203125 -86.109375 77.660156 -86.910156 77.542969 -87.9375 C 77.429688 -88.507812 76.972656 -89.078125 76.289062 -89.652344 C 72.40625 -91.820312 63.726562 -92.734375 59.273438 -92.734375 C 52.304688 -92.734375 45.339844 -91.820312 38.828125 -89.421875 C 34.148438 -87.480469 33.917969 -83.371094 33.917969 -78.800781 C 33.917969 -75.832031 34.03125 -75.945312 31.292969 -75.03125 C 23.527344 -72.175781 5.253906 -64.753906 0.226562 -58.015625 C -0.226562 -57.214844 0 -56.417969 0.914062 -56.074219 C 1.027344 -55.960938 1.257812 -55.960938 1.484375 -55.960938 C 1.828125 -55.960938 2.054688 -56.074219 2.398438 -56.304688 C 2.96875 -56.53125 3.082031 -56.875 2.855469 -57.332031 C 2.742188 -57.902344 2.855469 -58.359375 3.425781 -58.699219 C 8.792969 -64.070312 25.125 -70.578125 32.207031 -73.207031 C 32.664062 -73.320312 33.003906 -73.433594 33.121094 -73.433594 C 33.347656 -73.433594 33.460938 -73.433594 33.574219 -73.320312 C 33.691406 -72.976562 33.804688 -72.75 33.804688 -72.40625 C 33.804688 -72.0625 33.804688 -71.835938 33.804688 -71.492188 C 33.804688 -68.410156 33.691406 -65.4375 33.460938 -62.46875 C 33.234375 -59.386719 33.003906 -56.417969 32.890625 -53.332031 C 32.546875 -48.765625 32.320312 -44.3125 32.207031 -39.855469 C 31.863281 -29.808594 32.089844 -19.984375 32.664062 -9.9375 C 32.777344 -8.90625 32.890625 -7.996094 33.003906 -7.082031 C 33.121094 -6.167969 33.234375 -5.253906 33.121094 -4.339844 C 33.003906 -3.539062 33.574219 -3.199219 34.375 -3.3125 Z M 36.089844 -76.859375 C 35.746094 -76.859375 35.632812 -76.972656 35.519531 -77.316406 C 35.402344 -79.714844 35.402344 -82.113281 36.203125 -84.398438 C 36.773438 -85.652344 37.6875 -86.566406 39.058594 -87.136719 C 43.742188 -89.652344 54.363281 -90.792969 59.613281 -90.792969 C 64.527344 -90.679688 69.207031 -90.222656 73.660156 -88.851562 C 74.117188 -88.738281 74.574219 -88.507812 74.917969 -88.394531 C 75.148438 -88.28125 75.261719 -88.164062 75.261719 -87.9375 C 75.261719 -87.710938 75.148438 -87.59375 75.03125 -87.59375 C 73.777344 -87.136719 72.75 -86.796875 71.492188 -86.453125 C 60.070312 -83.824219 48.765625 -80.972656 37.6875 -77.316406 C 37.460938 -77.203125 37.230469 -77.089844 37.003906 -77.089844 C 36.773438 -76.972656 36.546875 -76.972656 36.429688 -76.859375 Z M 36.089844 -76.859375 "/></g></g></g><g fill="#ffffff" fill-opacity="1"><g transform="translate(235.958928, 232.854253)"><g><path d="M 10.734375 -26.382812 C 11.078125 -26.382812 11.535156 -26.496094 11.992188 -26.722656 C 13.019531 -27.179688 13.933594 -27.867188 14.730469 -28.664062 C 15.304688 -29.238281 15.875 -29.921875 16.445312 -30.492188 C 17.015625 -31.0625 17.585938 -31.632812 18.160156 -32.207031 C 19.871094 -34.148438 21.585938 -36.089844 23.070312 -38.144531 C 24.554688 -40.199219 26.039062 -42.253906 27.523438 -44.195312 C 27.75 -44.539062 27.867188 -44.769531 27.980469 -45.109375 C 28.09375 -45.453125 28.09375 -45.796875 27.75 -46.136719 C 27.636719 -46.253906 27.523438 -46.253906 27.410156 -46.253906 C 27.179688 -46.253906 26.953125 -46.136719 26.839844 -46.023438 L 23.753906 -42.253906 C 22.5 -40.65625 21.355469 -39.058594 20.214844 -37.574219 C 18.957031 -35.972656 17.703125 -34.488281 16.445312 -33.003906 C 15.761719 -32.089844 11.304688 -27.867188 10.507812 -27.867188 C 10.277344 -27.867188 10.164062 -27.867188 10.050781 -27.980469 C 9.136719 -28.324219 9.25 -29.238281 9.25 -30.035156 C 9.136719 -32.320312 9.480469 -34.605469 9.9375 -36.886719 C 10.964844 -42.253906 12.90625 -47.167969 15.304688 -52.078125 C 15.644531 -52.761719 16.101562 -53.449219 16.445312 -54.132812 C 16.789062 -54.816406 17.246094 -55.503906 17.585938 -56.304688 C 17.929688 -57.101562 18.042969 -57.789062 17.703125 -58.359375 C 17.585938 -58.816406 17.015625 -59.042969 16.675781 -59.042969 C 16.445312 -59.042969 16.332031 -59.042969 16.21875 -58.929688 C 15.417969 -58.359375 14.847656 -57.902344 14.277344 -57.101562 C 13.703125 -56.304688 13.132812 -55.617188 12.5625 -54.933594 C 11.992188 -54.132812 11.304688 -53.449219 10.734375 -52.648438 C 10.277344 -52.191406 9.9375 -51.964844 9.59375 -51.964844 L 9.136719 -52.078125 C 8.90625 -52.191406 8.566406 -52.191406 8.109375 -52.191406 C 4.566406 -52.191406 1.371094 -46.824219 0.34375 -43.742188 C 0 -42.941406 0 -42.140625 0.113281 -41.113281 C 0.226562 -39.972656 0.914062 -39.402344 1.941406 -39.402344 C 2.398438 -39.402344 2.855469 -39.515625 3.199219 -39.855469 C 3.769531 -40.429688 4.339844 -41 4.910156 -41.683594 C 5.480469 -42.371094 5.9375 -43.054688 6.507812 -43.742188 C 7.421875 -44.996094 8.335938 -46.136719 9.25 -47.394531 C 10.050781 -48.652344 10.964844 -49.792969 11.878906 -51.050781 C 12.105469 -51.621094 12.449219 -51.964844 12.90625 -52.304688 C 13.019531 -52.417969 13.132812 -52.535156 13.246094 -52.535156 C 13.363281 -52.535156 13.476562 -52.417969 13.820312 -52.304688 C 11.761719 -50.933594 9.023438 -40.3125 8.449219 -37.914062 C 7.878906 -35.519531 7.539062 -33.121094 7.652344 -30.722656 C 7.765625 -30.265625 7.765625 -29.808594 7.878906 -29.351562 C 7.878906 -28.894531 7.996094 -28.4375 8.222656 -28.09375 C 8.792969 -26.953125 9.59375 -26.382812 10.734375 -26.382812 Z M 2.167969 -41.800781 C 2.054688 -41.914062 1.941406 -42.140625 1.828125 -42.253906 L 1.941406 -42.710938 C 2.742188 -45.910156 4.910156 -48.992188 7.996094 -50.476562 C 8.222656 -50.59375 8.449219 -50.476562 8.566406 -50.363281 C 8.566406 -50.023438 8.566406 -49.90625 8.566406 -49.90625 L 6.507812 -46.824219 C 5.253906 -45.339844 4.113281 -43.742188 2.855469 -42.253906 C 2.742188 -42.140625 2.742188 -42.027344 2.625 -42.027344 C 2.511719 -42.027344 2.285156 -41.914062 2.167969 -41.800781 Z M 2.167969 -41.800781 "/></g></g></g><g fill="#ffffff" fill-opacity="1"><g transform="translate(261.310296, 232.854253)"><g><path d="M 5.710938 -6.738281 C 6.054688 -6.738281 6.28125 -6.738281 6.394531 -6.851562 C 6.738281 -6.964844 6.851562 -7.308594 6.851562 -7.765625 C 6.851562 -8.109375 6.738281 -8.449219 6.625 -8.792969 L 6.394531 -9.023438 C 4.453125 -10.164062 3.425781 -17.359375 3.082031 -20.101562 C 2.285156 -27.066406 1.828125 -34.03125 2.398438 -41.226562 C 2.742188 -43.054688 2.855469 -44.652344 3.65625 -46.367188 C 8.792969 -56.875 13.933594 -67.609375 17.472656 -78.6875 C 17.703125 -79.488281 17.929688 -80.398438 18.160156 -81.199219 C 18.273438 -82 18.5 -82.796875 18.730469 -83.597656 C 18.84375 -84.625 18.730469 -85.3125 18.386719 -85.882812 C 18.160156 -86.453125 17.816406 -86.796875 17.246094 -86.796875 C 16.902344 -86.796875 16.558594 -86.679688 16.21875 -86.453125 C 15.761719 -86.109375 15.417969 -85.652344 15.074219 -85.082031 C 14.730469 -84.511719 14.277344 -84.054688 13.933594 -83.484375 C 6.167969 -72.175781 2.511719 -58.929688 1.027344 -45.566406 C 0.914062 -44.996094 0.683594 -44.425781 0.34375 -43.96875 C 0 -43.511719 -0.113281 -42.941406 0.113281 -42.371094 C 0.457031 -41.113281 0.457031 -39.855469 0.457031 -38.601562 L 0.457031 -32.777344 C 0.34375 -28.550781 0.570312 -24.324219 1.140625 -20.214844 C 1.828125 -16.21875 2.511719 -10.394531 4.566406 -7.308594 C 4.683594 -6.964844 5.140625 -6.738281 5.710938 -6.738281 Z M 4.226562 -52.191406 C 3.996094 -52.417969 3.996094 -52.875 4.113281 -53.449219 C 6.054688 -63.953125 9.480469 -75.03125 16.21875 -83.710938 C 16.332031 -83.824219 16.445312 -83.824219 16.558594 -83.941406 C 16.675781 -84.054688 16.789062 -83.941406 16.902344 -83.824219 C 17.015625 -83.710938 17.015625 -83.597656 17.015625 -83.371094 C 14.160156 -72.75 9.707031 -62.925781 4.796875 -52.875 C 4.683594 -52.761719 4.683594 -52.535156 4.683594 -52.417969 C 4.566406 -52.191406 4.453125 -52.078125 4.226562 -52.191406 Z M 4.226562 -52.191406 "/></g></g></g><g fill="#ffffff" fill-opacity="1"><g transform="translate(271.587879, 232.854253)"><g><path d="M -2.285156 -10.394531 C -1.484375 -10.394531 -1.371094 -11.078125 -1.027344 -11.648438 L 1.027344 -19.414062 C 1.597656 -21.128906 2.167969 -22.957031 2.742188 -24.78125 C 3.3125 -26.609375 3.769531 -28.4375 4.339844 -30.148438 L 5.023438 -31.863281 C 5.140625 -32.207031 5.480469 -32.433594 5.824219 -32.433594 C 5.9375 -32.433594 6.054688 -32.433594 6.167969 -32.320312 L 7.421875 -31.632812 C 8.109375 -31.292969 8.90625 -31.0625 9.9375 -31.0625 C 10.734375 -31.0625 11.421875 -31.179688 11.761719 -31.292969 C 13.933594 -32.089844 15.644531 -33.121094 17.359375 -34.832031 C 18.957031 -36.316406 20.441406 -38.03125 21.8125 -39.742188 C 23.183594 -41.457031 24.554688 -43.054688 26.039062 -44.769531 C 26.496094 -45.226562 26.382812 -46.023438 25.808594 -46.367188 C 25.695312 -46.480469 25.582031 -46.480469 25.46875 -46.480469 C 25.238281 -46.480469 25.011719 -46.367188 24.667969 -46.023438 C 24.210938 -45.566406 23.753906 -44.996094 23.296875 -44.425781 L 18.617188 -38.945312 C 17.359375 -37.460938 16.101562 -36.089844 14.390625 -34.832031 C 12.90625 -33.574219 10.847656 -32.546875 8.90625 -32.546875 C 8.109375 -32.546875 7.308594 -32.777344 6.625 -33.234375 C 6.054688 -33.574219 5.9375 -34.03125 6.167969 -34.605469 C 6.625 -35.632812 7.082031 -36.429688 7.878906 -37.34375 C 11.191406 -41.457031 14.503906 -45.566406 17.128906 -50.136719 C 17.585938 -50.820312 17.929688 -51.507812 18.160156 -52.304688 C 18.5 -52.875 17.929688 -53.789062 17.359375 -54.132812 C 17.015625 -54.246094 16.789062 -54.363281 16.675781 -54.363281 C 16.445312 -54.363281 16.101562 -54.246094 15.644531 -53.90625 C 14.160156 -52.648438 12.5625 -50.707031 11.648438 -48.992188 C 9.707031 -46.023438 7.878906 -42.710938 6.167969 -39.171875 C 5.367188 -37.6875 4.683594 -36.429688 3.425781 -35.175781 C 2.625 -34.605469 2.167969 -34.03125 3.082031 -33.003906 C 3.3125 -32.777344 3.3125 -32.320312 2.96875 -31.75 C 2.285156 -29.578125 1.597656 -27.523438 0.914062 -25.46875 C 0.226562 -23.296875 -0.457031 -21.242188 -1.027344 -19.070312 C -1.140625 -18.84375 -1.257812 -18.617188 -1.371094 -18.386719 C -1.484375 -18.160156 -1.597656 -17.816406 -1.828125 -17.246094 C -1.828125 -17.703125 -1.828125 -18.042969 -1.941406 -18.160156 C -1.941406 -18.273438 -1.941406 -18.5 -1.941406 -18.617188 C -0.800781 -28.78125 0.226562 -38.945312 4.566406 -46.367188 C 6.28125 -49.335938 7.996094 -52.304688 9.707031 -55.273438 C 11.421875 -58.246094 13.132812 -61.214844 14.847656 -64.296875 C 17.929688 -69.664062 20.785156 -75.488281 22.15625 -81.429688 C 22.269531 -82.457031 22.15625 -83.253906 21.8125 -83.824219 C 21.585938 -84.167969 21.242188 -84.398438 20.785156 -84.398438 C 20.558594 -84.398438 20.441406 -84.398438 20.328125 -84.28125 C 19.984375 -84.167969 19.644531 -83.941406 19.300781 -83.597656 C 18.957031 -83.253906 18.617188 -82.914062 18.273438 -82.570312 C 12.335938 -75.71875 7.539062 -65.4375 3.882812 -54.816406 C 0.226562 -44.195312 -2.285156 -33.003906 -3.3125 -23.984375 C -3.769531 -20.671875 -4.226562 -17.359375 -4.113281 -14.046875 C -3.996094 -13.703125 -3.996094 -13.246094 -3.996094 -12.90625 C -3.996094 -12.449219 -3.882812 -11.992188 -3.769531 -11.648438 C -3.65625 -10.964844 -3.082031 -10.507812 -2.285156 -10.394531 Z M 5.253906 -51.621094 C 6.167969 -57.558594 14.617188 -77.542969 20.101562 -81.199219 C 20.441406 -80.398438 20.101562 -79.941406 19.757812 -79.144531 C 18.042969 -74.691406 16.101562 -70.234375 13.820312 -66.011719 L 6.625 -53.449219 C 6.28125 -52.648438 6.054688 -52.078125 5.253906 -51.621094 Z M 5.253906 -51.621094 "/></g></g></g></svg>