<svg width="38" height="38" viewBox="0 0 38 38" fill="none" xmlns="http://www.w3.org/2000/svg">
<g filter="url(#filter0_d_58_2)">
<g clip-path="url(#clip0_58_2)">
<rect x="4" width="30" height="30" rx="15" fill="#3C1B67"/>
<path fill-rule="evenodd" clip-rule="evenodd" d="M34 15C34 23.2842 27.2842 30 19 30C10.7157 30 4 23.2842 4 15C4 6.71573 10.7157 0 19 0C27.2842 0 34 6.71573 34 15ZM17.125 9.375V15C17.125 16.0355 17.9645 16.875 19 16.875C20.0355 16.875 20.875 16.0355 20.875 15V9.375C20.875 8.33946 20.0355 7.5 19 7.5C17.9645 7.5 17.125 8.33946 17.125 9.375ZM19 22.5C20.0355 22.5 20.875 21.6605 20.875 20.625C20.875 19.5895 20.0355 18.75 19 18.75C17.9645 18.75 17.125 19.5895 17.125 20.625C17.125 21.6605 17.9645 22.5 19 22.5Z" fill="white"/>
</g>
</g>
<defs>
<filter id="filter0_d_58_2" x="0" y="0" width="38" height="38" filterUnits="userSpaceOnUse" color-interpolation-filters="sRGB">
<feFlood flood-opacity="0" result="BackgroundImageFix"/>
<feColorMatrix in="SourceAlpha" type="matrix" values="0 0 0 0 0 0 0 0 0 0 0 0 0 0 0 0 0 0 127 0" result="hardAlpha"/>
<feOffset dy="4"/>
<feGaussianBlur stdDeviation="2"/>
<feComposite in2="hardAlpha" operator="out"/>
<feColorMatrix type="matrix" values="0 0 0 0 0 0 0 0 0 0 0 0 0 0 0 0 0 0 0.25 0"/>
<feBlend mode="normal" in2="BackgroundImageFix" result="effect1_dropShadow_58_2"/>
<feBlend mode="normal" in="SourceGraphic" in2="effect1_dropShadow_58_2" result="shape"/>
</filter>
<clipPath id="clip0_58_2">
<rect x="4" width="30" height="30" rx="15" fill="white"/>
</clipPath>
</defs>
</svg>
