<svg xmlns="http://www.w3.org/2000/svg" xmlns:xlink="http://www.w3.org/1999/xlink" width="500" zoomAndPan="magnify" viewBox="0 0 375 374.999991" height="500" preserveAspectRatio="xMidYMid meet" version="1.0"><defs><g/></defs><g fill="#000000" fill-opacity="1"><g transform="translate(114.123366, 199.124987)"><g><path d="M 13.4375 0.46875 C 9.289062 0.46875 6.09375 -0.582031 3.84375 -2.6875 C 1.59375 -4.800781 0.46875 -8.175781 0.46875 -12.8125 C 0.46875 -21.664062 4.769531 -26.09375 13.375 -26.09375 C 15.457031 -26.09375 17.394531 -25.835938 19.1875 -25.328125 C 20.976562 -24.828125 22.3125 -24.269531 23.1875 -23.65625 L 23.1875 -15.421875 L 15.28125 -15.421875 L 15.28125 -17.78125 C 15.28125 -18.613281 15.09375 -19.226562 14.71875 -19.625 C 14.34375 -20.019531 13.785156 -20.21875 13.046875 -20.21875 C 12.296875 -20.21875 11.734375 -20.019531 11.359375 -19.625 C 10.984375 -19.226562 10.796875 -18.613281 10.796875 -17.78125 L 10.796875 -7.84375 C 10.796875 -7.007812 10.984375 -6.394531 11.359375 -6 C 11.734375 -5.601562 12.296875 -5.40625 13.046875 -5.40625 C 13.785156 -5.40625 14.34375 -5.601562 14.71875 -6 C 15.09375 -6.394531 15.28125 -7.007812 15.28125 -7.84375 L 15.28125 -10.5 L 23.1875 -10.5 L 23.1875 -1.96875 C 22.289062 -1.351562 20.957031 -0.789062 19.1875 -0.28125 C 17.414062 0.21875 15.5 0.46875 13.4375 0.46875 Z M 13.4375 0.46875 "/></g></g></g><g fill="#000000" fill-opacity="1"><g transform="translate(137.89858, 199.124987)"><g><path d="M 22.46875 -5.40625 L 22.46875 0 L 12.0625 0 L 12.0625 -5.40625 L 13.4375 -5.40625 L 13.4375 -10.796875 C 13.4375 -11.523438 13.28125 -12.054688 12.96875 -12.390625 C 12.664062 -12.734375 12.207031 -12.90625 11.59375 -12.90625 C 10.28125 -12.90625 9.625 -12.203125 9.625 -10.796875 L 9.625 -5.40625 L 11 -5.40625 L 11 0 L 0.59375 0 L 0.59375 -5.40625 L 2.046875 -5.40625 L 2.046875 -20.21875 L 0.59375 -20.21875 L 0.59375 -25.625 L 9.625 -25.625 L 9.625 -15.75 C 10.4375 -16.757812 11.3125 -17.515625 12.25 -18.015625 C 13.195312 -18.523438 14.296875 -18.78125 15.546875 -18.78125 C 17.367188 -18.78125 18.734375 -18.207031 19.640625 -17.0625 C 20.554688 -15.914062 21.015625 -14.347656 21.015625 -12.359375 L 21.015625 -5.40625 Z M 22.46875 -5.40625 "/></g></g></g><g fill="#000000" fill-opacity="1"><g transform="translate(160.817627, 199.124987)"><g><path d="M 19.796875 -5.40625 L 19.796875 0 L 11.09375 0 L 11.09375 -2.234375 C 10.613281 -1.535156 9.9375 -0.910156 9.0625 -0.359375 C 8.195312 0.191406 7.140625 0.46875 5.890625 0.46875 C 4.242188 0.46875 2.945312 0.03125 2 -0.84375 C 1.0625 -1.726562 0.59375 -2.972656 0.59375 -4.578125 C 0.59375 -8.722656 4.117188 -10.851562 11.171875 -10.96875 C 11.097656 -11.71875 10.804688 -12.226562 10.296875 -12.5 C 9.796875 -12.769531 8.941406 -12.90625 7.734375 -12.90625 C 6.753906 -12.90625 5.695312 -12.800781 4.5625 -12.59375 C 3.425781 -12.382812 2.390625 -12.109375 1.453125 -11.765625 L 1.453125 -17.8125 C 2.609375 -18.101562 3.867188 -18.335938 5.234375 -18.515625 C 6.597656 -18.691406 7.925781 -18.78125 9.21875 -18.78125 C 12.488281 -18.78125 14.828125 -18.1875 16.234375 -17 C 17.640625 -15.8125 18.34375 -13.976562 18.34375 -11.5 L 18.34375 -5.40625 Z M 11.09375 -7.703125 C 10.113281 -7.703125 9.351562 -7.570312 8.8125 -7.3125 C 8.269531 -7.050781 8 -6.613281 8 -6 C 8 -5.625 8.113281 -5.320312 8.34375 -5.09375 C 8.582031 -4.863281 8.910156 -4.75 9.328125 -4.75 C 9.890625 -4.75 10.320312 -4.988281 10.625 -5.46875 C 10.9375 -5.945312 11.09375 -6.628906 11.09375 -7.515625 Z M 11.09375 -7.703125 "/></g></g></g><g fill="#8c52ff" fill-opacity="1"><g transform="translate(181.072581, 199.124987)"><g><path d="M 25.234375 -17.65625 L 19.5625 -17.65625 L 19.5625 -20.21875 L 17.453125 -20.21875 L 17.453125 -5.40625 L 19.765625 -5.40625 L 19.765625 0 L 5.921875 0 L 5.921875 -5.40625 L 8.234375 -5.40625 L 8.234375 -20.21875 L 6.125 -20.21875 L 6.125 -17.65625 L 0.46875 -17.65625 L 0.46875 -25.625 L 25.234375 -25.625 Z M 25.234375 -17.65625 "/></g></g></g><g fill="#8c52ff" fill-opacity="1"><g transform="translate(206.75771, 199.124987)"><g><path d="M 19.796875 -5.40625 L 19.796875 0 L 11.09375 0 L 11.09375 -2.234375 C 10.613281 -1.535156 9.9375 -0.910156 9.0625 -0.359375 C 8.195312 0.191406 7.140625 0.46875 5.890625 0.46875 C 4.242188 0.46875 2.945312 0.03125 2 -0.84375 C 1.0625 -1.726562 0.59375 -2.972656 0.59375 -4.578125 C 0.59375 -8.722656 4.117188 -10.851562 11.171875 -10.96875 C 11.097656 -11.71875 10.804688 -12.226562 10.296875 -12.5 C 9.796875 -12.769531 8.941406 -12.90625 7.734375 -12.90625 C 6.753906 -12.90625 5.695312 -12.800781 4.5625 -12.59375 C 3.425781 -12.382812 2.390625 -12.109375 1.453125 -11.765625 L 1.453125 -17.8125 C 2.609375 -18.101562 3.867188 -18.335938 5.234375 -18.515625 C 6.597656 -18.691406 7.925781 -18.78125 9.21875 -18.78125 C 12.488281 -18.78125 14.828125 -18.1875 16.234375 -17 C 17.640625 -15.8125 18.34375 -13.976562 18.34375 -11.5 L 18.34375 -5.40625 Z M 11.09375 -7.703125 C 10.113281 -7.703125 9.351562 -7.570312 8.8125 -7.3125 C 8.269531 -7.050781 8 -6.613281 8 -6 C 8 -5.625 8.113281 -5.320312 8.34375 -5.09375 C 8.582031 -4.863281 8.910156 -4.75 9.328125 -4.75 C 9.890625 -4.75 10.320312 -4.988281 10.625 -5.46875 C 10.9375 -5.945312 11.09375 -6.628906 11.09375 -7.515625 Z M 11.09375 -7.703125 "/></g></g></g><g fill="#8c52ff" fill-opacity="1"><g transform="translate(227.009447, 199.124987)"><g><path d="M 0.59375 0.03125 L 0.59375 -5.40625 L 2.046875 -5.40625 L 2.046875 -20.21875 L 0.59375 -20.21875 L 0.59375 -25.625 L 9.625 -25.625 L 9.625 -5.40625 L 11.0625 -5.40625 L 11.0625 0.03125 Z M 0.59375 0.03125 "/></g></g></g><g fill="#8c52ff" fill-opacity="1"><g transform="translate(238.534826, 199.124987)"><g><path d="M 20.453125 -5.40625 L 21.875 -5.40625 L 21.875 0 L 13.796875 0 L 10.40625 -6.328125 L 9.625 -6.328125 L 9.625 0 L 0.59375 0 L 0.59375 -5.40625 L 2.046875 -5.40625 L 2.046875 -20.21875 L 0.59375 -20.21875 L 0.59375 -25.625 L 9.625 -25.625 L 9.625 -12.25 L 10.40625 -12.25 L 14.5 -18.3125 L 21.4375 -18.3125 L 21.4375 -12.90625 L 20.09375 -12.90625 L 17.296875 -9.78125 Z M 20.453125 -5.40625 "/></g></g></g></svg>