<svg width="30" height="30" viewBox="0 0 30 30" fill="none" xmlns="http://www.w3.org/2000/svg">
<path d="M22.7813 15.375L19.6875 17.5781C19.6875 17.5781 18.1406 13.2656 16.9688 10.5C16.5 9.37499 15 8.99999 14.2969 7.40624C13.0781 4.68749 14.5313 2.34374 15.9375 4.03124C17.5781 5.99999 20.0156 7.45312 20.5313 8.57812C21.3281 10.4531 22.7813 15.375 22.7813 15.375Z" fill="#FFE1BD"/>
<path d="M25.2188 17.1562C25.4532 18.6562 25.2657 20.9531 23.9532 23.6719C23.9532 23.6719 21.2813 20.4844 20.9532 18.9844C20.9532 18.9844 20.2032 13.4062 19.4063 9.84374C19.0782 8.39062 17.3907 7.54687 16.9688 5.48437C16.2188 1.92187 18.4688 -0.562505 19.7813 1.82812C21.2813 4.59374 23.8125 6.93749 24.1407 8.39062C24.7032 10.875 24.9375 15 25.2188 17.1562Z" fill="#FFE1BD"/>
<path d="M21.2813 14.3438C21.2813 14.3438 21.0469 12.2344 20.25 8.67188C19.9219 7.21875 18.2344 6.375 17.8125 4.3125C17.5313 3.09375 17.625 1.96875 17.9531 1.17188C17.1563 1.78125 16.5 3.46875 16.9219 5.53125C17.3438 7.59375 19.0781 8.4375 19.3594 9.89063C19.6875 11.4375 19.9688 13.0312 19.9688 13.0312L17.625 12.1406L21.2813 14.3438Z" fill="#E6B796"/>
<path d="M24.0937 16.5937C21 13.7812 17.5312 12.0469 15.2812 10.9687C11.9531 9.32812 12.8437 11.5781 7.17185 13.0781C6.42185 13.2656 5.53122 13.8281 6.23435 15.2344C6.8906 16.5937 12.2343 15.5625 13.0781 14.7656C13.0781 14.7656 15.3281 17.5312 17.5781 17.4375C17.5781 17.4375 17.2031 19.2656 17.7187 20.1562C17.7187 20.1562 14.5312 21.7969 13.1718 23.25L9.42185 20.7187C9.1406 16.8281 8.43747 15.6562 6.5156 15.8437C4.73435 16.0312 4.92185 17.7187 4.96872 19.0781C5.0156 21.5625 4.35935 21.9844 4.96872 22.9687C7.2656 26.7187 10.2187 29.0625 15.6562 29.0625C17.6718 29.0625 18.9843 29.0156 20.25 28.4062C22.3125 27.3281 27.5156 19.7344 24.0937 16.5937Z" fill="#FFE1BD"/>
<path d="M24.7031 17.3438C25.875 20.9062 21.7031 26.7656 19.875 27.6562C18.6094 28.2656 17.3438 28.3125 15.2812 28.3125C9.89062 28.3125 6.98438 26.0156 4.6875 22.3125C4.73438 22.5 4.82813 22.7344 4.92188 22.9219C7.26563 26.7188 10.2188 29.0625 15.6563 29.0625C17.6719 29.0625 18.9844 29.0156 20.25 28.4062C22.1719 27.4219 26.8125 20.8125 24.7031 17.3438Z" fill="#E6B796"/>
<path d="M8.71875 20.8125C8.71875 20.8125 12.2344 23.0625 13.0781 23.2031L9.375 20.7187C9.51563 16.7812 8.39063 15.5156 6.46875 15.8437C6.32813 15.8906 6.1875 15.8906 6.04688 15.9375C7.96875 15.7031 8.85938 16.9687 8.71875 20.8125Z" fill="#E6B796"/>
<path d="M13.0781 14.7656C13.0781 14.7656 15.3281 17.4844 17.5781 17.4375V16.9219C15.3281 16.9687 13.0781 14.25 13.0781 14.25C12.2344 15.0937 6.8906 16.125 6.23435 14.7187C6.1406 14.4844 6.04685 14.25 5.99998 14.0625C5.9531 14.3438 5.99998 14.7187 6.23435 15.2344C6.8906 16.5938 12.2344 15.5625 13.0781 14.7656Z" fill="#E6B796"/>
</svg>
